<svg xmlns="http://www.w3.org/2000/svg" xmlns:xlink="http://www.w3.org/1999/xlink" width="500" zoomAndPan="magnify" viewBox="0 0 375 374.999991" height="500" preserveAspectRatio="xMidYMid meet" version="1.0"><defs><clipPath id="f497881dc3"><path d="M 59.414062 58.5 L 317.414062 58.5 L 317.414062 316.5 L 59.414062 316.5 Z M 59.414062 58.5 " clip-rule="nonzero"/></clipPath><clipPath id="67d267c3da"><path d="M 188.414062 316.5 C 153.972656 316.5 121.542969 303.09375 97.207031 278.707031 C 72.820312 254.371094 59.414062 221.941406 59.414062 187.5 C 59.414062 153.058594 72.820312 120.628906 97.207031 96.292969 C 121.542969 71.90625 153.972656 58.5 188.414062 58.5 C 222.855469 58.5 255.285156 71.90625 279.621094 96.292969 C 304.011719 120.679688 317.414062 153.058594 317.414062 187.5 C 317.414062 221.941406 304.011719 254.371094 279.621094 278.707031 C 255.285156 303.09375 222.855469 316.5 188.414062 316.5 Z M 188.414062 66.234375 C 156.035156 66.234375 125.566406 78.867188 102.671875 101.757812 C 79.78125 124.648438 67.148438 155.121094 67.148438 187.5 C 67.148438 219.878906 79.78125 250.351562 102.671875 273.242188 C 125.566406 296.132812 156.035156 308.765625 188.414062 308.765625 C 220.792969 308.765625 251.265625 296.132812 274.15625 273.242188 C 297.050781 250.351562 309.679688 219.878906 309.679688 187.5 C 309.679688 155.121094 297.050781 124.648438 274.15625 101.757812 C 251.265625 78.867188 220.792969 66.234375 188.414062 66.234375 Z M 188.414062 66.234375 " clip-rule="nonzero"/></clipPath><clipPath id="bcf77ac529"><path d="M 97.609375 104.464844 L 277.609375 104.464844 L 277.609375 270.214844 L 97.609375 270.214844 Z M 97.609375 104.464844 " clip-rule="nonzero"/></clipPath></defs><rect x="-37.5" width="450" fill="#ffffff" y="-37.499999" height="449.999989" fill-opacity="1"/><rect x="-37.5" width="450" fill="#ffffff" y="-37.499999" height="449.999989" fill-opacity="1"/><g clip-path="url(#f497881dc3)"><g clip-path="url(#67d267c3da)"><path fill="#29452c" d="M 59.414062 58.5 L 317.414062 58.5 L 317.414062 316.5 L 59.414062 316.5 Z M 59.414062 58.5 " fill-opacity="1" fill-rule="nonzero"/></g></g><g clip-path="url(#bcf77ac529)"><path fill="#29452c" d="M 251.714844 163.539062 L 251.714844 185.546875 C 251.714844 185.71875 251.601562 185.867188 251.433594 185.910156 C 251.265625 185.953125 251.097656 185.878906 251.015625 185.726562 C 249.125 182.265625 246.574219 179.222656 243.542969 176.761719 C 243.453125 176.6875 243.402344 176.589844 243.402344 176.472656 L 243.402344 163.539062 C 243.402344 163.355469 243.269531 163.199219 243.085938 163.171875 C 228.90625 161.015625 218.042969 148.773438 218.042969 133.992188 C 218.042969 117.691406 231.257812 104.472656 247.558594 104.472656 C 263.863281 104.472656 277.078125 117.691406 277.078125 133.992188 C 277.078125 148.773438 266.214844 161.015625 252.035156 163.171875 C 251.847656 163.199219 251.714844 163.355469 251.714844 163.539062 Z M 145 220.8125 C 147.386719 220.878906 149.289062 221.566406 150.972656 223.25 C 152.480469 224.757812 153.417969 226.84375 153.417969 229.136719 L 153.417969 235.09375 C 153.417969 239.679688 149.675781 243.421875 145.089844 243.421875 L 142.910156 243.421875 C 142.714844 243.421875 142.554688 243.566406 142.539062 243.761719 L 142.46875 244.515625 C 142.453125 244.710938 142.289062 244.855469 142.089844 244.855469 C 142.042969 244.851562 141.996094 244.851562 141.945312 244.851562 L 124.375 244.851562 C 124.117188 244.851562 123.867188 244.863281 123.613281 244.882812 C 123.417969 244.898438 123.246094 244.765625 123.214844 244.570312 L 119.941406 224.394531 C 119.933594 224.347656 119.917969 224.308594 119.894531 224.265625 L 114.9375 215.875 C 114.867188 215.757812 114.867188 215.621094 114.933594 215.5 C 115.003906 215.378906 115.121094 215.3125 115.257812 215.3125 L 140.277344 215.3125 C 142.714844 215.3125 144.917969 217.308594 144.699219 219.734375 L 144.640625 220.40625 C 144.628906 220.511719 144.660156 220.605469 144.734375 220.6875 C 144.804688 220.765625 144.894531 220.808594 145 220.8125 Z M 151.757812 270.011719 L 145.039062 252.738281 C 144.53125 251.4375 143.339844 250.621094 141.945312 250.621094 L 124.375 250.621094 C 122.976562 250.621094 121.789062 251.4375 121.28125 252.738281 L 114.5625 270.011719 C 114.519531 270.132812 114.53125 270.253906 114.601562 270.359375 C 114.675781 270.464844 114.785156 270.519531 114.910156 270.519531 L 151.40625 270.519531 C 151.535156 270.519531 151.644531 270.464844 151.714844 270.359375 C 151.789062 270.253906 151.800781 270.132812 151.757812 270.011719 Z M 143.472656 237.824219 C 144.882812 237.851562 146.0625 237.964844 147.011719 237.015625 C 147.507812 236.519531 147.816406 235.839844 147.816406 235.09375 L 147.816406 229.136719 C 147.816406 227.640625 146.582031 226.410156 145.089844 226.410156 L 144.441406 226.410156 C 144.246094 226.410156 144.085938 226.554688 144.070312 226.75 L 143.109375 237.414062 C 143.097656 237.523438 143.132812 237.617188 143.203125 237.699219 C 143.273438 237.777344 143.367188 237.820312 143.472656 237.824219 Z M 242.464844 145.203125 C 242.558594 145.117188 242.601562 145 242.582031 144.871094 C 242.566406 144.746094 242.492188 144.644531 242.378906 144.589844 C 238.046875 142.46875 235.328125 137.84375 235.820312 132.832031 C 235.832031 132.726562 235.804688 132.632812 235.734375 132.554688 C 235.667969 132.476562 235.582031 132.429688 235.476562 132.421875 C 231.554688 132.132812 228.027344 130.65625 224.894531 127.992188 C 224.789062 127.902344 224.648438 127.878906 224.519531 127.929688 C 224.386719 127.980469 224.300781 128.089844 224.28125 128.230469 C 222.820312 139.785156 229.234375 157.195312 242.464844 145.203125 Z M 247.558594 127.925781 C 244.210938 127.925781 241.496094 130.644531 241.496094 133.992188 C 241.496094 137.339844 244.210938 140.058594 247.558594 140.058594 C 250.910156 140.058594 253.625 137.339844 253.625 133.992188 C 253.625 130.644531 250.910156 127.925781 247.558594 127.925781 Z M 240.664062 123.800781 C 240.691406 123.925781 240.769531 124.019531 240.886719 124.066406 C 241.003906 124.117188 241.125 124.105469 241.230469 124.039062 C 245.308594 121.4375 250.582031 121.601562 254.492188 124.449219 C 254.578125 124.511719 254.675781 124.535156 254.78125 124.515625 C 254.882812 124.496094 254.964844 124.441406 255.023438 124.351562 C 257.25 120.957031 260.355469 118.546875 264.339844 117.125 C 264.472656 117.078125 264.5625 116.96875 264.582031 116.828125 C 264.605469 116.691406 264.550781 116.5625 264.441406 116.476562 C 255.132812 109.40625 236.847656 106.285156 240.664062 123.800781 Z M 259.8125 132.792969 C 259.691406 132.753906 259.570312 132.777344 259.46875 132.855469 C 259.367188 132.933594 259.316406 133.046875 259.328125 133.175781 C 259.667969 138.105469 256.925781 142.585938 252.648438 144.632812 C 252.554688 144.679688 252.492188 144.75 252.457031 144.851562 C 252.421875 144.949219 252.429688 145.042969 252.476562 145.136719 C 254.265625 148.734375 254.78125 152.597656 254.027344 156.71875 C 254.003906 156.855469 254.050781 156.988281 254.160156 157.078125 C 254.269531 157.164062 254.410156 157.183594 254.539062 157.128906 C 265.492188 152.539062 277.199219 138.21875 259.8125 132.792969 Z M 259.183594 200.859375 C 259.386719 200.859375 259.554688 200.691406 259.554688 200.484375 L 259.554688 196.394531 C 259.554688 193.121094 256.878906 191.675781 253.605469 191.675781 L 247.640625 191.675781 C 247.480469 191.675781 247.347656 191.582031 247.289062 191.4375 C 243.792969 182.308594 234.953125 175.828125 224.597656 175.828125 C 214.238281 175.828125 205.398438 182.308594 201.902344 191.4375 C 201.847656 191.585938 201.710938 191.675781 201.554688 191.675781 L 195.585938 191.675781 C 192.316406 191.675781 189.636719 193.121094 189.636719 196.394531 L 189.636719 200.484375 C 189.636719 200.691406 189.804688 200.859375 190.011719 200.859375 Z M 164.5 219.191406 L 218.703125 219.191406 C 222.351562 219.191406 225.335938 222.175781 225.335938 225.824219 L 225.335938 263.886719 C 225.335938 267.535156 222.351562 270.519531 218.703125 270.519531 L 164.5 270.519531 C 160.851562 270.519531 157.863281 267.535156 157.863281 263.886719 L 157.863281 225.824219 C 157.863281 222.175781 160.847656 219.191406 164.5 219.191406 Z M 210.8125 237.402344 L 215.710938 237.402344 C 217.257812 237.402344 218.511719 236.144531 218.511719 234.597656 C 218.511719 233.050781 217.257812 231.796875 215.710938 231.796875 L 210.8125 231.796875 C 209.265625 231.796875 208.011719 233.050781 208.011719 234.597656 C 208.011719 236.144531 209.265625 237.402344 210.8125 237.402344 Z M 210.8125 257.914062 L 215.710938 257.914062 C 217.257812 257.914062 218.511719 256.660156 218.511719 255.113281 C 218.511719 253.566406 217.257812 252.3125 215.710938 252.3125 L 210.8125 252.3125 C 209.265625 252.3125 208.011719 253.566406 208.011719 255.113281 C 208.011719 256.660156 209.265625 257.914062 210.8125 257.914062 Z M 210.8125 247.65625 L 215.710938 247.65625 C 217.257812 247.65625 218.511719 246.402344 218.511719 244.855469 C 218.511719 243.308594 217.257812 242.054688 215.710938 242.054688 L 210.8125 242.054688 C 209.265625 242.054688 208.011719 243.308594 208.011719 244.855469 C 208.011719 246.402344 209.265625 247.65625 210.8125 247.65625 Z M 172.898438 230.082031 C 170.15625 230.082031 167.914062 232.324219 167.914062 235.066406 L 167.914062 254.648438 C 167.914062 257.390625 170.15625 259.632812 172.898438 259.632812 L 197.382812 259.632812 C 200.125 259.632812 202.367188 257.390625 202.367188 254.648438 L 202.367188 235.066406 C 202.367188 232.324219 200.125 230.082031 197.382812 230.082031 Z M 168.96875 164.898438 L 98.164062 164.898438 C 97.960938 164.898438 97.792969 164.730469 97.792969 164.523438 L 97.792969 123.996094 C 97.792969 119.570312 100.933594 115.953125 104.773438 115.953125 L 162.359375 115.953125 C 166.199219 115.953125 169.339844 119.570312 169.339844 123.996094 L 169.339844 164.523438 C 169.339844 164.730469 169.175781 164.898438 168.96875 164.898438 Z M 106.050781 137.074219 L 106.050781 143.773438 C 106.050781 145.324219 107.304688 146.578125 108.855469 146.578125 C 110.402344 146.578125 111.65625 145.324219 111.65625 143.773438 L 111.65625 137.074219 C 111.65625 135.527344 110.402344 134.273438 108.855469 134.273438 C 107.304688 134.273438 106.050781 135.527344 106.050781 137.074219 Z M 169.339844 170.875 C 169.339844 170.667969 169.175781 170.5 168.96875 170.5 L 98.164062 170.5 C 97.960938 170.5 97.792969 170.667969 97.792969 170.875 L 97.792969 263.914062 C 97.792969 267.265625 100.1875 269.714844 103.351562 270.375 C 103.375 270.378906 103.394531 270.382812 103.417969 270.382812 C 105.03125 270.417969 106.535156 270.445312 107.9375 270.464844 C 108.097656 270.464844 108.230469 270.375 108.289062 270.226562 L 115.90625 250.644531 C 116.335938 249.535156 116.960938 248.550781 117.734375 247.722656 C 117.816406 247.632812 117.847656 247.527344 117.828125 247.40625 L 114.421875 226.394531 C 114.414062 226.347656 114.398438 226.304688 114.371094 226.265625 L 104.828125 210.105469 C 104.757812 209.988281 104.753906 209.851562 104.824219 209.730469 C 104.890625 209.613281 105.011719 209.542969 105.148438 209.542969 L 140.277344 209.542969 C 144.421875 209.542969 148.164062 212.078125 149.71875 215.695312 C 149.761719 215.792969 149.832031 215.859375 149.933594 215.898438 C 151.453125 216.457031 152.875 217.277344 154.132812 218.332031 C 154.214844 218.398438 154.308594 218.429688 154.414062 218.417969 C 154.519531 218.40625 154.605469 218.355469 154.667969 218.273438 C 156.941406 215.328125 160.503906 213.421875 164.496094 213.421875 L 168.96875 213.421875 C 169.171875 213.421875 169.339844 213.253906 169.339844 213.050781 Z M 259.554688 206.832031 C 259.554688 206.628906 259.386719 206.460938 259.183594 206.460938 L 253.597656 206.460938 C 253.394531 206.460938 253.226562 206.628906 253.226562 206.832031 L 253.226562 238.457031 C 253.226562 238.660156 253.058594 238.828125 252.851562 238.828125 L 242.039062 238.828125 C 241.832031 238.828125 241.664062 238.664062 241.664062 238.457031 L 241.664062 206.832031 C 241.664062 206.628906 241.496094 206.460938 241.289062 206.460938 L 190.011719 206.460938 C 189.804688 206.460938 189.636719 206.628906 189.636719 206.832031 L 189.636719 213.050781 C 189.636719 213.253906 189.804688 213.421875 190.011719 213.421875 L 218.703125 213.421875 C 225.535156 213.421875 231.105469 218.992188 231.105469 225.824219 L 231.105469 263.886719 C 231.105469 266.09375 230.527344 268.167969 229.511719 269.964844 C 229.441406 270.082031 229.445312 270.21875 229.511719 270.335938 C 229.582031 270.453125 229.699219 270.519531 229.835938 270.519531 L 253.605469 270.519531 C 256.878906 270.519531 259.554688 267.84375 259.554688 264.570312 Z M 259.554688 206.832031 " fill-opacity="1" fill-rule="evenodd"/></g></svg>