<svg xmlns="http://www.w3.org/2000/svg" xmlns:xlink="http://www.w3.org/1999/xlink" width="500" zoomAndPan="magnify" viewBox="0 0 375 374.999991" height="500" preserveAspectRatio="xMidYMid meet" version="1.0"><defs><clipPath id="d922474355"><path d="M 58.5 58.5 L 316.5 58.5 L 316.5 316.5 L 58.5 316.5 Z M 58.5 58.5 " clip-rule="nonzero"/></clipPath><clipPath id="7f69d53e66"><path d="M 187.5 316.5 C 153.058594 316.5 120.628906 303.09375 96.292969 278.707031 C 71.90625 254.371094 58.5 221.941406 58.5 187.5 C 58.5 153.058594 71.90625 120.628906 96.292969 96.292969 C 120.628906 71.90625 153.058594 58.5 187.5 58.5 C 221.941406 58.5 254.371094 71.90625 278.707031 96.292969 C 303.09375 120.679688 316.5 153.058594 316.5 187.5 C 316.5 221.941406 303.09375 254.371094 278.707031 278.707031 C 254.371094 303.09375 221.941406 316.5 187.5 316.5 Z M 187.5 66.234375 C 155.121094 66.234375 124.648438 78.867188 101.757812 101.757812 C 78.867188 124.648438 66.234375 155.121094 66.234375 187.5 C 66.234375 219.878906 78.867188 250.351562 101.757812 273.242188 C 124.648438 296.132812 155.121094 308.765625 187.5 308.765625 C 219.878906 308.765625 250.351562 296.132812 273.242188 273.242188 C 296.132812 250.351562 308.765625 219.878906 308.765625 187.5 C 308.765625 155.121094 296.132812 124.648438 273.242188 101.757812 C 250.351562 78.867188 219.878906 66.234375 187.5 66.234375 Z M 187.5 66.234375 " clip-rule="nonzero"/></clipPath><clipPath id="2d9e10440b"><path d="M 79.226562 80.234375 L 295.765625 80.234375 L 295.765625 294.734375 L 79.226562 294.734375 Z M 79.226562 80.234375 " clip-rule="nonzero"/></clipPath></defs><g clip-path="url(#d922474355)"><g clip-path="url(#7f69d53e66)"><path fill="#29452c" d="M 58.5 58.5 L 316.5 58.5 L 316.5 316.5 L 58.5 316.5 Z M 58.5 58.5 " fill-opacity="1" fill-rule="nonzero"/></g></g><g clip-path="url(#2d9e10440b)"><path fill="#29452c" d="M 295.765625 187.496094 C 295.765625 192.625 291.109375 197.363281 290.40625 202.296875 C 289.683594 207.355469 292.8125 213.207031 291.40625 218.007812 C 289.972656 222.890625 284.167969 226.125 282.082031 230.691406 C 279.96875 235.304688 281.3125 241.808594 278.585938 246.039062 C 275.847656 250.296875 269.367188 251.761719 266.0625 255.574219 C 262.75 259.390625 262.214844 266.011719 258.398438 269.324219 C 254.585938 272.628906 247.957031 272.222656 243.703125 274.964844 C 239.46875 277.6875 237.097656 283.894531 232.480469 286.007812 C 227.917969 288.09375 221.675781 285.835938 216.792969 287.269531 C 211.992188 288.675781 207.960938 293.957031 202.90625 294.679688 C 197.972656 295.382812 192.621094 291.453125 187.496094 291.453125 C 182.367188 291.453125 177.019531 295.382812 172.085938 294.679688 C 167.03125 293.957031 163 288.675781 158.199219 287.269531 C 153.3125 285.835938 147.074219 288.09375 142.507812 286.007812 C 137.894531 283.894531 135.519531 277.6875 131.289062 274.964844 C 127.03125 272.222656 120.402344 272.628906 116.59375 269.324219 C 112.773438 266.011719 112.238281 259.390625 108.929688 255.574219 C 105.625 251.761719 99.144531 250.296875 96.402344 246.039062 C 93.675781 241.808594 95.019531 235.304688 92.910156 230.691406 C 90.820312 226.125 85.015625 222.890625 83.585938 218.007812 C 82.175781 213.207031 85.304688 207.355469 84.585938 202.296875 C 83.882812 197.363281 79.226562 192.625 79.226562 187.496094 C 79.226562 182.371094 83.882812 177.628906 84.585938 172.699219 C 85.304688 167.640625 82.175781 161.789062 83.585938 156.988281 C 85.015625 152.101562 90.820312 148.871094 92.910156 144.304688 C 95.019531 139.691406 93.675781 133.1875 96.402344 128.957031 C 99.144531 124.699219 105.625 123.230469 108.929688 119.421875 C 112.238281 115.605469 112.777344 108.984375 116.59375 105.671875 C 120.402344 102.367188 127.03125 102.773438 131.289062 100.03125 C 135.519531 97.308594 137.894531 91.101562 142.507812 88.988281 C 147.074219 86.902344 153.3125 89.160156 158.199219 87.726562 C 163 86.320312 167.03125 81.039062 172.085938 80.316406 C 177.019531 79.613281 182.367188 83.542969 187.496094 83.542969 C 192.621094 83.542969 197.972656 79.613281 202.90625 80.316406 C 207.960938 81.039062 211.992188 86.320312 216.792969 87.726562 C 221.675781 89.160156 227.917969 86.902344 232.484375 88.988281 C 237.097656 91.101562 239.46875 97.308594 243.703125 100.03125 C 247.957031 102.773438 254.585938 102.367188 258.398438 105.671875 C 262.214844 108.984375 262.75 115.605469 266.0625 119.421875 C 269.367188 123.230469 275.847656 124.699219 278.589844 128.957031 C 281.3125 133.1875 279.96875 139.691406 282.082031 144.304688 C 284.167969 148.871094 289.972656 152.101562 291.40625 156.988281 C 292.8125 161.789062 289.683594 167.640625 290.40625 172.699219 C 291.109375 177.628906 295.765625 182.371094 295.765625 187.496094 " fill-opacity="1" fill-rule="nonzero"/></g><path fill="#ffffff" d="M 187.496094 93.480469 C 174.800781 93.480469 162.488281 95.964844 150.898438 100.867188 C 139.703125 105.601562 129.648438 112.382812 121.015625 121.015625 C 112.378906 129.652344 105.597656 139.707031 100.863281 150.902344 C 95.960938 162.492188 93.476562 174.804688 93.476562 187.496094 C 93.476562 200.191406 95.960938 212.503906 100.863281 224.09375 C 105.597656 235.289062 112.378906 245.34375 121.015625 253.980469 C 129.648438 262.613281 139.703125 269.394531 150.898438 274.128906 C 162.488281 279.03125 174.800781 281.515625 187.496094 281.515625 C 200.1875 281.515625 212.5 279.03125 224.089844 274.128906 C 235.289062 269.394531 245.34375 262.613281 253.976562 253.980469 C 262.613281 245.34375 269.390625 235.289062 274.125 224.09375 C 279.03125 212.503906 281.515625 200.191406 281.515625 187.496094 C 281.515625 174.804688 279.03125 162.492188 274.125 150.902344 C 269.390625 139.707031 262.613281 129.652344 253.976562 121.015625 C 245.34375 112.382812 235.289062 105.601562 224.089844 100.867188 C 212.5 95.964844 200.1875 93.480469 187.496094 93.480469 Z M 187.496094 283.828125 C 174.492188 283.828125 161.875 281.28125 150 276.257812 C 138.527344 271.402344 128.226562 264.460938 119.378906 255.613281 C 110.535156 246.765625 103.589844 236.464844 98.738281 224.992188 C 93.714844 213.117188 91.167969 200.5 91.167969 187.496094 C 91.167969 174.492188 93.714844 161.878906 98.738281 150 C 103.589844 138.53125 110.535156 128.230469 119.378906 119.382812 C 128.226562 110.535156 138.527344 103.589844 150 98.738281 C 161.875 93.714844 174.492188 91.167969 187.496094 91.167969 C 200.5 91.167969 213.113281 93.714844 224.992188 98.738281 C 236.460938 103.589844 246.765625 110.535156 255.609375 119.382812 C 264.457031 128.230469 271.402344 138.53125 276.253906 150 C 281.277344 161.878906 283.824219 174.492188 283.824219 187.496094 C 283.824219 200.5 281.277344 213.117188 276.253906 224.992188 C 271.402344 236.464844 264.457031 246.765625 255.609375 255.613281 C 246.765625 264.460938 236.460938 271.402344 224.992188 276.257812 C 213.113281 281.28125 200.5 283.828125 187.496094 283.828125 " fill-opacity="1" fill-rule="nonzero"/><path fill="#ffffff" d="M 187.496094 124.3125 C 178.964844 124.3125 170.691406 125.980469 162.902344 129.277344 C 155.375 132.457031 148.621094 137.015625 142.816406 142.816406 C 137.011719 148.621094 132.457031 155.378906 129.273438 162.902344 C 125.980469 170.691406 124.308594 178.96875 124.308594 187.496094 C 124.308594 196.027344 125.980469 204.304688 129.273438 212.09375 C 132.457031 219.617188 137.011719 226.375 142.816406 232.175781 C 148.621094 237.980469 155.375 242.535156 162.902344 245.71875 C 170.691406 249.011719 178.964844 250.683594 187.496094 250.683594 C 196.027344 250.683594 204.300781 249.011719 212.089844 245.71875 C 219.613281 242.535156 226.371094 237.980469 232.175781 232.175781 C 237.976562 226.375 242.535156 219.617188 245.714844 212.09375 C 249.011719 204.304688 250.683594 196.027344 250.683594 187.496094 C 250.683594 178.96875 249.011719 170.691406 245.714844 162.902344 C 242.535156 155.378906 237.976562 148.621094 232.175781 142.816406 C 226.371094 137.015625 219.613281 132.457031 212.089844 129.277344 C 204.300781 125.980469 196.027344 124.3125 187.496094 124.3125 Z M 187.496094 253.078125 C 178.644531 253.078125 170.054688 251.34375 161.96875 247.925781 C 154.160156 244.621094 147.144531 239.894531 141.125 233.871094 C 135.101562 227.847656 130.371094 220.835938 127.070312 213.023438 C 123.648438 204.941406 121.914062 196.351562 121.914062 187.496094 C 121.914062 178.644531 123.648438 170.054688 127.070312 161.96875 C 130.371094 154.160156 135.101562 147.148438 141.125 141.125 C 147.144531 135.101562 154.160156 130.375 161.96875 127.070312 C 170.054688 123.652344 178.644531 121.917969 187.496094 121.917969 C 196.347656 121.917969 204.9375 123.652344 213.023438 127.070312 C 220.832031 130.375 227.847656 135.101562 233.867188 141.125 C 239.890625 147.148438 244.617188 154.160156 247.921875 161.96875 C 251.34375 170.054688 253.078125 178.644531 253.078125 187.496094 C 253.078125 196.351562 251.34375 204.941406 247.921875 213.023438 C 244.617188 220.835938 239.890625 227.847656 233.867188 233.871094 C 227.847656 239.894531 220.832031 244.621094 213.023438 247.925781 C 204.9375 251.34375 196.347656 253.078125 187.496094 253.078125 " fill-opacity="1" fill-rule="nonzero"/><path fill="#ffffff" d="M 255.890625 152.015625 C 255.777344 152.015625 255.664062 152.007812 255.550781 151.984375 C 255.441406 151.960938 255.332031 151.929688 255.226562 151.882812 C 255.121094 151.84375 255.019531 151.789062 254.925781 151.726562 C 254.832031 151.664062 254.742188 151.589844 254.664062 151.511719 C 254.582031 151.429688 254.511719 151.339844 254.445312 151.246094 C 254.382812 151.152344 254.332031 151.050781 254.285156 150.945312 C 254.242188 150.839844 254.210938 150.730469 254.1875 150.621094 C 254.164062 150.507812 254.152344 150.394531 254.152344 150.28125 C 254.152344 149.824219 254.339844 149.375 254.664062 149.054688 C 254.742188 148.972656 254.832031 148.898438 254.925781 148.835938 C 255.019531 148.773438 255.121094 148.71875 255.226562 148.679688 C 255.332031 148.632812 255.441406 148.601562 255.550781 148.578125 C 255.777344 148.535156 256.003906 148.535156 256.230469 148.578125 C 256.339844 148.601562 256.449219 148.632812 256.554688 148.679688 C 256.660156 148.71875 256.761719 148.773438 256.855469 148.835938 C 256.949219 148.898438 257.039062 148.972656 257.117188 149.054688 C 257.441406 149.375 257.628906 149.824219 257.628906 150.28125 C 257.628906 150.394531 257.613281 150.507812 257.59375 150.621094 C 257.570312 150.730469 257.539062 150.839844 257.496094 150.945312 C 257.449219 151.050781 257.398438 151.152344 257.335938 151.246094 C 257.269531 151.339844 257.199219 151.429688 257.117188 151.511719 C 257.039062 151.589844 256.949219 151.664062 256.855469 151.726562 C 256.761719 151.789062 256.660156 151.84375 256.554688 151.882812 C 256.449219 151.929688 256.339844 151.960938 256.230469 151.984375 C 256.117188 152.007812 256.003906 152.015625 255.890625 152.015625 " fill-opacity="1" fill-rule="nonzero"/><path fill="#ffffff" d="M 262.859375 174.816406 C 262.691406 173.875 263.316406 172.972656 264.261719 172.800781 C 265.207031 172.632812 266.109375 173.257812 266.277344 174.203125 C 266.449219 175.148438 265.820312 176.050781 264.875 176.21875 C 264.773438 176.238281 264.667969 176.25 264.570312 176.25 C 263.742188 176.25 263.011719 175.660156 262.859375 174.816406 Z M 264.664062 201.96875 C 263.714844 201.824219 263.0625 200.9375 263.207031 199.992188 C 263.351562 199.042969 264.234375 198.386719 265.183594 198.53125 C 266.132812 198.675781 266.785156 199.558594 266.640625 200.507812 C 266.511719 201.371094 265.769531 201.988281 264.925781 201.988281 C 264.839844 201.988281 264.753906 201.980469 264.664062 201.96875 " fill-opacity="1" fill-rule="nonzero"/><path fill="#ffffff" d="M 256.921875 226.449219 C 256.808594 226.449219 256.695312 226.4375 256.582031 226.417969 C 256.472656 226.394531 256.363281 226.359375 256.257812 226.316406 C 256.15625 226.273438 256.054688 226.21875 255.960938 226.160156 C 255.863281 226.09375 255.777344 226.023438 255.695312 225.941406 C 255.371094 225.617188 255.1875 225.171875 255.1875 224.714844 C 255.1875 224.601562 255.199219 224.484375 255.222656 224.375 C 255.242188 224.261719 255.277344 224.152344 255.320312 224.050781 C 255.363281 223.945312 255.417969 223.84375 255.480469 223.75 C 255.542969 223.652344 255.613281 223.566406 255.695312 223.484375 C 255.777344 223.40625 255.863281 223.332031 255.960938 223.269531 C 256.054688 223.207031 256.15625 223.152344 256.257812 223.109375 C 256.363281 223.066406 256.472656 223.03125 256.582031 223.011719 C 256.808594 222.964844 257.039062 222.964844 257.261719 223.011719 C 257.375 223.03125 257.484375 223.066406 257.589844 223.109375 C 257.691406 223.152344 257.792969 223.207031 257.886719 223.269531 C 257.984375 223.332031 258.070312 223.40625 258.152344 223.484375 C 258.230469 223.566406 258.304688 223.652344 258.367188 223.75 C 258.429688 223.84375 258.484375 223.945312 258.527344 224.050781 C 258.570312 224.152344 258.605469 224.261719 258.625 224.375 C 258.648438 224.484375 258.660156 224.601562 258.660156 224.714844 C 258.660156 225.171875 258.472656 225.617188 258.152344 225.941406 C 258.070312 226.023438 257.984375 226.09375 257.886719 226.160156 C 257.792969 226.21875 257.691406 226.273438 257.589844 226.316406 C 257.484375 226.359375 257.375 226.394531 257.261719 226.417969 C 257.152344 226.4375 257.035156 226.449219 256.921875 226.449219 " fill-opacity="1" fill-rule="nonzero"/><path fill="#ffffff" d="M 118.066406 226.449219 C 117.953125 226.449219 117.839844 226.4375 117.726562 226.417969 C 117.617188 226.394531 117.507812 226.359375 117.402344 226.316406 C 117.296875 226.273438 117.195312 226.21875 117.101562 226.160156 C 117.007812 226.09375 116.917969 226.023438 116.839844 225.941406 C 116.515625 225.617188 116.328125 225.171875 116.328125 224.714844 C 116.328125 224.601562 116.339844 224.484375 116.363281 224.375 C 116.386719 224.261719 116.417969 224.152344 116.460938 224.050781 C 116.503906 223.945312 116.558594 223.84375 116.621094 223.75 C 116.683594 223.652344 116.757812 223.566406 116.839844 223.484375 C 116.917969 223.40625 117.007812 223.332031 117.101562 223.269531 C 117.195312 223.207031 117.296875 223.152344 117.402344 223.109375 C 117.507812 223.066406 117.617188 223.03125 117.726562 223.011719 C 117.953125 222.964844 118.179688 222.964844 118.40625 223.011719 C 118.515625 223.03125 118.625 223.066406 118.730469 223.109375 C 118.835938 223.152344 118.9375 223.207031 119.03125 223.269531 C 119.125 223.332031 119.214844 223.40625 119.292969 223.484375 C 119.375 223.566406 119.445312 223.652344 119.511719 223.75 C 119.574219 223.84375 119.625 223.945312 119.671875 224.050781 C 119.714844 224.152344 119.746094 224.261719 119.769531 224.375 C 119.789062 224.484375 119.804688 224.601562 119.804688 224.714844 C 119.804688 225.171875 119.617188 225.617188 119.292969 225.941406 C 119.214844 226.023438 119.125 226.09375 119.03125 226.160156 C 118.9375 226.21875 118.835938 226.273438 118.730469 226.316406 C 118.625 226.359375 118.515625 226.394531 118.40625 226.417969 C 118.292969 226.4375 118.179688 226.449219 118.066406 226.449219 " fill-opacity="1" fill-rule="nonzero"/><path fill="#ffffff" d="M 110.113281 176.222656 C 109.167969 176.050781 108.539062 175.148438 108.710938 174.207031 C 108.878906 173.261719 109.78125 172.632812 110.726562 172.804688 C 111.671875 172.972656 112.296875 173.875 112.128906 174.820312 C 111.976562 175.660156 111.246094 176.25 110.421875 176.25 C 110.320312 176.25 110.21875 176.242188 110.113281 176.222656 Z M 108.347656 200.511719 C 108.207031 199.5625 108.859375 198.675781 109.808594 198.53125 C 110.753906 198.390625 111.640625 199.042969 111.785156 199.992188 C 111.925781 200.941406 111.273438 201.824219 110.324219 201.96875 C 110.238281 201.980469 110.148438 201.988281 110.0625 201.988281 C 109.21875 201.988281 108.480469 201.371094 108.347656 200.511719 " fill-opacity="1" fill-rule="nonzero"/><path fill="#ffffff" d="M 119.097656 152.015625 C 118.640625 152.015625 118.195312 151.832031 117.871094 151.511719 C 117.792969 151.429688 117.71875 151.339844 117.65625 151.246094 C 117.59375 151.152344 117.539062 151.050781 117.496094 150.945312 C 117.453125 150.839844 117.417969 150.730469 117.394531 150.621094 C 117.375 150.507812 117.363281 150.394531 117.363281 150.28125 C 117.363281 150.167969 117.375 150.054688 117.394531 149.941406 C 117.417969 149.832031 117.453125 149.722656 117.496094 149.617188 C 117.539062 149.511719 117.59375 149.410156 117.65625 149.316406 C 117.71875 149.222656 117.792969 149.132812 117.871094 149.054688 C 117.953125 148.972656 118.039062 148.898438 118.136719 148.835938 C 118.230469 148.773438 118.328125 148.71875 118.433594 148.679688 C 118.542969 148.632812 118.648438 148.601562 118.757812 148.578125 C 118.984375 148.535156 119.214844 148.535156 119.4375 148.578125 C 119.550781 148.601562 119.65625 148.632812 119.765625 148.679688 C 119.867188 148.71875 119.96875 148.773438 120.0625 148.835938 C 120.15625 148.898438 120.246094 148.972656 120.328125 149.054688 C 120.648438 149.375 120.835938 149.824219 120.835938 150.28125 C 120.835938 150.394531 120.824219 150.507812 120.804688 150.621094 C 120.78125 150.730469 120.746094 150.839844 120.703125 150.945312 C 120.660156 151.050781 120.605469 151.152344 120.542969 151.246094 C 120.480469 151.339844 120.40625 151.429688 120.328125 151.511719 C 120.246094 151.589844 120.15625 151.664062 120.0625 151.726562 C 119.96875 151.789062 119.867188 151.84375 119.765625 151.882812 C 119.65625 151.929688 119.550781 151.960938 119.4375 151.984375 C 119.324219 152.007812 119.214844 152.015625 119.097656 152.015625 " fill-opacity="1" fill-rule="nonzero"/><path fill="#ffffff" d="M 165.414062 186.667969 C 165.414062 188.667969 166.753906 190.292969 168.40625 190.292969 C 170.058594 190.292969 171.398438 188.667969 171.398438 186.667969 C 171.398438 184.664062 170.058594 183.042969 168.40625 183.042969 C 166.753906 183.042969 165.414062 184.664062 165.414062 186.667969 " fill-opacity="1" fill-rule="nonzero"/><path fill="#ffffff" d="M 209.578125 186.667969 C 209.578125 184.664062 208.238281 183.042969 206.585938 183.042969 C 204.933594 183.042969 203.59375 184.664062 203.59375 186.667969 C 203.59375 188.667969 204.933594 190.292969 206.585938 190.292969 C 208.238281 190.292969 209.578125 188.667969 209.578125 186.667969 " fill-opacity="1" fill-rule="nonzero"/><path fill="#ffffff" d="M 187.496094 195.4375 C 186.898438 195.4375 186.414062 195.921875 186.414062 196.519531 L 186.414062 198.980469 C 186.414062 199.578125 186.898438 200.066406 187.496094 200.066406 C 188.09375 200.066406 188.578125 199.578125 188.578125 198.980469 L 188.578125 196.519531 C 188.578125 195.921875 188.09375 195.4375 187.496094 195.4375 " fill-opacity="1" fill-rule="nonzero"/><path fill="#ffffff" d="M 174.890625 210.53125 C 174.695312 209.96875 174.074219 209.671875 173.511719 209.871094 C 172.949219 210.066406 172.652344 210.683594 172.851562 211.25 C 174.300781 215.382812 180.324219 218.269531 187.496094 218.269531 C 194.667969 218.269531 200.691406 215.382812 202.140625 211.25 C 202.339844 210.683594 202.042969 210.066406 201.476562 209.871094 C 200.914062 209.671875 200.296875 209.96875 200.097656 210.53125 C 198.984375 213.710938 193.566406 216.105469 187.496094 216.105469 C 181.425781 216.105469 176.007812 213.710938 174.890625 210.53125 " fill-opacity="1" fill-rule="nonzero"/><path fill="#ffffff" d="M 233.851562 194.59375 C 233.480469 197.40625 232.089844 199.628906 230.308594 200.253906 C 229.609375 200.496094 228.917969 200.476562 228.253906 200.199219 C 227.8125 200.015625 227.566406 199.539062 227.652344 199.070312 C 228.082031 196.710938 228.308594 194.28125 228.308594 191.800781 C 228.308594 189.089844 228.039062 186.410156 227.515625 183.796875 C 227.429688 183.359375 227.628906 182.917969 228.015625 182.695312 C 228.707031 182.292969 229.582031 181.949219 230.4375 182.066406 C 231.25 182.179688 231.957031 182.695312 232.597656 183.648438 C 233.949219 185.652344 234.453125 190.054688 233.851562 194.59375 Z M 147.328125 199.074219 C 147.410156 199.546875 147.164062 200.023438 146.722656 200.207031 C 146.0625 200.476562 145.375 200.496094 144.683594 200.253906 C 142.902344 199.628906 141.511719 197.40625 141.136719 194.59375 C 140.535156 190.054688 141.039062 185.652344 142.394531 183.648438 C 143.035156 182.695312 143.742188 182.179688 144.554688 182.066406 C 145.40625 181.949219 146.28125 182.292969 146.976562 182.695312 C 147.359375 182.917969 147.558594 183.359375 147.472656 183.796875 C 146.953125 186.410156 146.683594 189.089844 146.683594 191.800781 C 146.683594 194.265625 146.898438 196.699219 147.328125 199.074219 Z M 234.394531 182.4375 C 233.402344 180.964844 232.167969 180.117188 230.730469 179.921875 C 229.703125 179.78125 228.726562 179.996094 227.867188 180.355469 C 227.304688 180.589844 226.65625 180.289062 226.476562 179.707031 C 224.707031 174.011719 221.691406 168.730469 217.574219 164.25 C 210.695312 156.761719 201.347656 152.132812 191.253906 151.210938 C 190.660156 151.15625 190.132812 151.59375 190.078125 152.191406 C 190.023438 152.785156 190.460938 153.3125 191.058594 153.367188 C 200.613281 154.238281 209.464844 158.625 215.980469 165.714844 C 222.535156 172.847656 226.144531 182.113281 226.144531 191.800781 C 226.144531 213.039062 208.765625 230.355469 187.410156 230.398438 C 177.105469 230.375 167.417969 226.351562 160.136719 219.066406 C 154.839844 213.761719 151.277344 207.191406 149.726562 200.039062 C 149.71875 199.988281 149.710938 199.941406 149.695312 199.890625 C 149.136719 197.261719 148.847656 194.554688 148.847656 191.800781 C 148.847656 182.113281 152.457031 172.847656 159.011719 165.714844 C 165.519531 158.632812 174.359375 154.25 183.902344 153.371094 C 183.945312 153.363281 183.988281 153.359375 184.03125 153.355469 C 190.160156 152.410156 190.160156 148.101562 190.15625 144.300781 L 190.15625 144.066406 C 190.15625 143.808594 190.160156 143.542969 190.164062 143.277344 C 190.1875 140.933594 190.21875 138.019531 188.269531 136.253906 C 187.015625 135.117188 185.421875 134.6875 183.785156 135.054688 C 181.757812 135.503906 179.898438 137.097656 179.050781 139.117188 C 178.480469 140.480469 178.578125 142.0625 179.3125 143.355469 C 179.96875 144.507812 181.210938 145.195312 182.539062 145.160156 C 183.515625 145.132812 184.382812 144.707031 184.992188 144.085938 C 185.550781 143.519531 185.304688 142.566406 184.539062 142.347656 C 184.523438 142.347656 183.929688 142.097656 183.414062 142.613281 C 183.222656 142.804688 182.925781 142.980469 182.472656 142.996094 C 181.9375 143.007812 181.457031 142.746094 181.195312 142.285156 C 180.789062 141.570312 180.734375 140.703125 181.046875 139.957031 C 181.613281 138.609375 182.933594 137.460938 184.253906 137.167969 C 185.210938 136.953125 186.074219 137.1875 186.816406 137.859375 C 188.042969 138.96875 188.019531 141.148438 187.996094 143.253906 C 187.996094 143.53125 187.992188 143.800781 187.992188 144.066406 L 187.992188 144.300781 C 187.996094 148.507812 187.8125 150.570312 183.738281 151.207031 C 183.714844 151.210938 183.691406 151.214844 183.671875 151.214844 C 173.601562 152.152344 164.28125 156.777344 157.417969 164.25 C 153.296875 168.730469 150.285156 174.011719 148.515625 179.707031 C 148.332031 180.289062 147.6875 180.585938 147.121094 180.351562 C 146.265625 179.996094 145.285156 179.78125 144.261719 179.921875 C 142.820312 180.117188 141.589844 180.964844 140.597656 182.4375 C 138.589844 185.417969 138.476562 191 138.992188 194.878906 C 139.476562 198.546875 141.382812 201.390625 143.964844 202.296875 C 144.523438 202.492188 145.085938 202.585938 145.644531 202.585938 C 146.101562 202.585938 146.550781 202.523438 146.996094 202.394531 C 147.542969 202.238281 148.113281 202.570312 148.269531 203.121094 C 150.152344 209.65625 153.664062 215.652344 158.605469 220.597656 C 166.296875 228.289062 176.523438 232.539062 187.410156 232.5625 C 206.023438 232.523438 221.773438 220.0625 226.703125 203.097656 C 226.863281 202.554688 227.433594 202.234375 227.976562 202.390625 C 228.425781 202.519531 228.882812 202.585938 229.347656 202.585938 C 229.90625 202.585938 230.46875 202.492188 231.023438 202.296875 C 233.605469 201.390625 235.511719 198.546875 236 194.878906 C 236.515625 191 236.402344 185.417969 234.394531 182.4375 " fill-opacity="1" fill-rule="nonzero"/><path fill="#ffffff" d="M 149.089844 249.617188 C 145.8125 247.554688 142.664062 249.304688 140.996094 251.957031 C 138.992188 255.140625 139.535156 258.351562 142.378906 260.144531 C 143.339844 260.75 144.320312 261.050781 145.261719 261.050781 C 146.441406 261.050781 147.566406 260.582031 148.539062 259.65625 C 148.585938 259.609375 148.609375 259.542969 148.601562 259.476562 C 148.597656 259.410156 148.558594 259.351562 148.503906 259.316406 L 147.023438 258.382812 C 146.949219 258.335938 146.847656 258.339844 146.777344 258.394531 C 146.058594 258.9375 144.929688 259.550781 143.429688 258.609375 C 141.339844 257.289062 141.800781 254.902344 142.929688 253.105469 C 144.054688 251.316406 145.992188 249.863281 148.042969 251.15625 C 149.28125 251.9375 149.691406 252.949219 149.332031 254.34375 C 149.3125 254.433594 149.347656 254.53125 149.429688 254.582031 L 150.902344 255.507812 C 150.957031 255.542969 151.023438 255.550781 151.082031 255.53125 C 151.144531 255.511719 151.191406 255.464844 151.21875 255.40625 C 152.132812 253.195312 151.335938 251.03125 149.089844 249.617188 " fill-opacity="1" fill-rule="nonzero"/><path fill="#ffffff" d="M 164.640625 257.253906 L 163.027344 256.601562 C 162.972656 256.582031 162.914062 256.582031 162.863281 256.605469 C 162.808594 256.628906 162.765625 256.667969 162.746094 256.722656 L 161.011719 261.003906 L 155.992188 258.976562 L 157.722656 254.691406 C 157.769531 254.582031 157.714844 254.453125 157.605469 254.410156 L 155.988281 253.757812 C 155.9375 253.734375 155.878906 253.734375 155.824219 253.757812 C 155.769531 253.78125 155.730469 253.824219 155.707031 253.875 L 151.308594 264.75 C 151.265625 264.863281 151.320312 264.988281 151.429688 265.035156 L 153.042969 265.6875 C 153.097656 265.707031 153.15625 265.707031 153.207031 265.683594 C 153.261719 265.664062 153.304688 265.621094 153.324219 265.566406 L 155.277344 260.742188 L 160.296875 262.773438 L 158.347656 267.597656 C 158.328125 267.652344 158.328125 267.710938 158.347656 267.761719 C 158.371094 267.816406 158.414062 267.859375 158.46875 267.878906 L 160.082031 268.53125 C 160.109375 268.542969 160.132812 268.546875 160.164062 268.546875 C 160.246094 268.546875 160.328125 268.496094 160.363281 268.414062 L 164.761719 257.535156 C 164.78125 257.484375 164.78125 257.425781 164.757812 257.371094 C 164.738281 257.320312 164.695312 257.277344 164.640625 257.253906 " fill-opacity="1" fill-rule="nonzero"/><path fill="#ffffff" d="M 170.390625 258.765625 L 168.707031 258.332031 C 168.589844 258.300781 168.472656 258.371094 168.441406 258.488281 L 165.515625 269.84375 C 165.5 269.902344 165.507812 269.960938 165.535156 270.007812 C 165.566406 270.058594 165.613281 270.09375 165.667969 270.109375 L 167.355469 270.542969 C 167.375 270.546875 167.390625 270.550781 167.410156 270.550781 C 167.507812 270.550781 167.59375 270.484375 167.621094 270.386719 L 170.546875 259.027344 C 170.5625 258.972656 170.554688 258.914062 170.523438 258.863281 C 170.496094 258.816406 170.449219 258.777344 170.390625 258.765625 " fill-opacity="1" fill-rule="nonzero"/><path fill="#ffffff" d="M 180.746094 270.964844 L 174.953125 270.148438 L 176.355469 260.207031 C 176.363281 260.148438 176.347656 260.089844 176.3125 260.046875 C 176.28125 260 176.230469 259.96875 176.171875 259.960938 L 174.449219 259.71875 C 174.328125 259.699219 174.21875 259.785156 174.203125 259.902344 L 172.566406 271.519531 C 172.554688 271.574219 172.570312 271.632812 172.605469 271.679688 C 172.640625 271.722656 172.691406 271.753906 172.75 271.761719 L 180.25 272.820312 C 180.261719 272.820312 180.273438 272.824219 180.28125 272.824219 C 180.375 272.824219 180.460938 272.761719 180.488281 272.667969 L 180.921875 271.242188 C 180.941406 271.179688 180.933594 271.117188 180.898438 271.0625 C 180.863281 271.007812 180.808594 270.972656 180.746094 270.964844 " fill-opacity="1" fill-rule="nonzero"/><path fill="#ffffff" d="M 187.183594 271.210938 L 187.023438 262.832031 L 189.171875 262.792969 C 189.203125 262.792969 189.234375 262.789062 189.265625 262.789062 C 191.917969 262.789062 192.902344 264.859375 192.941406 266.816406 C 192.992188 269.539062 191.671875 271.128906 189.320312 271.171875 Z M 189.308594 260.898438 L 185.03125 260.976562 C 184.976562 260.976562 184.921875 261.003906 184.878906 261.042969 C 184.839844 261.085938 184.820312 261.140625 184.820312 261.199219 L 185.039062 272.925781 C 185.039062 273.042969 185.136719 273.140625 185.253906 273.140625 C 185.257812 273.140625 185.257812 273.140625 185.257812 273.140625 L 189.476562 273.058594 C 191.203125 273.027344 192.664062 272.390625 193.699219 271.214844 C 194.691406 270.085938 195.222656 268.5 195.1875 266.746094 C 195.15625 264.980469 194.578125 263.496094 193.515625 262.445312 C 192.460938 261.398438 191 260.867188 189.308594 260.898438 " fill-opacity="1" fill-rule="nonzero"/><path fill="#ffffff" d="M 203.507812 264.667969 L 201.292969 265.09375 L 200.667969 261.816406 L 203.03125 261.363281 C 204.390625 261.105469 205.1875 261.519531 205.390625 262.59375 C 205.539062 263.363281 205.457031 264.296875 203.507812 264.667969 Z M 208.5625 268.507812 L 208.410156 267.714844 C 208.125 266.214844 207.5 265.332031 206.515625 265.03125 C 207.398438 264.351562 207.777344 263.261719 207.542969 262.023438 C 207.355469 261.054688 206.847656 260.296875 206.074219 259.835938 C 205.273438 259.359375 204.21875 259.226562 203.023438 259.457031 L 198.414062 260.339844 C 198.296875 260.359375 198.21875 260.472656 198.242188 260.59375 L 200.445312 272.113281 C 200.457031 272.171875 200.488281 272.21875 200.535156 272.253906 C 200.574219 272.277344 200.613281 272.289062 200.660156 272.289062 C 200.671875 272.289062 200.683594 272.289062 200.699219 272.285156 L 202.386719 271.960938 C 202.503906 271.941406 202.582031 271.828125 202.558594 271.710938 L 201.648438 266.933594 L 203.652344 266.550781 C 205.578125 266.183594 206.023438 266.75 206.296875 268.167969 L 206.351562 268.46875 C 206.566406 269.578125 206.734375 270.449219 207.054688 270.933594 C 207.101562 271.007812 207.1875 271.042969 207.273438 271.027344 L 208.925781 270.710938 C 208.996094 270.699219 209.054688 270.652344 209.082031 270.585938 C 209.113281 270.519531 209.105469 270.449219 209.070312 270.386719 C 208.84375 270.015625 208.691406 269.214844 208.5625 268.507812 " fill-opacity="1" fill-rule="nonzero"/><path fill="#ffffff" d="M 221.628906 264.707031 C 221.617188 264.644531 221.578125 264.59375 221.523438 264.5625 C 221.46875 264.53125 221.402344 264.527344 221.34375 264.546875 L 215.5625 266.644531 L 214.371094 263.359375 L 219.613281 261.457031 C 219.664062 261.4375 219.710938 261.398438 219.734375 261.34375 C 219.757812 261.292969 219.761719 261.234375 219.742188 261.179688 L 219.238281 259.792969 C 219.21875 259.742188 219.179688 259.695312 219.125 259.671875 C 219.074219 259.648438 219.015625 259.644531 218.960938 259.664062 L 213.71875 261.566406 L 212.714844 258.796875 L 218.210938 256.800781 C 218.324219 256.761719 218.382812 256.636719 218.34375 256.523438 L 217.839844 255.140625 C 217.820312 255.085938 217.777344 255.039062 217.726562 255.015625 C 217.675781 254.992188 217.617188 254.988281 217.5625 255.007812 L 210.261719 257.660156 C 210.207031 257.679688 210.160156 257.71875 210.136719 257.773438 C 210.113281 257.824219 210.109375 257.882812 210.128906 257.9375 L 214.132812 268.964844 C 214.164062 269.050781 214.25 269.105469 214.335938 269.105469 C 214.363281 269.105469 214.386719 269.101562 214.410156 269.09375 L 221.789062 266.414062 C 221.890625 266.378906 221.949219 266.273438 221.925781 266.167969 L 221.628906 264.707031 " fill-opacity="1" fill-rule="nonzero"/><path fill="#ffffff" d="M 235.164062 259.128906 L 229.363281 248.933594 C 229.335938 248.882812 229.289062 248.84375 229.234375 248.832031 C 229.175781 248.816406 229.117188 248.820312 229.070312 248.851562 L 227.652344 249.65625 C 227.550781 249.714844 227.515625 249.847656 227.574219 249.953125 L 229.929688 254.089844 C 230.632812 255.328125 231.304688 256.507812 231.929688 257.507812 C 230.507812 256.664062 227.816406 255.171875 225.566406 253.921875 C 224.574219 253.371094 223.652344 252.863281 222.933594 252.460938 C 222.871094 252.421875 222.789062 252.421875 222.722656 252.460938 L 220.753906 253.582031 C 220.703125 253.609375 220.667969 253.65625 220.652344 253.710938 C 220.636719 253.765625 220.644531 253.828125 220.671875 253.875 L 226.472656 264.070312 C 226.503906 264.121094 226.550781 264.160156 226.605469 264.175781 C 226.625 264.179688 226.644531 264.183594 226.664062 264.183594 C 226.699219 264.183594 226.738281 264.171875 226.769531 264.152344 L 228.191406 263.34375 C 228.292969 263.285156 228.332031 263.152344 228.273438 263.050781 L 226.054688 259.152344 C 225.207031 257.660156 224.390625 256.238281 223.738281 255.179688 C 225.914062 256.46875 231.136719 259.417969 233.015625 260.476562 C 233.082031 260.515625 233.164062 260.515625 233.230469 260.476562 L 235.082031 259.421875 C 235.1875 259.363281 235.222656 259.234375 235.164062 259.128906 " fill-opacity="1" fill-rule="nonzero"/><path fill="#ffffff" d="M 147.078125 117.984375 C 144.96875 118.628906 144.457031 118.441406 144.050781 117.75 C 143.410156 116.664062 144.34375 115.894531 144.953125 115.535156 C 146.089844 114.863281 146.976562 114.953125 147.738281 115.808594 C 147.808594 115.886719 147.921875 115.90625 148.011719 115.851562 L 149.535156 114.953125 C 149.585938 114.921875 149.625 114.871094 149.636719 114.8125 C 149.648438 114.75 149.632812 114.6875 149.597656 114.640625 C 149.054688 113.898438 148.28125 113.394531 147.425781 113.21875 C 146.390625 113.007812 145.269531 113.253906 144.085938 113.949219 C 141.890625 115.242188 141.15625 117.238281 142.214844 119.035156 C 143.140625 120.605469 144.640625 120.90625 147.394531 120.066406 C 149.636719 119.382812 150.292969 119.675781 150.777344 120.496094 C 151.320312 121.421875 150.949219 122.300781 149.699219 123.039062 C 148.398438 123.804688 147.328125 123.707031 146.425781 122.75 C 146.355469 122.675781 146.246094 122.660156 146.15625 122.710938 L 144.636719 123.609375 C 144.582031 123.640625 144.546875 123.695312 144.53125 123.757812 C 144.519531 123.816406 144.535156 123.882812 144.574219 123.929688 C 145.035156 124.515625 146.066406 125.527344 147.703125 125.527344 C 148.496094 125.527344 149.433594 125.289062 150.511719 124.652344 C 152.941406 123.21875 153.742188 121.128906 152.605469 119.199219 C 151.851562 117.921875 150.664062 116.894531 147.078125 117.984375 " fill-opacity="1" fill-rule="nonzero"/><path fill="#ffffff" d="M 157.765625 110.226562 C 158.292969 110.875 159.085938 111.785156 160.21875 113.09375 L 160.929688 113.914062 L 158.003906 115.050781 L 157.980469 114.53125 C 157.902344 112.738281 157.835938 111.242188 157.765625 110.226562 Z M 158.21875 107.726562 C 158.15625 107.660156 158.0625 107.636719 157.976562 107.667969 L 155.964844 108.449219 C 155.882812 108.480469 155.824219 108.566406 155.828125 108.65625 L 156.207031 121.089844 C 156.207031 121.160156 156.246094 121.226562 156.304688 121.265625 C 156.339844 121.289062 156.378906 121.300781 156.421875 121.300781 C 156.449219 121.300781 156.476562 121.296875 156.5 121.285156 L 158.113281 120.664062 C 158.199219 120.628906 158.253906 120.546875 158.25 120.453125 L 158.152344 117.035156 L 162.164062 115.480469 L 164.4375 118.058594 C 164.496094 118.128906 164.589844 118.152344 164.675781 118.117188 L 166.398438 117.449219 C 166.464844 117.425781 166.515625 117.367188 166.53125 117.300781 C 166.546875 117.230469 166.53125 117.15625 166.484375 117.105469 L 158.21875 107.726562 " fill-opacity="1" fill-rule="nonzero"/><path fill="#ffffff" d="M 174.875 108.382812 C 174.863281 108.328125 174.832031 108.277344 174.78125 108.246094 C 174.734375 108.214844 174.675781 108.207031 174.617188 108.21875 L 169.378906 109.355469 L 168.703125 106.230469 L 174.304688 105.015625 C 174.421875 104.988281 174.496094 104.875 174.46875 104.757812 L 174.15625 103.316406 C 174.144531 103.261719 174.109375 103.210938 174.0625 103.179688 C 174.015625 103.148438 173.957031 103.140625 173.898438 103.152344 L 166.414062 104.777344 C 166.296875 104.804688 166.222656 104.917969 166.25 105.035156 L 168.738281 116.5 C 168.761719 116.601562 168.851562 116.667969 168.953125 116.667969 C 168.964844 116.667969 168.980469 116.667969 168.996094 116.664062 L 170.667969 116.300781 C 170.726562 116.289062 170.773438 116.253906 170.804688 116.207031 C 170.835938 116.160156 170.847656 116.101562 170.832031 116.042969 L 169.785156 111.21875 L 175.023438 110.082031 C 175.082031 110.070312 175.128906 110.035156 175.160156 109.988281 C 175.191406 109.9375 175.203125 109.878906 175.191406 109.824219 L 174.875 108.382812 " fill-opacity="1" fill-rule="nonzero"/><path fill="#ffffff" d="M 187.570312 112.242188 L 181.433594 112.648438 L 181.203125 109.160156 L 186.769531 108.792969 C 186.886719 108.785156 186.976562 108.683594 186.96875 108.5625 L 186.871094 107.089844 C 186.867188 107.035156 186.84375 106.980469 186.800781 106.941406 C 186.757812 106.90625 186.703125 106.886719 186.640625 106.890625 L 181.078125 107.253906 L 180.886719 104.316406 L 186.722656 103.933594 C 186.839844 103.921875 186.933594 103.820312 186.921875 103.703125 L 186.828125 102.230469 C 186.824219 102.171875 186.796875 102.121094 186.753906 102.082031 C 186.710938 102.042969 186.65625 102.023438 186.597656 102.027344 L 178.847656 102.539062 C 178.726562 102.546875 178.636719 102.648438 178.644531 102.769531 L 179.414062 114.472656 C 179.421875 114.589844 179.515625 114.675781 179.628906 114.675781 C 179.636719 114.675781 179.640625 114.675781 179.644531 114.675781 L 187.476562 114.160156 C 187.582031 114.152344 187.667969 114.070312 187.679688 113.960938 L 187.800781 112.476562 C 187.804688 112.414062 187.78125 112.351562 187.738281 112.308594 C 187.695312 112.261719 187.632812 112.242188 187.570312 112.242188 " fill-opacity="1" fill-rule="nonzero"/><path fill="#ffffff" d="M 205.515625 103.707031 L 197.945312 102.5625 C 197.824219 102.542969 197.714844 102.625 197.699219 102.742188 L 195.945312 114.34375 C 195.9375 114.398438 195.953125 114.457031 195.984375 114.503906 C 196.019531 114.550781 196.070312 114.582031 196.128906 114.589844 L 197.820312 114.84375 C 197.828125 114.847656 197.839844 114.847656 197.851562 114.847656 C 197.957031 114.847656 198.046875 114.769531 198.066406 114.664062 L 198.800781 109.78125 L 204.101562 110.582031 C 204.222656 110.597656 204.332031 110.519531 204.347656 110.398438 L 204.570312 108.941406 C 204.578125 108.886719 204.5625 108.828125 204.527344 108.78125 C 204.496094 108.734375 204.445312 108.703125 204.386719 108.695312 L 199.085938 107.894531 L 199.566406 104.734375 L 205.234375 105.589844 C 205.351562 105.609375 205.460938 105.527344 205.480469 105.410156 L 205.699219 103.953125 C 205.707031 103.894531 205.695312 103.835938 205.660156 103.789062 C 205.625 103.742188 205.574219 103.714844 205.515625 103.707031 " fill-opacity="1" fill-rule="nonzero"/><path fill="#ffffff" d="M 216.691406 113.304688 C 215.449219 117.066406 213.023438 116.714844 212.039062 116.390625 C 211.019531 116.050781 210.3125 115.347656 209.996094 114.355469 C 209.699219 113.433594 209.75 112.285156 210.132812 111.121094 C 210.816406 109.054688 212.078125 107.929688 213.621094 107.929688 C 213.988281 107.929688 214.375 107.992188 214.769531 108.125 C 215.828125 108.472656 216.523438 109.148438 216.84375 110.128906 C 217.136719 111.027344 217.082031 112.125 216.691406 113.304688 Z M 215.433594 106.34375 C 212.152344 105.257812 209.15625 106.914062 207.980469 110.460938 C 206.808594 114.011719 208.171875 117.109375 211.375 118.167969 C 212.070312 118.398438 212.726562 118.503906 213.34375 118.503906 C 216.089844 118.503906 218.03125 116.421875 218.835938 113.988281 C 219.398438 112.285156 219.386719 110.660156 218.796875 109.292969 C 218.191406 107.890625 217.027344 106.871094 215.433594 106.34375 " fill-opacity="1" fill-rule="nonzero"/><path fill="#ffffff" d="M 228.613281 114.320312 C 229.230469 114.652344 229.628906 115.039062 229.800781 115.460938 C 229.960938 115.859375 229.917969 116.296875 229.664062 116.761719 C 229.390625 117.269531 229.054688 117.550781 228.628906 117.625 C 228.171875 117.707031 227.589844 117.558594 226.894531 117.183594 L 224.910156 116.109375 L 226.492188 113.175781 Z M 231.9375 115.058594 C 231.617188 114.183594 230.882812 113.414062 229.808594 112.835938 L 225.679688 110.605469 C 225.628906 110.578125 225.570312 110.574219 225.515625 110.589844 C 225.460938 110.605469 225.414062 110.644531 225.386719 110.695312 L 219.8125 121.015625 C 219.757812 121.121094 219.796875 121.253906 219.902344 121.308594 L 221.414062 122.128906 C 221.464844 122.15625 221.523438 122.160156 221.578125 122.144531 C 221.632812 122.128906 221.679688 122.089844 221.707031 122.039062 L 224.015625 117.761719 L 225.816406 118.734375 C 226.652344 119.183594 227.105469 119.605469 227.234375 120.050781 C 227.347656 120.453125 227.234375 120.933594 226.84375 121.65625 L 226.695312 121.925781 C 226.160156 122.917969 225.738281 123.703125 225.679688 124.277344 C 225.671875 124.367188 225.714844 124.449219 225.792969 124.492188 L 227.269531 125.289062 C 227.304688 125.308594 227.339844 125.316406 227.375 125.316406 C 227.410156 125.316406 227.441406 125.308594 227.472656 125.292969 C 227.535156 125.261719 227.578125 125.199219 227.589844 125.128906 C 227.648438 124.699219 228.039062 123.980469 228.382812 123.351562 L 228.765625 122.640625 C 229.492188 121.296875 229.566406 120.21875 228.992188 119.363281 C 230.109375 119.398438 231.089844 118.792969 231.691406 117.683594 C 232.160156 116.8125 232.246094 115.90625 231.9375 115.058594 " fill-opacity="1" fill-rule="nonzero"/></svg>