<svg xmlns="http://www.w3.org/2000/svg" xmlns:xlink="http://www.w3.org/1999/xlink" width="500" zoomAndPan="magnify" viewBox="0 0 375 374.999991" height="500" preserveAspectRatio="xMidYMid meet" version="1.0"><defs><clipPath id="243f4a3bd3"><path d="M 58.5 58.5 L 316.5 58.5 L 316.5 316.5 L 58.5 316.5 Z M 58.5 58.5 " clip-rule="nonzero"/></clipPath><clipPath id="3ddc840f64"><path d="M 187.5 316.5 C 153.058594 316.5 120.628906 303.09375 96.292969 278.707031 C 71.90625 254.371094 58.5 221.941406 58.5 187.5 C 58.5 153.058594 71.90625 120.628906 96.292969 96.292969 C 120.628906 71.90625 153.058594 58.5 187.5 58.5 C 221.941406 58.5 254.371094 71.90625 278.707031 96.292969 C 303.09375 120.679688 316.5 153.058594 316.5 187.5 C 316.5 221.941406 303.09375 254.371094 278.707031 278.707031 C 254.371094 303.09375 221.941406 316.5 187.5 316.5 Z M 187.5 66.234375 C 155.121094 66.234375 124.648438 78.867188 101.757812 101.757812 C 78.867188 124.648438 66.234375 155.121094 66.234375 187.5 C 66.234375 219.878906 78.867188 250.351562 101.757812 273.242188 C 124.648438 296.132812 155.121094 308.765625 187.5 308.765625 C 219.878906 308.765625 250.351562 296.132812 273.242188 273.242188 C 296.132812 250.351562 308.765625 219.878906 308.765625 187.5 C 308.765625 155.121094 296.132812 124.648438 273.242188 101.757812 C 250.351562 78.867188 219.878906 66.234375 187.5 66.234375 Z M 187.5 66.234375 " clip-rule="nonzero"/></clipPath><clipPath id="0d10992709"><path d="M 80.125 145.417969 L 294.625 145.417969 L 294.625 236.917969 L 80.125 236.917969 Z M 80.125 145.417969 " clip-rule="nonzero"/></clipPath><clipPath id="81b0b9e22b"><path d="M 120.550781 127 L 254.800781 127 L 254.800781 287.558594 L 120.550781 287.558594 Z M 120.550781 127 " clip-rule="nonzero"/></clipPath></defs><g clip-path="url(#243f4a3bd3)"><g clip-path="url(#3ddc840f64)"><path fill="#29452c" d="M 58.5 58.5 L 316.5 58.5 L 316.5 316.5 L 58.5 316.5 Z M 58.5 58.5 " fill-opacity="1" fill-rule="nonzero"/></g></g><g clip-path="url(#0d10992709)"><path fill="#112241" d="M 288.226562 216.128906 C 285.503906 225.394531 281.347656 234.191406 276.191406 242.289062 C 271.933594 248.878906 267.089844 255.074219 261.648438 260.707031 C 260.945312 261.476562 260.160156 262.167969 259.410156 262.894531 C 258.652344 263.605469 257.914062 264.34375 257.136719 265.039062 L 254.777344 267.089844 L 253.601562 268.117188 L 252.375 269.089844 L 249.933594 271.042969 C 249.105469 271.675781 248.25 272.273438 247.414062 272.890625 C 245.757812 274.160156 243.996094 275.277344 242.269531 276.449219 C 242.019531 276.617188 241.757812 276.792969 241.484375 276.976562 C 241.203125 277.144531 240.914062 277.320312 240.605469 277.503906 C 240 277.867188 239.34375 278.257812 238.644531 278.675781 C 237.265625 279.542969 235.636719 280.355469 233.875 281.292969 C 233.433594 281.523438 232.988281 281.769531 232.519531 281.996094 C 232.046875 282.214844 231.570312 282.4375 231.078125 282.664062 C 230.101562 283.117188 229.085938 283.585938 228.039062 284.070312 C 225.894531 284.90625 223.65625 285.914062 221.21875 286.695312 C 211.585938 290.1875 199.5625 292.347656 187.5 292.398438 C 175.433594 292.347656 163.414062 290.1875 153.78125 286.695312 C 151.339844 285.914062 149.101562 284.90625 146.957031 284.070312 C 145.910156 283.585938 144.898438 283.117188 143.917969 282.664062 C 143.429688 282.4375 142.949219 282.214844 142.476562 281.996094 C 142.007812 281.773438 141.566406 281.523438 141.121094 281.292969 C 139.363281 280.359375 137.730469 279.542969 136.351562 278.675781 C 135.652344 278.257812 135 277.867188 134.390625 277.503906 C 134.085938 277.320312 133.792969 277.144531 133.511719 276.976562 C 133.238281 276.792969 132.976562 276.617188 132.730469 276.449219 C 126.175781 272.15625 120.019531 267.277344 114.421875 261.796875 C 108.519531 255.898438 103.355469 249.292969 98.808594 242.289062 C 93.648438 234.191406 89.492188 225.394531 86.769531 216.128906 C 83.933594 206.890625 82.621094 197.195312 82.539062 187.5 C 82.621094 177.800781 83.933594 168.105469 86.769531 158.867188 C 89.492188 149.601562 93.648438 140.808594 98.804688 132.707031 C 103.0625 126.117188 107.90625 119.921875 113.347656 114.289062 C 114.050781 113.519531 114.835938 112.828125 115.585938 112.101562 C 116.34375 111.390625 117.082031 110.652344 117.859375 109.957031 L 120.21875 107.90625 L 121.398438 106.878906 L 122.621094 105.90625 L 125.0625 103.953125 C 125.890625 103.320312 126.746094 102.722656 127.582031 102.105469 C 129.238281 100.835938 131.003906 99.71875 132.726562 98.546875 C 132.976562 98.378906 133.238281 98.203125 133.511719 98.019531 C 133.792969 97.851562 134.085938 97.675781 134.390625 97.492188 C 134.996094 97.128906 135.652344 96.738281 136.351562 96.320312 C 137.730469 95.453125 139.359375 94.640625 141.121094 93.703125 C 141.566406 93.476562 142.007812 93.226562 142.476562 93 C 142.949219 92.78125 143.429688 92.558594 143.917969 92.332031 C 144.894531 91.878906 145.910156 91.410156 146.957031 90.925781 C 149.101562 90.089844 151.339844 89.082031 153.777344 88.300781 C 163.414062 84.808594 175.433594 82.648438 187.5 82.597656 C 199.5625 82.648438 211.585938 84.808594 221.214844 88.300781 C 223.65625 89.082031 225.894531 90.089844 228.039062 90.925781 C 229.085938 91.410156 230.097656 91.878906 231.078125 92.332031 C 231.566406 92.558594 232.046875 92.78125 232.519531 93 C 232.988281 93.222656 233.429688 93.476562 233.875 93.703125 C 235.632812 94.636719 237.265625 95.453125 238.644531 96.320312 C 239.34375 96.738281 239.996094 97.128906 240.605469 97.492188 C 240.910156 97.675781 241.203125 97.851562 241.484375 98.019531 C 241.757812 98.203125 242.019531 98.378906 242.265625 98.546875 C 248.820312 102.839844 254.976562 107.71875 260.574219 113.199219 C 266.476562 119.097656 271.640625 125.703125 276.1875 132.707031 C 281.347656 140.804688 285.503906 149.601562 288.226562 158.867188 C 291.0625 168.105469 292.375 177.800781 292.457031 187.5 C 292.375 197.195312 291.0625 206.890625 288.226562 216.128906 Z M 294.871094 187.425781 L 294.867188 187.417969 C 294.78125 177.519531 293.449219 167.613281 290.5625 158.164062 C 287.789062 148.691406 283.542969 139.699219 278.246094 131.4375 L 275.699219 127.609375 C 275.699219 127.609375 274.960938 126.582031 273.859375 125.039062 C 272.796875 123.460938 271.171875 121.519531 269.617188 119.523438 C 267.941406 117.628906 266.339844 115.671875 264.988281 114.335938 C 263.675781 112.964844 262.800781 112.054688 262.800781 112.054688 C 262.800781 112.054688 262.582031 111.828125 262.183594 111.445312 C 261.785156 111.0625 261.21875 110.511719 260.535156 109.855469 C 259.207031 108.5 257.273438 106.867188 255.382812 105.191406 C 254.410156 104.382812 253.410156 103.609375 252.484375 102.867188 C 252.023438 102.5 251.574219 102.140625 251.148438 101.804688 C 250.707031 101.484375 250.292969 101.1875 249.90625 100.910156 C 248.371094 99.796875 247.34375 99.058594 247.34375 99.058594 C 247.34375 99.058594 247.121094 98.878906 246.757812 98.644531 C 246.402344 98.40625 245.925781 98.085938 245.449219 97.765625 C 244.496094 97.128906 243.539062 96.488281 243.539062 96.488281 C 243.285156 96.316406 243.019531 96.136719 242.742188 95.949219 C 242.453125 95.773438 242.15625 95.59375 241.84375 95.40625 C 241.222656 95.03125 240.550781 94.628906 239.839844 94.203125 C 238.429688 93.3125 236.761719 92.476562 234.960938 91.515625 C 234.507812 91.28125 234.050781 91.023438 233.574219 90.796875 C 233.09375 90.570312 232.601562 90.339844 232.101562 90.109375 C 231.101562 89.644531 230.0625 89.164062 228.992188 88.667969 C 226.796875 87.804688 224.507812 86.777344 222.007812 85.972656 C 212.152344 82.390625 199.84375 80.171875 187.5 80.125 C 175.152344 80.171875 162.84375 82.390625 152.984375 85.972656 C 150.488281 86.777344 148.199219 87.804688 146.003906 88.667969 C 144.933594 89.164062 143.898438 89.644531 142.894531 90.109375 C 142.394531 90.34375 141.902344 90.570312 141.421875 90.796875 C 140.941406 91.023438 140.488281 91.28125 140.035156 91.515625 C 138.234375 92.476562 136.566406 93.3125 135.15625 94.203125 C 134.445312 94.628906 133.773438 95.03125 133.152344 95.40625 C 132.839844 95.59375 132.542969 95.777344 132.253906 95.949219 C 131.976562 96.136719 131.710938 96.316406 131.453125 96.488281 C 131.453125 96.488281 130.5 97.128906 129.546875 97.765625 C 129.070312 98.085938 128.59375 98.40625 128.238281 98.644531 C 127.875 98.878906 127.652344 99.058594 127.652344 99.058594 C 127.652344 99.058594 126.628906 99.796875 125.089844 100.910156 C 124.703125 101.1875 124.289062 101.484375 123.847656 101.804688 C 123.421875 102.140625 122.976562 102.5 122.511719 102.867188 C 121.585938 103.609375 120.585938 104.382812 119.617188 105.191406 C 117.722656 106.867188 115.792969 108.5 114.460938 109.855469 C 113.777344 110.511719 113.210938 111.0625 112.8125 111.445312 C 112.414062 111.828125 112.195312 112.054688 112.195312 112.054688 C 112.195312 112.054688 111.320312 112.964844 110.007812 114.335938 C 108.65625 115.671875 107.054688 117.628906 105.378906 119.523438 C 103.824219 121.519531 102.199219 123.460938 101.136719 125.039062 C 100.03125 126.582031 99.296875 127.609375 99.296875 127.609375 L 96.75 131.4375 C 91.453125 139.699219 87.207031 148.691406 84.433594 158.164062 C 81.546875 167.613281 80.214844 177.519531 80.128906 187.417969 L 80.125 187.425781 L 80.125 187.570312 L 80.128906 187.578125 C 80.214844 197.476562 81.546875 207.386719 84.433594 216.832031 C 87.207031 226.304688 91.453125 235.300781 96.75 243.558594 L 99.296875 247.386719 C 99.296875 247.386719 100.035156 248.414062 101.136719 249.960938 C 102.199219 251.535156 103.824219 253.476562 105.378906 255.472656 C 107.054688 257.367188 108.65625 259.324219 110.007812 260.660156 C 111.320312 262.027344 112.195312 262.941406 112.195312 262.941406 C 112.195312 262.941406 112.414062 263.167969 112.8125 263.550781 C 113.210938 263.933594 113.777344 264.484375 114.460938 265.140625 C 115.792969 266.496094 117.722656 268.128906 119.617188 269.804688 C 120.585938 270.613281 121.585938 271.386719 122.511719 272.128906 C 122.976562 272.496094 123.421875 272.855469 123.847656 273.191406 C 124.289062 273.511719 124.703125 273.808594 125.089844 274.085938 C 126.628906 275.199219 127.652344 275.9375 127.652344 275.9375 C 127.652344 275.9375 127.875 276.117188 128.238281 276.351562 C 128.59375 276.589844 129.070312 276.910156 129.546875 277.230469 C 130.5 277.867188 131.457031 278.507812 131.457031 278.507812 C 131.710938 278.679688 131.976562 278.859375 132.253906 279.046875 C 132.542969 279.222656 132.839844 279.402344 133.152344 279.589844 C 133.773438 279.964844 134.445312 280.367188 135.15625 280.792969 C 136.566406 281.683594 138.234375 282.519531 140.035156 283.480469 C 140.488281 283.714844 140.945312 283.972656 141.421875 284.199219 C 141.902344 284.425781 142.394531 284.65625 142.894531 284.886719 C 143.898438 285.351562 144.933594 285.832031 146.003906 286.328125 C 148.199219 287.191406 150.488281 288.21875 152.988281 289.023438 C 162.84375 292.605469 175.152344 294.820312 187.5 294.871094 C 199.84375 294.820312 212.152344 292.605469 222.011719 289.023438 C 224.507812 288.21875 226.796875 287.191406 228.992188 286.328125 C 230.0625 285.832031 231.101562 285.351562 232.101562 284.886719 C 232.601562 284.652344 233.09375 284.425781 233.574219 284.199219 C 234.054688 283.972656 234.507812 283.714844 234.960938 283.480469 C 236.761719 282.519531 238.429688 281.683594 239.839844 280.792969 C 240.550781 280.367188 241.222656 279.964844 241.84375 279.589844 C 242.15625 279.402344 242.453125 279.21875 242.742188 279.046875 C 243.019531 278.859375 243.285156 278.679688 243.542969 278.507812 C 243.542969 278.507812 244.496094 277.867188 245.449219 277.230469 C 245.925781 276.910156 246.402344 276.589844 246.757812 276.351562 C 247.121094 276.117188 247.34375 275.9375 247.34375 275.9375 C 247.34375 275.9375 248.371094 275.199219 249.90625 274.085938 C 250.292969 273.808594 250.707031 273.511719 251.148438 273.191406 C 251.574219 272.855469 252.023438 272.496094 252.484375 272.128906 C 253.410156 271.386719 254.410156 270.613281 255.382812 269.804688 C 257.273438 268.128906 259.207031 266.496094 260.535156 265.140625 C 261.21875 264.484375 261.785156 263.933594 262.183594 263.550781 C 262.582031 263.167969 262.800781 262.941406 262.800781 262.941406 C 262.800781 262.941406 263.675781 262.027344 264.988281 260.660156 C 266.339844 259.324219 267.941406 257.367188 269.617188 255.472656 C 271.171875 253.476562 272.796875 251.535156 273.859375 249.960938 C 274.964844 248.414062 275.699219 247.386719 275.699219 247.386719 L 278.246094 243.558594 C 283.542969 235.300781 287.789062 226.304688 290.5625 216.832031 C 293.449219 207.382812 294.78125 197.476562 294.867188 187.578125 L 294.871094 187.570312 L 294.871094 187.425781 " fill-opacity="1" fill-rule="nonzero"/></g><g clip-path="url(#81b0b9e22b)"><path fill="#446c48" d="M 228.769531 286.394531 C 213.402344 286.574219 198.0625 287.710938 182.679688 287.710938 C 169.1875 287.621094 156.386719 287.050781 144.34375 286.15625 C 142.792969 286.140625 141.253906 285.980469 139.730469 285.667969 C 138.210938 285.359375 136.730469 284.90625 135.296875 284.3125 C 133.859375 283.71875 132.496094 282.992188 131.199219 282.132812 C 129.90625 281.277344 128.703125 280.300781 127.59375 279.214844 C 126.492188 278.113281 125.507812 276.914062 124.640625 275.621094 C 123.777344 274.324219 123.046875 272.957031 122.453125 271.519531 C 121.855469 270.078125 121.410156 268.59375 121.109375 267.066406 C 120.808594 265.539062 120.660156 263.996094 120.664062 262.4375 L 120.664062 182.664062 C 120.664062 179.003906 121.03125 159.480469 136.800781 143.710938 C 139.351562 141.148438 142.132812 138.859375 145.140625 136.847656 C 148.148438 134.835938 151.324219 133.136719 154.664062 131.75 C 158.007812 130.367188 161.453125 129.324219 165.003906 128.621094 C 168.554688 127.917969 172.136719 127.566406 175.753906 127.574219 L 197.375 127.574219 C 201.515625 127.648438 220.527344 128.40625 236.332031 143.710938 C 239.929688 147.195312 243.011719 151.089844 245.570312 155.394531 C 251.378906 165.164062 252.777344 176.574219 253.300781 187.941406 C 254.125 205.917969 253.519531 214.800781 253.757812 226.75 C 254.40625 238.246094 254.226562 249.730469 253.21875 261.199219 C 252.402344 270.878906 250.800781 278.113281 245.65625 282.335938 C 243.953125 283.6875 242.070312 284.710938 240.007812 285.402344 C 237.949219 286.097656 235.832031 286.421875 233.65625 286.375 C 232.027344 286.363281 230.398438 286.375 228.769531 286.394531 Z M 228.769531 286.394531 " fill-opacity="1" fill-rule="nonzero"/></g><path fill="#29452c" d="M 205.5625 114.699219 L 198.238281 114.699219 C 198.109375 111.949219 197.988281 108.597656 197.933594 104.808594 C 197.933594 102.773438 197.933594 100.164062 197.933594 97.144531 C 197.933594 94.121094 198.054688 90.523438 198.246094 86.382812 L 174.875 86.382812 C 174.773438 88.050781 174.664062 90.761719 174.703125 94.121094 C 174.757812 99.113281 175.105469 101.300781 175.152344 106.027344 C 175.152344 108.011719 175.152344 111.007812 174.875 114.699219 L 167.550781 114.699219 C 167.351562 114.699219 167.160156 114.738281 166.976562 114.816406 C 166.792969 114.890625 166.632812 115 166.492188 115.140625 C 166.351562 115.28125 166.242188 115.445312 166.164062 115.625 C 166.089844 115.808594 166.050781 116 166.046875 116.199219 L 166.046875 127.71875 C 166.046875 127.878906 166.105469 128.011719 166.214844 128.121094 C 166.324219 128.234375 166.460938 128.289062 166.617188 128.289062 L 206.46875 128.289062 C 206.625 128.289062 206.761719 128.234375 206.871094 128.121094 C 206.980469 128.011719 207.039062 127.878906 207.039062 127.71875 L 207.039062 116.199219 C 207.039062 116.003906 207 115.8125 206.925781 115.632812 C 206.851562 115.449219 206.746094 115.289062 206.605469 115.148438 C 206.46875 115.007812 206.308594 114.898438 206.128906 114.820312 C 205.949219 114.742188 205.757812 114.703125 205.5625 114.699219 Z M 205.5625 114.699219 " fill-opacity="1" fill-rule="nonzero"/><path fill="#345537" d="M 152.101562 97.757812 C 151.441406 96.519531 151.441406 93.179688 149.765625 91.503906 C 174.894531 78.09375 206.714844 73.066406 233.519531 83.125 L 228.136719 87.214844 C 224.832031 89.742188 223.109375 91.082031 222.769531 91.335938 C 218.136719 94.808594 209.4375 92.390625 199.035156 91.382812 C 199.035156 91.382812 181.460938 89.6875 163.667969 93.957031 C 159.707031 94.902344 155.851562 96.171875 152.101562 97.757812 Z M 152.101562 97.757812 " fill-opacity="1" fill-rule="nonzero"/><path fill="#f8fff1" d="M 140.023438 163.863281 L 236.679688 163.863281 C 237.0625 163.863281 237.445312 163.902344 237.820312 163.976562 C 238.199219 164.050781 238.5625 164.164062 238.917969 164.308594 C 239.273438 164.457031 239.613281 164.636719 239.929688 164.851562 C 240.25 165.066406 240.546875 165.308594 240.816406 165.578125 C 241.089844 165.851562 241.332031 166.144531 241.546875 166.464844 C 241.757812 166.785156 241.9375 167.121094 242.085938 167.476562 C 242.234375 167.832031 242.34375 168.199219 242.417969 168.574219 C 242.496094 168.953125 242.53125 169.332031 242.53125 169.714844 L 242.53125 255.851562 C 242.53125 256.238281 242.496094 256.617188 242.417969 256.992188 C 242.34375 257.371094 242.234375 257.738281 242.085938 258.089844 C 241.9375 258.445312 241.757812 258.785156 241.546875 259.101562 C 241.332031 259.421875 241.089844 259.71875 240.816406 259.988281 C 240.546875 260.261719 240.25 260.503906 239.929688 260.71875 C 239.613281 260.929688 239.273438 261.113281 238.917969 261.257812 C 238.5625 261.40625 238.199219 261.515625 237.820312 261.589844 C 237.445312 261.667969 237.0625 261.703125 236.679688 261.703125 L 140.023438 261.703125 C 139.636719 261.703125 139.257812 261.667969 138.878906 261.589844 C 138.503906 261.515625 138.136719 261.40625 137.78125 261.257812 C 137.429688 261.113281 137.089844 260.929688 136.769531 260.71875 C 136.453125 260.503906 136.15625 260.261719 135.882812 259.988281 C 135.613281 259.71875 135.371094 259.421875 135.15625 259.101562 C 134.945312 258.785156 134.761719 258.445312 134.617188 258.089844 C 134.46875 257.738281 134.359375 257.371094 134.285156 256.992188 C 134.207031 256.617188 134.171875 256.238281 134.171875 255.851562 L 134.171875 169.714844 C 134.171875 169.332031 134.207031 168.953125 134.285156 168.574219 C 134.359375 168.199219 134.46875 167.832031 134.617188 167.476562 C 134.761719 167.121094 134.945312 166.785156 135.15625 166.464844 C 135.371094 166.144531 135.613281 165.851562 135.882812 165.578125 C 136.15625 165.308594 136.453125 165.066406 136.769531 164.851562 C 137.089844 164.636719 137.429688 164.457031 137.78125 164.308594 C 138.136719 164.164062 138.503906 164.050781 138.878906 163.976562 C 139.257812 163.902344 139.636719 163.863281 140.023438 163.863281 Z M 140.023438 163.863281 " fill-opacity="1" fill-rule="nonzero"/><path fill="#345537" d="M 171.671875 195.585938 C 171.464844 195.195312 171.226562 194.824219 170.949219 194.480469 C 170.023438 193.320312 168.847656 192.539062 167.421875 192.132812 C 168.402344 191.601562 169.199219 190.871094 169.8125 189.9375 C 170.164062 189.171875 170.316406 188.371094 170.269531 187.53125 C 170.222656 186.691406 169.980469 185.914062 169.546875 185.191406 C 169.273438 184.726562 168.929688 184.320312 168.519531 183.964844 C 167.410156 183.105469 166.15625 182.746094 164.757812 182.894531 C 162.972656 183.113281 161.421875 184.460938 161.515625 183.902344 C 161.558594 183.546875 161.558594 183.195312 161.515625 182.839844 C 161.515625 182.839844 159.179688 182.839844 158.546875 182.839844 C 158.5 182.902344 158.476562 182.972656 158.476562 183.050781 C 158.402344 186.648438 158.28125 189.964844 158.335938 193.847656 C 158.335938 196.796875 158.402344 200.441406 158.335938 204.324219 C 158.867188 204.324219 159.425781 204.324219 160.011719 204.324219 C 160.65625 204.324219 161.269531 204.269531 161.84375 204.222656 C 161.886719 203.714844 161.859375 203.210938 161.773438 202.710938 C 162.457031 203.378906 163.273438 203.789062 164.214844 203.949219 C 165.21875 204.207031 166.230469 204.269531 167.257812 204.140625 C 167.71875 204.070312 168.167969 203.949219 168.601562 203.773438 C 169.035156 203.597656 169.445312 203.375 169.824219 203.101562 C 170.207031 202.832031 170.546875 202.515625 170.855469 202.164062 C 171.160156 201.808594 171.421875 201.421875 171.632812 201.007812 C 171.847656 200.589844 172.011719 200.15625 172.121094 199.699219 C 172.230469 199.246094 172.285156 198.78125 172.285156 198.316406 C 172.285156 197.847656 172.230469 197.386719 172.121094 196.929688 C 172.011719 196.476562 171.847656 196.039062 171.632812 195.625 Z M 163.363281 186.300781 C 163.628906 186.097656 163.921875 185.980469 164.253906 185.945312 C 164.582031 185.90625 164.894531 185.960938 165.195312 186.097656 C 165.53125 186.253906 165.78125 186.496094 165.949219 186.824219 C 166.074219 187.105469 166.117188 187.402344 166.078125 187.710938 C 166.035156 188.019531 165.917969 188.292969 165.71875 188.535156 C 165.339844 189 164.851562 189.203125 164.253906 189.140625 C 163.84375 189.105469 163.492188 188.945312 163.195312 188.65625 C 162.902344 188.367188 162.730469 188.019531 162.6875 187.609375 C 162.699219 187.0625 162.925781 186.621094 163.363281 186.292969 Z M 167.402344 198.773438 C 167.164062 199.113281 166.859375 199.378906 166.488281 199.566406 C 166.117188 199.753906 165.722656 199.84375 165.304688 199.835938 L 165.132812 199.835938 C 164.925781 199.824219 164.722656 199.785156 164.527344 199.71875 C 164.328125 199.652344 164.144531 199.5625 163.96875 199.449219 C 163.796875 199.335938 163.640625 199.203125 163.5 199.046875 C 163.363281 198.894531 163.246094 198.722656 163.148438 198.539062 C 163.054688 198.355469 162.984375 198.160156 162.941406 197.957031 C 162.894531 197.757812 162.875 197.550781 162.886719 197.34375 C 162.894531 197.136719 162.929688 196.933594 162.988281 196.734375 C 163.050781 196.535156 163.136719 196.347656 163.246094 196.171875 C 163.394531 195.941406 163.582031 195.742188 163.804688 195.578125 C 164.476562 195.152344 165.195312 195.058594 165.957031 195.292969 C 166.363281 195.429688 166.714844 195.65625 167.015625 195.964844 C 167.3125 196.273438 167.527344 196.632812 167.652344 197.042969 C 167.800781 197.648438 167.71875 198.222656 167.402344 198.765625 Z M 167.402344 198.773438 " fill-opacity="1" fill-rule="nonzero"/><path fill="#345537" d="M 204.035156 189.964844 C 203.628906 187.730469 203.382812 186.402344 202.265625 185.074219 C 201.78125 184.398438 201.175781 183.859375 200.449219 183.457031 C 199.71875 183.054688 198.9375 182.832031 198.109375 182.785156 C 197.378906 182.824219 196.683594 183.011719 196.03125 183.34375 C 195.378906 183.675781 194.820312 184.125 194.355469 184.6875 C 194.378906 184.382812 194.378906 184.078125 194.355469 183.773438 C 194.34375 183.433594 194.300781 183.097656 194.226562 182.765625 C 193.070312 182.644531 191.910156 182.644531 190.753906 182.765625 C 190.644531 186.351562 190.605469 190.066406 190.636719 193.910156 C 190.636719 197.519531 190.78125 201.007812 190.949219 204.378906 L 192.375 204.378906 C 192.972656 204.378906 193.546875 204.378906 194.105469 204.46875 C 194.105469 204.25 194.105469 204.03125 194.105469 203.792969 C 194.105469 203.554688 194.105469 203.140625 194.152344 202.875 C 194.796875 203.390625 195.515625 203.765625 196.308594 204 C 197.101562 204.230469 197.910156 204.304688 198.730469 204.222656 C 199.558594 204.132812 200.320312 203.863281 201.027344 203.421875 C 201.730469 202.980469 202.300781 202.410156 202.742188 201.703125 C 203.183594 201 203.488281 200.238281 203.65625 199.421875 C 204.464844 196.296875 204.589844 193.144531 204.035156 189.964844 Z M 200.949219 194.808594 C 201.03125 195.882812 200.769531 196.867188 200.160156 197.757812 C 199.660156 198.378906 199.019531 198.785156 198.246094 198.976562 C 197.457031 199.101562 196.6875 199.023438 195.9375 198.746094 C 195.796875 198.714844 195.675781 198.644531 195.582031 198.535156 C 195.515625 198.414062 195.484375 198.289062 195.488281 198.152344 C 195.378906 195.097656 195.265625 192.023438 195.152344 188.929688 C 195.222656 188.746094 195.316406 188.574219 195.425781 188.414062 C 195.539062 188.253906 195.667969 188.105469 195.8125 187.972656 C 195.957031 187.84375 196.113281 187.730469 196.285156 187.632812 C 196.457031 187.539062 196.636719 187.460938 196.824219 187.40625 C 197.011719 187.351562 197.203125 187.320312 197.398438 187.308594 C 197.59375 187.296875 197.789062 187.308594 197.980469 187.34375 C 198.175781 187.375 198.363281 187.429688 198.542969 187.507812 C 198.722656 187.582031 198.894531 187.679688 199.050781 187.792969 C 201.09375 189.121094 201.003906 192.445312 200.949219 194.808594 Z M 200.949219 194.808594 " fill-opacity="1" fill-rule="nonzero"/><path fill="#345537" d="M 216.203125 183.105469 C 215.488281 183.105469 214.785156 183.105469 214.105469 183.105469 C 213.378906 186.070312 212.695312 188.777344 212.054688 191.21875 C 210.53125 188.648438 209.382812 185.917969 208.613281 183.03125 C 207.472656 182.882812 206.371094 183.023438 205.304688 183.453125 C 206.96875 187.398438 208.816406 191.253906 210.855469 195.019531 C 210.957031 195.238281 210.929688 195.128906 210.929688 195.457031 C 210.644531 196.558594 210.820312 195.960938 210.5625 196.921875 C 210.429688 197.710938 210.15625 198.449219 209.742188 199.132812 C 209.332031 199.816406 208.808594 200.402344 208.171875 200.890625 C 206.941406 201.625 205.621094 201.875 204.207031 201.628906 L 203.921875 204.515625 C 204.917969 204.707031 205.914062 204.722656 206.910156 204.566406 C 207.910156 204.410156 208.851562 204.085938 209.738281 203.597656 C 211.039062 202.839844 212.085938 201.820312 212.878906 200.539062 C 213.496094 199.546875 213.894531 198.472656 214.078125 197.316406 C 214.492188 194.734375 215.65625 190.347656 218.0625 183.050781 C 217.457031 183.105469 216.835938 183.097656 216.203125 183.105469 Z M 216.203125 183.105469 " fill-opacity="1" fill-rule="nonzero"/><path fill="#345537" d="M 187.320312 187.410156 C 186.691406 185.734375 185.613281 184.429688 184.089844 183.5 C 183.148438 183 182.144531 182.710938 181.082031 182.628906 C 180.019531 182.550781 178.984375 182.6875 177.980469 183.039062 C 177.40625 183.246094 176.875 183.53125 176.386719 183.890625 C 174.226562 185.511719 173.824219 188.242188 173.429688 190.933594 C 172.863281 193.832031 173.042969 196.683594 173.96875 199.488281 C 174.066406 199.910156 174.203125 200.320312 174.378906 200.714844 C 174.558594 201.109375 174.773438 201.480469 175.023438 201.835938 C 175.277344 202.1875 175.5625 202.511719 175.878906 202.804688 C 176.195312 203.101562 176.539062 203.363281 176.90625 203.589844 C 177.273438 203.816406 177.664062 204.003906 178.070312 204.15625 C 178.476562 204.304688 178.890625 204.414062 179.320312 204.480469 C 179.746094 204.546875 180.179688 204.570312 180.609375 204.554688 C 181.042969 204.535156 181.46875 204.472656 181.890625 204.367188 C 183.253906 204.183594 184.433594 203.621094 185.433594 202.675781 C 186.132812 201.953125 186.636719 201.113281 186.945312 200.15625 C 187.761719 197.90625 188.128906 195.585938 188.054688 193.195312 C 188.054688 190.457031 188.054688 189.09375 187.320312 187.410156 Z M 184.300781 196.457031 C 183.90625 198.40625 183.648438 199.652344 182.53125 200.339844 C 181.917969 200.664062 181.265625 200.808594 180.570312 200.777344 C 179.878906 200.746094 179.242188 200.542969 178.65625 200.164062 C 176.679688 198.863281 176.753906 195.960938 176.828125 193.957031 C 176.828125 192.308594 176.980469 188.097656 179.445312 187.132812 C 180.082031 186.925781 180.726562 186.890625 181.382812 187.03125 C 182.039062 187.171875 182.613281 187.46875 183.109375 187.921875 C 183.777344 188.554688 183.933594 189.304688 184.234375 190.777344 C 184.664062 192.683594 184.6875 194.589844 184.300781 196.503906 Z M 184.300781 196.457031 " fill-opacity="1" fill-rule="nonzero"/><path fill="#345537" d="M 154.921875 210 L 216.898438 210 L 216.898438 211.949219 L 154.921875 211.949219 Z M 154.921875 210 " fill-opacity="1" fill-rule="nonzero"/><path fill="#345537" d="M 181.40625 226.886719 C 180.882812 225.238281 180.464844 223.5625 180.152344 221.859375 C 179.898438 220.507812 179.714844 219.144531 179.601562 217.773438 C 177.875 217.777344 176.152344 217.886719 174.4375 218.097656 C 174.050781 219.515625 173.457031 221.640625 172.707031 224.242188 C 171.953125 226.839844 171.421875 228.582031 171.167969 229.453125 C 170.390625 232.0625 169.335938 235.933594 168.144531 241.292969 C 168.867188 241.292969 169.636719 241.292969 170.445312 241.292969 C 171.25 241.292969 172.101562 241.199219 172.859375 241.117188 C 173.566406 238.609375 174.207031 236.082031 174.765625 233.535156 L 178.082031 233.460938 C 178.757812 236.0625 179.441406 238.667969 180.132812 241.273438 C 180.898438 241.332031 181.664062 241.355469 182.429688 241.335938 C 183.25 241.320312 184.066406 241.257812 184.875 241.144531 C 183.144531 233.132812 182.066406 229.113281 181.40625 226.886719 Z M 176.652344 228.964844 C 176.175781 228.984375 175.707031 229.042969 175.242188 229.140625 C 175.710938 227.0625 176.15625 224.992188 176.632812 222.914062 C 176.699219 222.871094 176.769531 222.855469 176.84375 222.867188 C 176.941406 222.890625 177.007812 222.949219 177.046875 223.039062 C 177.382812 224.054688 177.636719 225.089844 177.804688 226.144531 C 177.960938 227.105469 178.046875 228.070312 178.0625 229.039062 C 177.585938 228.972656 177.105469 228.949219 176.625 228.964844 Z M 176.652344 228.964844 " fill-opacity="1" fill-rule="nonzero"/><path fill="#345537" d="M 163.867188 223.5 C 164.414062 223.359375 164.96875 223.25 165.527344 223.179688 C 166.132812 223.101562 166.746094 223.070312 167.359375 223.078125 C 167.355469 222.363281 167.257812 221.660156 167.066406 220.972656 C 166.917969 220.253906 166.609375 219.609375 166.148438 219.039062 C 165.636719 218.511719 165.027344 218.152344 164.316406 217.957031 C 163.394531 217.617188 162.449219 217.511719 161.472656 217.644531 C 160.5 217.78125 159.617188 218.136719 158.824219 218.71875 C 158.261719 219.109375 157.769531 219.578125 157.347656 220.121094 C 155.785156 222.246094 154.714844 224.597656 154.132812 227.171875 C 153.535156 229.613281 153.535156 232.054688 154.132812 234.496094 C 154.601562 236.273438 155.207031 238.582031 157.394531 240.15625 C 158.277344 240.753906 159.242188 241.160156 160.289062 241.378906 C 161.332031 241.59375 162.378906 241.605469 163.429688 241.410156 C 164.648438 241.191406 166.644531 240.832031 167.660156 239.058594 C 168.003906 238.367188 168.183594 237.636719 168.199219 236.867188 C 168.21875 236.097656 168.070312 235.359375 167.761719 234.652344 L 166.101562 234.910156 L 164.621094 235.15625 C 164.917969 235.832031 164.917969 236.503906 164.621094 237.179688 C 164.207031 237.882812 163.59375 238.296875 162.789062 238.417969 C 160.847656 238.847656 159.199219 237.144531 159.125 237.023438 C 158.144531 235.980469 157.980469 234.800781 157.734375 232.976562 C 157.550781 231.402344 157.578125 229.835938 157.824219 228.269531 C 157.894531 226.878906 158.199219 225.542969 158.742188 224.257812 C 159.128906 223.378906 159.699219 222.648438 160.460938 222.0625 C 161.039062 221.640625 161.871094 221.035156 162.6875 221.335938 C 163.082031 221.546875 163.386719 221.851562 163.597656 222.242188 C 163.8125 222.632812 163.902344 223.054688 163.867188 223.5 Z M 163.867188 223.5 " fill-opacity="1" fill-rule="nonzero"/><path fill="#345537" d="M 203.867188 218.480469 L 204.417969 240.960938 C 206.25 240.851562 208.171875 240.777344 210.179688 240.761719 C 212.183594 240.742188 214.152344 240.761719 216.003906 240.851562 C 216.003906 240.21875 216.058594 239.550781 216.046875 238.863281 C 216.039062 238.179688 216.046875 237.765625 216.046875 237.246094 C 213.492188 237.371094 210.9375 237.371094 208.382812 237.246094 C 208.382812 235.761719 208.308594 234.277344 208.28125 232.785156 C 209.507812 232.28125 210.757812 232.199219 212.039062 232.539062 C 211.882812 231.226562 211.882812 229.914062 212.039062 228.597656 C 210.828125 228.65625 209.621094 228.753906 208.421875 228.902344 C 208.375 227.914062 208.335938 226.90625 208.320312 225.863281 C 208.320312 224.589844 208.320312 223.363281 208.320312 222.199219 C 209.648438 222.199219 211.019531 222.199219 212.421875 222.117188 C 213.824219 222.035156 215.058594 221.996094 216.324219 221.914062 C 216.324219 221.292969 216.367188 220.667969 216.386719 220.082031 C 216.40625 219.496094 216.441406 218.835938 216.460938 218.25 C 214.335938 218.324219 212.203125 218.398438 210.050781 218.453125 C 207.898438 218.507812 205.890625 218.480469 203.867188 218.480469 Z M 203.867188 218.480469 " fill-opacity="1" fill-rule="nonzero"/><path fill="#345537" d="M 194.96875 229.175781 C 195.828125 229.125 196.644531 228.910156 197.417969 228.535156 C 198.191406 228.160156 198.863281 227.648438 199.4375 227.007812 C 200.019531 226.246094 200.402344 225.398438 200.585938 224.460938 C 200.769531 223.519531 200.734375 222.589844 200.480469 221.667969 C 200.261719 220.578125 199.757812 219.640625 198.960938 218.863281 C 198.257812 218.222656 197.445312 217.785156 196.523438 217.554688 C 195.535156 217.328125 194.539062 217.285156 193.53125 217.433594 C 192.527344 217.578125 191.582031 217.90625 190.699219 218.40625 C 190.699219 218.25 190.699219 218.078125 190.699219 217.902344 C 190.699219 217.730469 190.699219 217.464844 190.699219 217.273438 C 190.011719 217.226562 189.273438 217.199219 188.503906 217.199219 C 187.734375 217.199219 187.074219 217.199219 186.414062 217.273438 L 186.414062 218.1875 C 186.664062 225.746094 186.910156 233.300781 187.148438 240.851562 C 187.816406 240.90625 188.539062 240.945312 189.335938 240.945312 C 190.132812 240.945312 190.890625 240.890625 191.570312 240.816406 C 191.460938 239.460938 191.40625 238.003906 191.414062 236.457031 C 191.414062 234.753906 191.515625 233.167969 191.652344 231.703125 C 192.648438 233.085938 193.5625 234.523438 194.398438 236.007812 C 195.269531 237.566406 196.046875 239.167969 196.726562 240.816406 C 197.640625 240.816406 198.558594 240.734375 199.472656 240.714844 C 200.390625 240.695312 201.304688 240.714844 202.21875 240.714844 C 200.304688 236.554688 197.886719 232.707031 194.96875 229.175781 Z M 193.921875 225.375 C 193.007812 225.761719 192.09375 225.761719 191.175781 225.375 C 191.175781 224.113281 191.175781 222.847656 191.175781 221.585938 C 191.453125 221.367188 191.757812 221.203125 192.09375 221.089844 C 192.777344 220.832031 193.460938 220.832031 194.144531 221.089844 C 194.390625 221.199219 194.617188 221.34375 194.816406 221.523438 C 195.019531 221.707031 195.183594 221.914062 195.3125 222.152344 C 195.445312 222.390625 195.535156 222.640625 195.582031 222.90625 C 195.628906 223.175781 195.632812 223.441406 195.589844 223.710938 C 195.457031 224.101562 195.246094 224.445312 194.953125 224.738281 C 194.660156 225.03125 194.316406 225.246094 193.921875 225.375 Z M 193.921875 225.375 " fill-opacity="1" fill-rule="nonzero"/></svg>