<svg xmlns="http://www.w3.org/2000/svg" xmlns:xlink="http://www.w3.org/1999/xlink" width="500" zoomAndPan="magnify" viewBox="0 0 375 374.999991" height="500" preserveAspectRatio="xMidYMid meet" version="1.0"><defs><clipPath id="3e06227781"><path d="M 58.5 58.5 L 316.5 58.5 L 316.5 316.5 L 58.5 316.5 Z M 58.5 58.5 " clip-rule="nonzero"/></clipPath><clipPath id="7296e3c7ce"><path d="M 187.5 316.5 C 153.058594 316.5 120.628906 303.09375 96.292969 278.707031 C 71.90625 254.371094 58.5 221.941406 58.5 187.5 C 58.5 153.058594 71.90625 120.628906 96.292969 96.292969 C 120.628906 71.90625 153.058594 58.5 187.5 58.5 C 221.941406 58.5 254.371094 71.90625 278.707031 96.292969 C 303.09375 120.679688 316.5 153.058594 316.5 187.5 C 316.5 221.941406 303.09375 254.371094 278.707031 278.707031 C 254.371094 303.09375 221.941406 316.5 187.5 316.5 Z M 187.5 66.234375 C 155.121094 66.234375 124.648438 78.867188 101.757812 101.757812 C 78.867188 124.648438 66.234375 155.121094 66.234375 187.5 C 66.234375 219.878906 78.867188 250.351562 101.757812 273.242188 C 124.648438 296.132812 155.121094 308.765625 187.5 308.765625 C 219.878906 308.765625 250.351562 296.132812 273.242188 273.242188 C 296.132812 250.351562 308.765625 219.878906 308.765625 187.5 C 308.765625 155.121094 296.132812 124.648438 273.242188 101.757812 C 250.351562 78.867188 219.878906 66.234375 187.5 66.234375 Z M 187.5 66.234375 " clip-rule="nonzero"/></clipPath><clipPath id="5bc444711d"><path d="M 80.125 145.417969 L 294.625 145.417969 L 294.625 236.917969 L 80.125 236.917969 Z M 80.125 145.417969 " clip-rule="nonzero"/></clipPath><clipPath id="fcdd710f11"><path d="M 94.222656 115.332031 L 280.972656 115.332031 L 280.972656 267.582031 L 94.222656 267.582031 Z M 94.222656 115.332031 " clip-rule="nonzero"/></clipPath><clipPath id="ffc281c00a"><path d="M 114 115.332031 L 232 115.332031 L 232 267.582031 L 114 267.582031 Z M 114 115.332031 " clip-rule="nonzero"/></clipPath><clipPath id="13ec10b8bb"><path d="M 163 123 L 280.972656 123 L 280.972656 267.582031 L 163 267.582031 Z M 163 123 " clip-rule="nonzero"/></clipPath><clipPath id="8a91d36413"><path d="M 94.222656 137 L 209 137 L 209 267.582031 L 94.222656 267.582031 Z M 94.222656 137 " clip-rule="nonzero"/></clipPath></defs><g clip-path="url(#3e06227781)"><g clip-path="url(#7296e3c7ce)"><path fill="#29452c" d="M 58.5 58.5 L 316.5 58.5 L 316.5 316.5 L 58.5 316.5 Z M 58.5 58.5 " fill-opacity="1" fill-rule="nonzero"/></g></g><g clip-path="url(#5bc444711d)"><path fill="#112241" d="M 288.226562 216.128906 C 285.503906 225.394531 281.347656 234.191406 276.191406 242.289062 C 271.933594 248.878906 267.089844 255.074219 261.648438 260.707031 C 260.945312 261.476562 260.160156 262.167969 259.410156 262.894531 C 258.652344 263.605469 257.914062 264.34375 257.136719 265.039062 L 254.777344 267.089844 L 253.601562 268.117188 L 252.375 269.089844 L 249.933594 271.042969 C 249.105469 271.675781 248.25 272.273438 247.414062 272.890625 C 245.757812 274.160156 243.996094 275.277344 242.269531 276.449219 C 242.019531 276.617188 241.757812 276.792969 241.484375 276.976562 C 241.203125 277.144531 240.914062 277.320312 240.605469 277.503906 C 240 277.867188 239.34375 278.257812 238.644531 278.675781 C 237.265625 279.542969 235.636719 280.355469 233.875 281.292969 C 233.433594 281.523438 232.988281 281.769531 232.519531 281.996094 C 232.046875 282.214844 231.570312 282.4375 231.078125 282.664062 C 230.101562 283.117188 229.085938 283.585938 228.039062 284.070312 C 225.894531 284.90625 223.65625 285.914062 221.21875 286.695312 C 211.585938 290.1875 199.5625 292.347656 187.5 292.398438 C 175.433594 292.347656 163.414062 290.1875 153.78125 286.695312 C 151.339844 285.914062 149.101562 284.90625 146.957031 284.070312 C 145.910156 283.585938 144.898438 283.117188 143.917969 282.664062 C 143.429688 282.4375 142.949219 282.214844 142.476562 281.996094 C 142.007812 281.773438 141.566406 281.523438 141.121094 281.292969 C 139.363281 280.359375 137.730469 279.542969 136.351562 278.675781 C 135.652344 278.257812 135 277.867188 134.390625 277.503906 C 134.085938 277.320312 133.792969 277.144531 133.511719 276.976562 C 133.238281 276.792969 132.976562 276.617188 132.730469 276.449219 C 126.175781 272.15625 120.019531 267.277344 114.421875 261.796875 C 108.519531 255.898438 103.355469 249.292969 98.808594 242.289062 C 93.648438 234.191406 89.492188 225.394531 86.769531 216.128906 C 83.933594 206.890625 82.621094 197.195312 82.539062 187.5 C 82.621094 177.800781 83.933594 168.105469 86.769531 158.867188 C 89.492188 149.601562 93.648438 140.808594 98.804688 132.707031 C 103.0625 126.117188 107.90625 119.921875 113.347656 114.289062 C 114.050781 113.519531 114.835938 112.828125 115.585938 112.101562 C 116.34375 111.390625 117.082031 110.652344 117.859375 109.957031 L 120.21875 107.90625 L 121.398438 106.878906 L 122.621094 105.90625 L 125.0625 103.953125 C 125.890625 103.320312 126.746094 102.722656 127.582031 102.105469 C 129.238281 100.835938 131.003906 99.71875 132.726562 98.546875 C 132.976562 98.378906 133.238281 98.203125 133.511719 98.019531 C 133.792969 97.851562 134.085938 97.675781 134.390625 97.492188 C 134.996094 97.128906 135.652344 96.738281 136.351562 96.320312 C 137.730469 95.453125 139.359375 94.640625 141.121094 93.703125 C 141.566406 93.476562 142.007812 93.226562 142.476562 93 C 142.949219 92.78125 143.429688 92.558594 143.917969 92.332031 C 144.894531 91.878906 145.910156 91.410156 146.957031 90.925781 C 149.101562 90.089844 151.339844 89.082031 153.777344 88.300781 C 163.414062 84.808594 175.433594 82.648438 187.5 82.597656 C 199.5625 82.648438 211.585938 84.808594 221.214844 88.300781 C 223.65625 89.082031 225.894531 90.089844 228.039062 90.925781 C 229.085938 91.410156 230.097656 91.878906 231.078125 92.332031 C 231.566406 92.558594 232.046875 92.78125 232.519531 93 C 232.988281 93.222656 233.429688 93.476562 233.875 93.703125 C 235.632812 94.636719 237.265625 95.453125 238.644531 96.320312 C 239.34375 96.738281 239.996094 97.128906 240.605469 97.492188 C 240.910156 97.675781 241.203125 97.851562 241.484375 98.019531 C 241.757812 98.203125 242.019531 98.378906 242.265625 98.546875 C 248.820312 102.839844 254.976562 107.71875 260.574219 113.199219 C 266.476562 119.097656 271.640625 125.703125 276.1875 132.707031 C 281.347656 140.804688 285.503906 149.601562 288.226562 158.867188 C 291.0625 168.105469 292.375 177.800781 292.457031 187.5 C 292.375 197.195312 291.0625 206.890625 288.226562 216.128906 Z M 294.871094 187.425781 L 294.867188 187.417969 C 294.78125 177.519531 293.449219 167.613281 290.5625 158.164062 C 287.789062 148.691406 283.542969 139.699219 278.246094 131.4375 L 275.699219 127.609375 C 275.699219 127.609375 274.960938 126.582031 273.859375 125.039062 C 272.796875 123.460938 271.171875 121.519531 269.617188 119.523438 C 267.941406 117.628906 266.339844 115.671875 264.988281 114.335938 C 263.675781 112.964844 262.800781 112.054688 262.800781 112.054688 C 262.800781 112.054688 262.582031 111.828125 262.183594 111.445312 C 261.785156 111.0625 261.21875 110.511719 260.535156 109.855469 C 259.207031 108.5 257.273438 106.867188 255.382812 105.191406 C 254.410156 104.382812 253.410156 103.609375 252.484375 102.867188 C 252.023438 102.5 251.574219 102.140625 251.148438 101.804688 C 250.707031 101.484375 250.292969 101.1875 249.90625 100.910156 C 248.371094 99.796875 247.34375 99.058594 247.34375 99.058594 C 247.34375 99.058594 247.121094 98.878906 246.757812 98.644531 C 246.402344 98.40625 245.925781 98.085938 245.449219 97.765625 C 244.496094 97.128906 243.539062 96.488281 243.539062 96.488281 C 243.285156 96.316406 243.019531 96.136719 242.742188 95.949219 C 242.453125 95.773438 242.15625 95.59375 241.84375 95.40625 C 241.222656 95.03125 240.550781 94.628906 239.839844 94.203125 C 238.429688 93.3125 236.761719 92.476562 234.960938 91.515625 C 234.507812 91.28125 234.050781 91.023438 233.574219 90.796875 C 233.09375 90.570312 232.601562 90.339844 232.101562 90.109375 C 231.101562 89.644531 230.0625 89.164062 228.992188 88.667969 C 226.796875 87.804688 224.507812 86.777344 222.007812 85.972656 C 212.152344 82.390625 199.84375 80.171875 187.5 80.125 C 175.152344 80.171875 162.84375 82.390625 152.984375 85.972656 C 150.488281 86.777344 148.199219 87.804688 146.003906 88.667969 C 144.933594 89.164062 143.898438 89.644531 142.894531 90.109375 C 142.394531 90.34375 141.902344 90.570312 141.421875 90.796875 C 140.941406 91.023438 140.488281 91.28125 140.035156 91.515625 C 138.234375 92.476562 136.566406 93.3125 135.15625 94.203125 C 134.445312 94.628906 133.773438 95.03125 133.152344 95.40625 C 132.839844 95.59375 132.542969 95.777344 132.253906 95.949219 C 131.976562 96.136719 131.710938 96.316406 131.453125 96.488281 C 131.453125 96.488281 130.5 97.128906 129.546875 97.765625 C 129.070312 98.085938 128.59375 98.40625 128.238281 98.644531 C 127.875 98.878906 127.652344 99.058594 127.652344 99.058594 C 127.652344 99.058594 126.628906 99.796875 125.089844 100.910156 C 124.703125 101.1875 124.289062 101.484375 123.847656 101.804688 C 123.421875 102.140625 122.976562 102.5 122.511719 102.867188 C 121.585938 103.609375 120.585938 104.382812 119.617188 105.191406 C 117.722656 106.867188 115.792969 108.5 114.460938 109.855469 C 113.777344 110.511719 113.210938 111.0625 112.8125 111.445312 C 112.414062 111.828125 112.195312 112.054688 112.195312 112.054688 C 112.195312 112.054688 111.320312 112.964844 110.007812 114.335938 C 108.65625 115.671875 107.054688 117.628906 105.378906 119.523438 C 103.824219 121.519531 102.199219 123.460938 101.136719 125.039062 C 100.03125 126.582031 99.296875 127.609375 99.296875 127.609375 L 96.75 131.4375 C 91.453125 139.699219 87.207031 148.691406 84.433594 158.164062 C 81.546875 167.613281 80.214844 177.519531 80.128906 187.417969 L 80.125 187.425781 L 80.125 187.570312 L 80.128906 187.578125 C 80.214844 197.476562 81.546875 207.386719 84.433594 216.832031 C 87.207031 226.304688 91.453125 235.300781 96.75 243.558594 L 99.296875 247.386719 C 99.296875 247.386719 100.035156 248.414062 101.136719 249.960938 C 102.199219 251.535156 103.824219 253.476562 105.378906 255.472656 C 107.054688 257.367188 108.65625 259.324219 110.007812 260.660156 C 111.320312 262.027344 112.195312 262.941406 112.195312 262.941406 C 112.195312 262.941406 112.414062 263.167969 112.8125 263.550781 C 113.210938 263.933594 113.777344 264.484375 114.460938 265.140625 C 115.792969 266.496094 117.722656 268.128906 119.617188 269.804688 C 120.585938 270.613281 121.585938 271.386719 122.511719 272.128906 C 122.976562 272.496094 123.421875 272.855469 123.847656 273.191406 C 124.289062 273.511719 124.703125 273.808594 125.089844 274.085938 C 126.628906 275.199219 127.652344 275.9375 127.652344 275.9375 C 127.652344 275.9375 127.875 276.117188 128.238281 276.351562 C 128.59375 276.589844 129.070312 276.910156 129.546875 277.230469 C 130.5 277.867188 131.457031 278.507812 131.457031 278.507812 C 131.710938 278.679688 131.976562 278.859375 132.253906 279.046875 C 132.542969 279.222656 132.839844 279.402344 133.152344 279.589844 C 133.773438 279.964844 134.445312 280.367188 135.15625 280.792969 C 136.566406 281.683594 138.234375 282.519531 140.035156 283.480469 C 140.488281 283.714844 140.945312 283.972656 141.421875 284.199219 C 141.902344 284.425781 142.394531 284.65625 142.894531 284.886719 C 143.898438 285.351562 144.933594 285.832031 146.003906 286.328125 C 148.199219 287.191406 150.488281 288.21875 152.988281 289.023438 C 162.84375 292.605469 175.152344 294.820312 187.5 294.871094 C 199.84375 294.820312 212.152344 292.605469 222.011719 289.023438 C 224.507812 288.21875 226.796875 287.191406 228.992188 286.328125 C 230.0625 285.832031 231.101562 285.351562 232.101562 284.886719 C 232.601562 284.652344 233.09375 284.425781 233.574219 284.199219 C 234.054688 283.972656 234.507812 283.714844 234.960938 283.480469 C 236.761719 282.519531 238.429688 281.683594 239.839844 280.792969 C 240.550781 280.367188 241.222656 279.964844 241.84375 279.589844 C 242.15625 279.402344 242.453125 279.21875 242.742188 279.046875 C 243.019531 278.859375 243.285156 278.679688 243.542969 278.507812 C 243.542969 278.507812 244.496094 277.867188 245.449219 277.230469 C 245.925781 276.910156 246.402344 276.589844 246.757812 276.351562 C 247.121094 276.117188 247.34375 275.9375 247.34375 275.9375 C 247.34375 275.9375 248.371094 275.199219 249.90625 274.085938 C 250.292969 273.808594 250.707031 273.511719 251.148438 273.191406 C 251.574219 272.855469 252.023438 272.496094 252.484375 272.128906 C 253.410156 271.386719 254.410156 270.613281 255.382812 269.804688 C 257.273438 268.128906 259.207031 266.496094 260.535156 265.140625 C 261.21875 264.484375 261.785156 263.933594 262.183594 263.550781 C 262.582031 263.167969 262.800781 262.941406 262.800781 262.941406 C 262.800781 262.941406 263.675781 262.027344 264.988281 260.660156 C 266.339844 259.324219 267.941406 257.367188 269.617188 255.472656 C 271.171875 253.476562 272.796875 251.535156 273.859375 249.960938 C 274.964844 248.414062 275.699219 247.386719 275.699219 247.386719 L 278.246094 243.558594 C 283.542969 235.300781 287.789062 226.304688 290.5625 216.832031 C 293.449219 207.382812 294.78125 197.476562 294.867188 187.578125 L 294.871094 187.570312 L 294.871094 187.425781 " fill-opacity="1" fill-rule="nonzero"/></g><g clip-path="url(#fcdd710f11)"><path fill="#446c48" d="M 280.554688 263.785156 C 280.554688 245.222656 280.554688 226.65625 280.554688 208.09375 C 280.554688 181.207031 280.554688 154.320312 280.570312 127.433594 C 280.570312 126.574219 280.246094 126.054688 279.511719 125.679688 C 278.722656 125.28125 277.90625 124.980469 277.054688 124.761719 C 274.519531 124.113281 271.925781 123.921875 269.324219 123.816406 C 268.125 123.765625 266.929688 123.828125 265.730469 123.882812 C 263.910156 123.96875 262.101562 124.144531 260.316406 124.507812 C 258.894531 124.796875 257.488281 125.144531 256.210938 125.898438 C 255.761719 126.164062 255.578125 126.496094 255.578125 127.019531 C 255.59375 132.875 255.59375 138.734375 255.59375 144.589844 C 255.15625 144.585938 254.828125 144.292969 254.453125 144.128906 C 251.582031 142.878906 248.542969 142.398438 245.453125 142.21875 C 242.875 142.066406 240.296875 142.15625 237.746094 142.609375 C 235.949219 142.929688 234.191406 143.371094 232.5625 144.238281 C 232.136719 144.46875 231.730469 144.722656 231.410156 145.09375 C 231.402344 142.445312 231.394531 139.796875 231.386719 137.148438 C 231.386719 136.777344 231.378906 136.410156 231.386719 136.042969 C 231.398438 135.625 231.214844 135.339844 230.832031 135.175781 C 230.496094 135.027344 230.164062 134.863281 229.820312 134.726562 C 227.179688 133.683594 224.402344 133.269531 221.589844 133.105469 C 218.636719 132.933594 215.699219 133.125 212.800781 133.757812 C 211.445312 134.054688 210.132812 134.460938 208.878906 135.066406 C 208.40625 135.292969 208.171875 135.632812 208.203125 136.15625 C 208.214844 136.316406 208.203125 136.476562 208.207031 136.640625 C 208.214844 140.554688 208.226562 144.472656 208.234375 148.390625 C 207.585938 148.105469 207.019531 147.671875 206.332031 147.441406 C 204.082031 146.679688 201.75 146.480469 199.410156 146.363281 C 197.640625 146.273438 195.871094 146.382812 194.105469 146.59375 C 192.6875 146.765625 191.292969 147.015625 189.929688 147.453125 C 189.21875 147.679688 188.601562 148.070312 187.964844 148.425781 C 187.960938 145.617188 187.941406 142.804688 187.96875 139.992188 C 187.972656 139.324219 187.699219 138.902344 187.152344 138.59375 C 186.484375 138.21875 185.773438 137.957031 185.035156 137.765625 C 182.6875 137.148438 180.289062 136.871094 177.867188 136.800781 C 175.152344 136.726562 172.433594 136.710938 169.726562 137.070312 C 167.691406 137.339844 165.671875 137.652344 163.785156 138.527344 C 163.652344 138.589844 163.527344 138.621094 163.386719 138.585938 C 163.386719 136.5625 163.375 134.535156 163.386719 132.507812 C 163.394531 130.917969 163.339844 129.332031 163.421875 127.742188 C 163.453125 127.175781 163.253906 126.742188 162.710938 126.445312 C 161.324219 125.691406 159.867188 125.136719 158.34375 124.757812 C 154.761719 123.871094 151.132812 123.601562 147.453125 123.902344 C 144.117188 124.175781 140.894531 124.796875 138.003906 126.613281 C 138 124.261719 138 121.910156 137.988281 119.558594 C 137.984375 118.085938 138.21875 118.105469 136.554688 117.351562 C 134.050781 116.207031 131.378906 115.722656 128.65625 115.503906 C 126.28125 115.316406 123.910156 115.398438 121.558594 115.769531 C 119.5 116.09375 117.503906 116.628906 115.636719 117.585938 C 115.058594 117.886719 114.800781 118.292969 114.804688 118.957031 C 114.820312 125.917969 114.816406 132.882812 114.816406 139.847656 C 114.640625 139.859375 114.515625 139.757812 114.382812 139.660156 C 113.851562 139.285156 113.265625 139.039062 112.648438 138.828125 C 110.394531 138.074219 108.058594 137.90625 105.714844 137.789062 C 104.773438 137.746094 103.832031 137.8125 102.886719 137.863281 C 101.367188 137.949219 99.867188 138.136719 98.382812 138.457031 C 97.25 138.699219 96.15625 139.035156 95.171875 139.667969 C 94.660156 139.996094 94.367188 140.40625 94.425781 141.039062 C 94.457031 141.359375 94.433594 141.683594 94.433594 142.007812 C 94.433594 182.015625 94.433594 222.027344 94.433594 262.035156 C 94.433594 262.171875 94.445312 262.3125 94.433594 262.449219 C 94.398438 262.839844 94.558594 263.109375 94.90625 263.292969 C 95.5 263.601562 96.09375 263.898438 96.742188 264.082031 C 99.757812 264.9375 102.859375 265.066406 105.964844 265.167969 C 106.425781 265.183594 106.875 265.050781 107.339844 265.0625 C 108.792969 265.097656 110.230469 264.902344 111.652344 264.617188 C 112.78125 264.390625 113.914062 264.128906 114.769531 263.257812 C 114.78125 263.371094 114.816406 263.488281 114.804688 263.601562 C 114.75 264.199219 115.054688 264.546875 115.574219 264.769531 C 115.996094 264.949219 116.433594 265.089844 116.882812 265.195312 C 119.128906 265.71875 121.421875 265.894531 123.71875 265.984375 C 126.777344 266.109375 129.835938 266.066406 132.882812 265.734375 C 134.34375 265.574219 135.808594 265.410156 137.175781 264.8125 C 137.308594 264.753906 137.441406 264.738281 137.578125 264.773438 C 137.679688 265.054688 137.957031 265.09375 138.179688 265.191406 C 138.984375 265.535156 139.816406 265.804688 140.660156 266.027344 C 143.296875 266.722656 146 266.980469 148.710938 267.085938 C 152.140625 267.226562 155.5625 267.078125 158.945312 266.429688 C 160.390625 266.152344 161.824219 265.8125 163.082031 264.980469 C 163.863281 265.316406 164.648438 265.644531 165.464844 265.898438 C 168.503906 266.835938 171.636719 267.140625 174.792969 267.234375 C 177.304688 267.308594 179.808594 267.113281 182.285156 266.695312 C 184.234375 266.363281 186.171875 265.949219 187.957031 265.046875 C 188.253906 265.480469 188.738281 265.597656 189.183594 265.761719 C 191.335938 266.554688 193.597656 266.828125 195.863281 266.957031 C 197.347656 267.039062 198.835938 267.15625 200.335938 267.039062 C 201.636719 266.933594 202.949219 266.921875 204.242188 266.707031 C 205.582031 266.484375 206.917969 266.246094 208.046875 265.394531 C 208.09375 265.359375 208.175781 265.371094 208.246094 265.363281 C 208.320312 265.695312 208.582031 265.839844 208.859375 265.96875 C 209.363281 266.199219 209.902344 266.328125 210.441406 266.4375 C 212.5 266.855469 214.589844 267.011719 216.675781 267.089844 C 220.378906 267.222656 224.082031 267.195312 227.769531 266.710938 C 228.65625 266.597656 229.542969 266.441406 230.390625 266.136719 C 230.851562 265.972656 231.285156 265.757812 231.402344 265.207031 C 232.191406 265.527344 232.992188 265.8125 233.8125 266.039062 C 236.40625 266.746094 239.066406 266.980469 241.730469 267.09375 C 244.957031 267.226562 248.175781 267.105469 251.367188 266.574219 C 252.550781 266.378906 253.71875 266.117188 254.820312 265.632812 C 255.195312 265.46875 255.601562 265.328125 255.792969 264.914062 C 255.792969 264.914062 255.792969 264.910156 255.792969 264.910156 C 256.019531 264.867188 256.195312 264.992188 256.382812 265.078125 C 257.535156 265.613281 258.734375 266.019531 259.972656 266.300781 C 263.222656 267.046875 266.507812 267.339844 269.847656 267.175781 C 271.875 267.074219 273.882812 266.859375 275.871094 266.445312 C 277.25 266.15625 278.59375 265.757812 279.890625 265.203125 C 280.347656 265.007812 280.605469 264.714844 280.558594 264.199219 C 280.546875 264.0625 280.554688 263.921875 280.554688 263.785156 Z M 280.554688 263.785156 " fill-opacity="1" fill-rule="nonzero"/></g><g clip-path="url(#ffc281c00a)"><path fill="#98ab88" d="M 138.003906 126.613281 C 138.007812 135.144531 138.011719 143.675781 138.011719 152.207031 C 138.011719 189.050781 138.011719 225.894531 138.019531 262.742188 C 138.019531 263.460938 138.019531 264.160156 137.578125 264.773438 C 137.441406 264.738281 137.308594 264.753906 137.175781 264.8125 C 135.808594 265.410156 134.34375 265.574219 132.882812 265.734375 C 129.835938 266.066406 126.777344 266.109375 123.71875 265.984375 C 121.421875 265.894531 119.128906 265.71875 116.882812 265.195312 C 116.433594 265.089844 115.996094 264.949219 115.574219 264.769531 C 115.054688 264.546875 114.75 264.199219 114.804688 263.601562 C 114.816406 263.488281 114.78125 263.371094 114.769531 263.257812 C 114.578125 263.085938 114.574219 262.851562 114.554688 262.621094 C 114.539062 262.414062 114.546875 262.207031 114.546875 262 C 114.546875 221.769531 114.546875 181.542969 114.546875 141.3125 C 114.546875 140.8125 114.476562 140.289062 114.816406 139.847656 C 114.816406 132.882812 114.820312 125.917969 114.804688 118.957031 C 114.800781 118.292969 115.058594 117.886719 115.636719 117.585938 C 117.503906 116.628906 119.5 116.09375 121.558594 115.769531 C 123.910156 115.398438 126.28125 115.316406 128.65625 115.503906 C 131.378906 115.722656 134.050781 116.207031 136.554688 117.351562 C 138.21875 118.105469 137.984375 118.085938 137.988281 119.558594 C 138 121.910156 138 124.261719 138.003906 126.613281 Z M 208.859375 265.96875 C 209.363281 266.199219 209.902344 266.328125 210.441406 266.4375 C 212.5 266.855469 214.589844 267.011719 216.675781 267.089844 C 220.378906 267.222656 224.082031 267.195312 227.769531 266.710938 C 228.65625 266.597656 229.542969 266.441406 230.390625 266.136719 C 230.851562 265.972656 231.285156 265.757812 231.402344 265.207031 C 231.230469 264.882812 231.277344 264.535156 231.277344 264.191406 C 231.273438 236.589844 231.273438 208.988281 231.273438 181.386719 C 231.273438 169.605469 231.273438 157.820312 231.277344 146.039062 C 231.277344 145.71875 231.226562 145.390625 231.410156 145.09375 C 231.402344 142.445312 231.394531 139.796875 231.386719 137.148438 C 231.386719 136.777344 231.378906 136.410156 231.386719 136.042969 C 231.398438 135.625 231.214844 135.339844 230.832031 135.175781 C 230.496094 135.027344 230.164062 134.863281 229.820312 134.726562 C 227.179688 133.683594 224.402344 133.269531 221.589844 133.105469 C 218.636719 132.933594 215.699219 133.125 212.800781 133.757812 C 211.445312 134.054688 210.132812 134.460938 208.878906 135.066406 C 208.40625 135.292969 208.171875 135.632812 208.203125 136.15625 C 208.214844 136.316406 208.203125 136.476562 208.207031 136.640625 C 208.214844 140.554688 208.226562 144.472656 208.234375 148.390625 C 208.292969 148.65625 208.480469 148.902344 208.390625 149.1875 C 208.269531 149.574219 208.316406 149.964844 208.316406 150.355469 C 208.316406 188.300781 208.316406 226.246094 208.3125 264.195312 C 208.3125 264.585938 208.347656 264.976562 208.246094 265.363281 C 208.320312 265.695312 208.582031 265.839844 208.859375 265.96875 Z M 208.859375 265.96875 " fill-opacity="1" fill-rule="nonzero"/></g><g clip-path="url(#13ec10b8bb)"><path fill="#29452c" d="M 255.59375 144.589844 C 255.59375 138.734375 255.59375 132.875 255.578125 127.019531 C 255.578125 126.496094 255.761719 126.164062 256.210938 125.898438 C 257.488281 125.144531 258.894531 124.796875 260.316406 124.507812 C 262.101562 124.144531 263.910156 123.96875 265.730469 123.882812 C 266.929688 123.828125 268.125 123.765625 269.324219 123.816406 C 271.925781 123.921875 274.519531 124.113281 277.054688 124.761719 C 277.90625 124.980469 278.722656 125.28125 279.511719 125.679688 C 280.246094 126.054688 280.570312 126.574219 280.570312 127.433594 C 280.554688 154.320312 280.554688 181.207031 280.554688 208.09375 C 280.554688 226.65625 280.554688 245.222656 280.554688 263.785156 C 280.554688 263.921875 280.546875 264.0625 280.558594 264.199219 C 280.605469 264.714844 280.347656 265.007812 279.890625 265.203125 C 278.59375 265.757812 277.25 266.15625 275.871094 266.445312 C 273.882812 266.859375 271.875 267.074219 269.847656 267.175781 C 266.507812 267.339844 263.222656 267.046875 259.972656 266.300781 C 258.734375 266.019531 257.535156 265.613281 256.382812 265.078125 C 256.195312 264.992188 256.019531 264.867188 255.792969 264.910156 C 255.558594 264.738281 255.5625 264.476562 255.546875 264.222656 C 255.527344 263.878906 255.539062 263.53125 255.539062 263.1875 C 255.535156 224.269531 255.535156 185.351562 255.546875 146.433594 C 255.546875 145.820312 255.378906 145.199219 255.59375 144.589844 Z M 187.96875 139.992188 C 187.972656 139.324219 187.699219 138.902344 187.152344 138.59375 C 186.484375 138.21875 185.773438 137.957031 185.035156 137.765625 C 182.6875 137.148438 180.289062 136.871094 177.867188 136.800781 C 175.152344 136.726562 172.433594 136.710938 169.726562 137.070312 C 167.691406 137.339844 165.671875 137.652344 163.785156 138.527344 C 163.652344 138.589844 163.527344 138.621094 163.386719 138.585938 C 163.375 138.839844 163.351562 139.09375 163.351562 139.34375 C 163.347656 180.710938 163.347656 222.074219 163.347656 263.441406 C 163.347656 263.648438 163.308594 263.871094 163.375 264.058594 C 163.507812 264.457031 163.339844 264.722656 163.082031 264.980469 C 163.863281 265.316406 164.648438 265.644531 165.464844 265.898438 C 168.503906 266.835938 171.636719 267.140625 174.792969 267.234375 C 177.304688 267.308594 179.808594 267.113281 182.285156 266.695312 C 184.234375 266.363281 186.171875 265.949219 187.957031 265.046875 C 187.960938 264.332031 187.960938 263.617188 187.960938 262.902344 C 187.960938 224.746094 187.960938 186.585938 187.964844 148.425781 C 187.960938 145.617188 187.941406 142.804688 187.96875 139.992188 Z M 187.96875 139.992188 " fill-opacity="1" fill-rule="nonzero"/></g><g clip-path="url(#8a91d36413)"><path fill="#345537" d="M 208.246094 265.363281 C 208.175781 265.371094 208.09375 265.359375 208.046875 265.394531 C 206.917969 266.246094 205.582031 266.484375 204.242188 266.707031 C 202.949219 266.921875 201.636719 266.933594 200.335938 267.039062 C 198.835938 267.15625 197.347656 267.039062 195.863281 266.957031 C 193.597656 266.828125 191.335938 266.554688 189.183594 265.761719 C 188.738281 265.597656 188.253906 265.480469 187.957031 265.046875 C 187.769531 264.847656 187.757812 264.589844 187.746094 264.335938 C 187.734375 264.082031 187.738281 263.828125 187.738281 263.578125 C 187.738281 225.683594 187.738281 187.789062 187.746094 149.894531 C 187.746094 149.402344 187.613281 148.875 187.964844 148.425781 C 188.601562 148.070312 189.21875 147.679688 189.929688 147.453125 C 191.292969 147.015625 192.6875 146.765625 194.105469 146.59375 C 195.871094 146.382812 197.640625 146.273438 199.410156 146.363281 C 201.75 146.480469 204.082031 146.679688 206.332031 147.441406 C 207.019531 147.671875 207.585938 148.105469 208.234375 148.390625 C 208.609375 148.589844 208.605469 148.945312 208.574219 149.292969 C 208.511719 149.984375 208.53125 150.675781 208.53125 151.367188 C 208.527344 188.867188 208.53125 226.367188 208.519531 263.867188 C 208.519531 264.371094 208.703125 264.933594 208.246094 265.363281 Z M 114.382812 139.660156 C 113.851562 139.285156 113.265625 139.039062 112.648438 138.828125 C 110.394531 138.074219 108.058594 137.90625 105.714844 137.789062 C 104.773438 137.746094 103.832031 137.8125 102.886719 137.863281 C 101.367188 137.949219 99.867188 138.136719 98.382812 138.457031 C 97.25 138.699219 96.15625 139.035156 95.171875 139.667969 C 94.660156 139.996094 94.367188 140.40625 94.425781 141.039062 C 94.457031 141.359375 94.433594 141.683594 94.433594 142.007812 C 94.433594 182.015625 94.433594 222.027344 94.433594 262.035156 C 94.433594 262.171875 94.445312 262.3125 94.433594 262.449219 C 94.398438 262.839844 94.558594 263.109375 94.90625 263.292969 C 95.5 263.601562 96.09375 263.898438 96.742188 264.082031 C 99.757812 264.9375 102.859375 265.066406 105.964844 265.167969 C 106.425781 265.183594 106.875 265.050781 107.339844 265.0625 C 108.792969 265.097656 110.230469 264.902344 111.652344 264.617188 C 112.78125 264.390625 113.914062 264.128906 114.769531 263.257812 C 114.773438 263.027344 114.785156 262.796875 114.785156 262.566406 C 114.785156 233.800781 114.78125 205.03125 114.785156 176.261719 C 114.789062 164.125 114.804688 151.984375 114.816406 139.847656 C 114.640625 139.859375 114.515625 139.757812 114.382812 139.660156 Z M 114.382812 139.660156 " fill-opacity="1" fill-rule="nonzero"/></g><path fill="#f8fff1" d="M 150.636719 133.464844 C 153.835938 133.464844 157.039062 133.464844 160.242188 133.464844 C 160.429688 133.464844 160.613281 133.464844 160.796875 133.476562 C 161.027344 133.488281 161.199219 133.597656 161.234375 133.839844 C 161.273438 134.101562 161.132812 134.289062 160.898438 134.375 C 160.75 134.425781 160.582031 134.425781 160.421875 134.425781 C 153.878906 134.425781 147.332031 134.425781 140.789062 134.425781 C 140.582031 134.425781 140.371094 134.445312 140.191406 134.316406 C 140.027344 134.199219 139.9375 134.042969 139.96875 133.84375 C 140 133.636719 140.132812 133.511719 140.335938 133.488281 C 140.542969 133.464844 140.75 133.464844 140.957031 133.464844 C 144.183594 133.464844 147.410156 133.464844 150.636719 133.464844 Z M 160.238281 138.742188 C 160.445312 138.742188 160.652344 138.746094 160.859375 138.726562 C 161.066406 138.707031 161.199219 138.578125 161.234375 138.378906 C 161.273438 138.179688 161.183594 138.019531 161.023438 137.898438 C 160.84375 137.765625 160.632812 137.78125 160.425781 137.78125 C 153.882812 137.78125 147.339844 137.78125 140.792969 137.785156 C 140.636719 137.785156 140.464844 137.785156 140.320312 137.835938 C 140.078125 137.914062 139.933594 138.097656 139.96875 138.363281 C 140 138.605469 140.167969 138.71875 140.398438 138.734375 C 140.582031 138.746094 140.769531 138.742188 140.953125 138.742188 C 144.15625 138.742188 147.359375 138.742188 150.5625 138.742188 C 153.785156 138.742188 157.011719 138.742188 160.238281 138.742188 Z M 160.261719 252.339844 C 160.445312 252.339844 160.628906 252.34375 160.8125 252.328125 C 161.046875 252.3125 161.207031 252.191406 161.238281 251.953125 C 161.269531 251.714844 161.140625 251.558594 160.945312 251.449219 C 160.773438 251.351562 160.585938 251.378906 160.402344 251.378906 C 159.574219 251.378906 158.746094 251.378906 157.914062 251.378906 C 152.292969 251.378906 146.671875 251.378906 141.046875 251.378906 C 140.820312 251.378906 140.582031 251.371094 140.363281 251.417969 C 140.121094 251.46875 139.957031 251.644531 139.964844 251.914062 C 139.976562 252.195312 140.160156 252.316406 140.421875 252.332031 C 140.605469 252.339844 140.789062 252.339844 140.972656 252.339844 C 144.175781 252.339844 147.378906 252.339844 150.582031 252.339844 C 153.808594 252.339844 157.035156 252.339844 160.261719 252.339844 Z M 141 255.777344 C 140.792969 255.777344 140.582031 255.773438 140.378906 255.792969 C 140.148438 255.8125 139.992188 255.941406 139.96875 256.183594 C 139.945312 256.421875 140.074219 256.574219 140.273438 256.675781 C 140.445312 256.765625 140.632812 256.738281 140.816406 256.738281 C 147.339844 256.738281 153.859375 256.738281 160.378906 256.738281 C 160.5625 256.738281 160.753906 256.769531 160.925781 256.683594 C 161.121094 256.582031 161.257812 256.429688 161.238281 256.191406 C 161.222656 255.945312 161.066406 255.816406 160.835938 255.792969 C 160.632812 255.773438 160.421875 255.777344 160.214844 255.777344 C 157.035156 255.777344 153.855469 255.777344 150.675781 255.777344 C 147.449219 255.777344 144.226562 255.777344 141 255.777344 Z M 160.152344 143.03125 C 160.359375 143.03125 160.570312 143.039062 160.773438 143.015625 C 161 142.988281 161.160156 142.839844 161.179688 142.609375 C 161.195312 142.382812 161.054688 142.230469 160.847656 142.136719 C 160.667969 142.058594 160.484375 142.074219 160.300781 142.074219 C 159.75 142.070312 159.195312 142.074219 158.644531 142.074219 C 152.746094 142.074219 146.847656 142.070312 140.949219 142.074219 C 140.71875 142.074219 140.488281 142.039062 140.265625 142.121094 C 140.027344 142.210938 139.855469 142.371094 139.886719 142.632812 C 139.914062 142.855469 140.085938 142.996094 140.316406 143.019531 C 140.496094 143.035156 140.683594 143.03125 140.867188 143.03125 C 144.09375 143.03125 147.320312 143.03125 150.542969 143.03125 C 153.746094 143.03125 156.949219 143.03125 160.152344 143.03125 Z M 160.085938 261.027344 C 160.3125 261.027344 160.546875 261.03125 160.769531 260.984375 C 161.023438 260.933594 161.164062 260.757812 161.132812 260.480469 C 161.105469 260.242188 160.972656 260.105469 160.734375 260.078125 C 160.597656 260.066406 160.457031 260.066406 160.320312 260.066406 C 153.792969 260.066406 147.269531 260.066406 140.742188 260.066406 C 140.582031 260.066406 140.414062 260.058594 140.261719 260.09375 C 140.046875 260.144531 139.875 260.285156 139.882812 260.523438 C 139.890625 260.742188 140.007812 260.933594 140.234375 260.984375 C 140.433594 261.027344 140.648438 261.027344 140.851562 261.027344 C 144.082031 261.027344 147.308594 261.027344 150.539062 261.027344 C 153.71875 261.027344 156.902344 261.027344 160.085938 261.027344 Z M 132.75 182.800781 C 132.347656 180.785156 131.769531 178.820312 130.785156 177.003906 C 130.191406 175.902344 129.484375 174.878906 128.417969 174.164062 C 127.097656 173.269531 125.757812 173.253906 124.402344 174.085938 C 123.765625 174.476562 123.238281 174.984375 122.777344 175.570312 C 121.722656 176.90625 121.011719 178.421875 120.445312 180.015625 C 119.082031 183.859375 118.644531 187.851562 118.546875 191.894531 C 118.5 193.785156 118.679688 195.664062 118.914062 197.539062 C 119.222656 199.992188 119.78125 202.382812 120.777344 204.65625 C 121.378906 206.019531 122.148438 207.269531 123.316406 208.230469 C 124.582031 209.277344 125.976562 209.417969 127.429688 208.65625 C 128.007812 208.351562 128.484375 207.921875 128.917969 207.445312 C 130.222656 206.019531 131.003906 204.300781 131.625 202.511719 C 132.980469 198.617188 133.453125 194.585938 133.476562 189.199219 C 133.492188 187.902344 133.257812 185.335938 132.75 182.800781 Z M 277.714844 204.851562 C 277.582031 207.417969 277.316406 209.980469 276.964844 212.53125 C 276.636719 214.902344 276.21875 217.253906 275.648438 219.574219 C 275.050781 222.015625 274.292969 224.40625 273.144531 226.65625 C 272.664062 227.605469 272.066406 228.484375 271.359375 229.273438 C 270.714844 229.996094 269.902344 230.484375 268.949219 230.675781 C 267.988281 230.863281 267.136719 230.539062 266.339844 230.015625 C 265.671875 229.578125 265.1875 228.964844 264.734375 228.320312 C 263.90625 227.144531 263.316406 225.847656 262.808594 224.507812 C 261.734375 221.679688 261.089844 218.738281 260.605469 215.761719 C 260.21875 213.398438 259.960938 211.027344 259.761719 208.644531 C 259.40625 204.457031 259.457031 200.265625 259.539062 196.078125 C 259.578125 194.195312 259.753906 192.3125 259.941406 190.4375 C 260.300781 186.796875 260.839844 183.183594 261.746094 179.636719 C 262.34375 177.292969 263.0625 174.984375 264.195312 172.828125 C 264.742188 171.785156 265.371094 170.796875 266.242188 169.980469 C 266.921875 169.347656 267.710938 168.917969 268.621094 168.816406 C 269.71875 168.691406 270.640625 169.160156 271.449219 169.867188 C 272.257812 170.578125 272.832031 171.464844 273.339844 172.402344 C 274.5 174.542969 275.226562 176.847656 275.796875 179.203125 C 276.355469 181.503906 276.789062 183.832031 277.070312 186.183594 C 277.3125 188.191406 277.535156 190.199219 277.644531 192.222656 C 277.765625 194.453125 277.898438 196.679688 277.882812 199.203125 C 277.972656 200.894531 277.816406 202.875 277.714844 204.851562 Z M 276.648438 198.90625 C 276.617188 197.226562 276.691406 195.546875 276.558594 193.863281 C 276.453125 192.535156 276.382812 191.203125 276.28125 189.875 C 276.132812 187.921875 275.878906 185.988281 275.570312 184.058594 C 275.109375 181.171875 274.507812 178.316406 273.503906 175.558594 C 272.976562 174.101562 272.359375 172.691406 271.441406 171.433594 C 271.058594 170.910156 270.613281 170.449219 270.078125 170.074219 C 269.300781 169.53125 268.527344 169.574219 267.757812 170.066406 C 267.203125 170.417969 266.773438 170.898438 266.386719 171.417969 C 265.285156 172.894531 264.5625 174.5625 263.96875 176.289062 C 262.753906 179.800781 262.050781 183.429688 261.535156 187.105469 C 261.171875 189.703125 260.960938 192.3125 260.769531 194.925781 C 260.660156 196.4375 260.671875 197.960938 260.628906 199.480469 C 260.550781 202.011719 260.6875 204.542969 260.859375 207.070312 C 260.921875 208.011719 260.929688 208.957031 261.039062 209.894531 C 261.265625 211.878906 261.488281 213.863281 261.816406 215.839844 C 262.382812 219.207031 263.132812 222.519531 264.507812 225.664062 C 265.050781 226.914062 265.710938 228.101562 266.71875 229.054688 C 267.238281 229.546875 267.816406 229.882812 268.574219 229.808594 C 269.207031 229.746094 269.707031 229.445312 270.148438 229.023438 C 271.390625 227.828125 272.113281 226.304688 272.777344 224.757812 C 273.746094 222.507812 274.34375 220.140625 274.871094 217.757812 C 275.265625 215.960938 275.574219 214.148438 275.808594 212.324219 C 276.007812 210.796875 276.167969 209.265625 276.300781 207.730469 C 276.445312 206.058594 276.527344 204.382812 276.632812 202.707031 C 276.710938 201.445312 276.648438 200.171875 276.648438 198.90625 Z M 253.039062 202.011719 C 252.890625 199.589844 252.53125 197.210938 251.886719 194.871094 C 251.3125 192.796875 250.539062 190.804688 249.300781 189.023438 C 248.453125 187.796875 247.457031 186.71875 246.054688 186.101562 C 244.964844 185.617188 243.855469 185.507812 242.691406 185.859375 C 241.214844 186.304688 240.109375 187.25 239.160156 188.410156 C 237.679688 190.21875 236.710938 192.304688 236.003906 194.511719 C 234.644531 198.761719 234.125 203.125 234.273438 207.582031 C 234.347656 209.824219 234.5625 212.039062 235.023438 214.226562 C 235.539062 216.695312 236.300781 219.082031 237.609375 221.261719 C 238.375 222.539062 239.289062 223.691406 240.574219 224.488281 C 242.367188 225.59375 244.175781 225.617188 245.992188 224.535156 C 246.957031 223.957031 247.738281 223.175781 248.421875 222.300781 C 249.761719 220.589844 250.636719 218.636719 251.316406 216.597656 C 252.605469 212.738281 253.117188 208.757812 253.140625 205.019531 C 253.117188 203.804688 253.089844 202.910156 253.039062 202.011719 Z M 201.332031 160.328125 C 202.613281 160.1875 203.871094 159.964844 205.082031 159.511719 C 205.5625 159.332031 205.746094 159.097656 205.644531 158.792969 C 205.550781 158.519531 205.296875 158.449219 204.8125 158.605469 C 202.472656 159.363281 200.054688 159.53125 197.625 159.628906 C 196.90625 159.65625 196.210938 159.464844 195.496094 159.488281 C 194.898438 159.503906 194.3125 159.371094 193.730469 159.257812 C 192.964844 159.105469 192.203125 158.9375 191.542969 158.46875 C 191.273438 158.273438 190.925781 158.355469 190.804688 158.570312 C 190.65625 158.84375 190.785156 159.054688 190.980469 159.242188 C 191.253906 159.507812 191.59375 159.644531 191.941406 159.769531 C 193.804688 160.433594 195.753906 160.503906 197.695312 160.609375 C 198.914062 160.546875 200.121094 160.464844 201.332031 160.328125 Z M 199.589844 229.109375 C 200.859375 229.066406 202.097656 228.871094 203.339844 228.652344 C 203.996094 228.539062 204.625 228.316406 205.25 228.089844 C 205.53125 227.984375 205.71875 227.78125 205.648438 227.449219 C 205.59375 227.191406 205.34375 227.09375 204.964844 227.175781 C 204.898438 227.1875 204.839844 227.222656 204.773438 227.246094 C 202.546875 227.972656 200.242188 228.132812 197.929688 228.253906 C 197.117188 228.296875 196.328125 228.113281 195.523438 228.121094 C 194.949219 228.125 194.378906 228.019531 193.824219 227.910156 C 193.042969 227.753906 192.242188 227.601562 191.570312 227.109375 C 191.328125 226.933594 191.023438 226.917969 190.828125 227.179688 C 190.617188 227.457031 190.792969 227.699219 191.011719 227.898438 C 191.289062 228.152344 191.628906 228.285156 191.976562 228.410156 C 193.84375 229.070312 195.792969 229.132812 197.738281 229.222656 C 198.363281 229.238281 198.976562 229.128906 199.589844 229.109375 Z M 201.339844 183.019531 C 202.621094 182.875 203.878906 182.652344 205.09375 182.203125 C 205.566406 182.023438 205.75 181.773438 205.640625 181.472656 C 205.542969 181.207031 205.285156 181.144531 204.796875 181.300781 C 202.503906 182.046875 200.128906 182.214844 197.738281 182.320312 C 196.996094 182.351562 196.277344 182.175781 195.539062 182.179688 C 194.917969 182.183594 194.308594 182.066406 193.703125 181.941406 C 192.9375 181.785156 192.179688 181.613281 191.519531 181.144531 C 191.3125 180.996094 191.035156 180.992188 190.851562 181.265625 C 190.671875 181.53125 190.769531 181.734375 190.976562 181.933594 C 191.25 182.195312 191.589844 182.335938 191.9375 182.460938 C 193.800781 183.125 195.753906 183.199219 197.75 183.304688 C 198.917969 183.226562 200.128906 183.15625 201.339844 183.019531 Z M 201.339844 206.402344 C 202.625 206.261719 203.882812 206.035156 205.09375 205.582031 C 205.566406 205.40625 205.753906 205.152344 205.640625 204.851562 C 205.539062 204.589844 205.28125 204.527344 204.792969 204.6875 C 202.523438 205.425781 200.167969 205.589844 197.804688 205.703125 C 197.0625 205.738281 196.34375 205.566406 195.605469 205.566406 C 194.9375 205.566406 194.285156 205.441406 193.632812 205.308594 C 192.910156 205.164062 192.199219 204.992188 191.574219 204.5625 C 191.273438 204.355469 191.003906 204.417969 190.847656 204.652344 C 190.644531 204.957031 190.808594 205.167969 191.03125 205.363281 C 191.292969 205.597656 191.613281 205.726562 191.941406 205.84375 C 193.804688 206.511719 195.757812 206.578125 197.660156 206.683594 C 198.921875 206.628906 200.132812 206.535156 201.339844 206.402344 Z M 202.730469 253.683594 C 203.589844 253.542969 204.433594 253.308594 205.25 252.996094 C 205.53125 252.886719 205.71875 252.6875 205.648438 252.355469 C 205.59375 252.097656 205.34375 252 204.964844 252.078125 C 204.898438 252.09375 204.835938 252.128906 204.773438 252.152344 C 202.546875 252.878906 200.234375 253.035156 197.917969 253.160156 C 197.0625 253.207031 196.226562 253.035156 195.375 253.011719 C 194.828125 252.996094 194.28125 252.902344 193.742188 252.792969 C 192.980469 252.636719 192.210938 252.484375 191.554688 252.003906 C 191.339844 251.851562 191.078125 251.832031 190.875 252.070312 C 190.679688 252.308594 190.714844 252.519531 190.996094 252.789062 C 191.269531 253.054688 191.613281 253.183594 191.960938 253.308594 C 193.828125 253.976562 195.78125 254.03125 197.683594 254.140625 C 199.40625 254.066406 201.074219 253.949219 202.730469 253.683594 Z M 225.875 151.707031 C 225.875 165.148438 225.875 178.59375 225.875 192.035156 C 225.855469 192.035156 225.839844 192.035156 225.820312 192.035156 C 225.820312 205.523438 225.863281 219.011719 225.800781 232.5 C 225.769531 239.53125 225.78125 246.5625 225.738281 253.59375 C 225.738281 253.664062 225.742188 253.734375 225.738281 253.800781 C 225.710938 254.382812 225.570312 254.539062 224.988281 254.546875 C 224.113281 254.5625 223.238281 254.550781 222.363281 254.550781 C 220.355469 254.550781 218.347656 254.554688 216.34375 254.550781 C 215.347656 254.550781 215.257812 254.460938 215.253906 253.433594 C 215.246094 250.964844 215.238281 248.5 215.234375 246.03125 C 215.222656 239.183594 215.25 232.335938 215.191406 225.488281 C 215.058594 210.0625 215.164062 194.640625 215.046875 179.214844 C 214.976562 169.785156 215.003906 160.355469 214.953125 150.925781 C 214.945312 149.707031 214.996094 149.640625 216.183594 149.699219 C 218.691406 149.820312 221.199219 149.917969 223.710938 149.980469 C 224.238281 149.996094 224.765625 150.066406 225.292969 150.078125 C 225.746094 150.089844 225.863281 150.226562 225.878906 150.667969 C 225.890625 151.015625 225.875 151.359375 225.875 151.707031 Z M 224.914062 152.023438 C 224.914062 151.863281 224.917969 151.703125 224.914062 151.542969 C 224.898438 151.050781 224.894531 151.042969 224.414062 151.019531 C 222.203125 150.929688 219.996094 150.84375 217.785156 150.753906 C 217.324219 150.734375 216.867188 150.753906 216.40625 150.679688 C 215.96875 150.609375 215.933594 150.660156 215.914062 151.101562 C 215.90625 151.261719 215.910156 151.421875 215.914062 151.585938 C 215.941406 156.21875 215.949219 160.851562 215.984375 165.484375 C 216.089844 180.765625 216.019531 196.050781 216.121094 211.332031 C 216.214844 225.097656 216.183594 238.859375 216.210938 252.625 C 216.210938 252.832031 216.214844 253.039062 216.210938 253.246094 C 216.210938 253.472656 216.308594 253.589844 216.539062 253.589844 C 216.703125 253.585938 216.863281 253.589844 217.023438 253.589844 C 219.328125 253.59375 221.636719 253.59375 223.941406 253.589844 C 224.875 253.589844 224.777344 253.660156 224.78125 252.722656 C 224.84375 234.625 224.753906 216.527344 224.875 198.433594 C 224.925781 190.734375 224.882812 183.03125 224.882812 175.332031 C 224.894531 175.332031 224.902344 175.332031 224.914062 175.332031 C 224.914062 167.5625 224.914062 159.792969 224.914062 152.023438 Z M 184.46875 250.449219 C 184.472656 251.261719 184.25 251.480469 183.457031 251.488281 C 182.8125 251.492188 182.164062 251.480469 181.519531 251.5 C 178.042969 251.617188 174.5625 251.636719 171.085938 251.652344 C 170.554688 251.65625 170.035156 251.757812 169.5 251.757812 C 168.28125 251.75 168.1875 251.675781 168.1875 250.484375 C 168.183594 248.550781 168.183594 246.613281 168.179688 244.675781 C 168.175781 237.988281 168.222656 231.304688 168.152344 224.617188 C 167.96875 206.984375 168.125 189.351562 168 171.71875 C 167.972656 168.054688 167.976562 164.390625 167.929688 160.726562 C 167.925781 160.566406 167.921875 160.402344 167.929688 160.242188 C 167.96875 159.648438 168.195312 159.417969 168.78125 159.371094 C 168.917969 159.363281 169.058594 159.371094 169.195312 159.371094 C 173.832031 159.363281 178.464844 159.355469 183.097656 159.347656 C 183.28125 159.347656 183.46875 159.339844 183.652344 159.355469 C 184 159.382812 184.195312 159.585938 184.222656 159.929688 C 184.242188 160.136719 184.234375 160.34375 184.234375 160.550781 C 184.238281 165.601562 184.183594 170.652344 184.257812 175.699219 C 184.4375 188.167969 184.269531 200.640625 184.386719 213.441406 C 184.386719 225.074219 184.382812 237.039062 184.390625 249.003906 C 184.390625 249.484375 184.464844 249.96875 184.46875 250.449219 Z M 183.425781 249.613281 C 183.425781 238.523438 183.425781 227.433594 183.425781 216.855469 C 183.320312 204.765625 183.460938 193.195312 183.304688 181.621094 C 183.214844 174.75 183.28125 167.878906 183.273438 161.003906 C 183.273438 160.316406 183.265625 160.308594 182.601562 160.308594 C 178.265625 160.316406 173.929688 160.320312 169.59375 160.332031 C 168.910156 160.332031 168.898438 160.351562 168.886719 161.027344 C 168.886719 161.164062 168.886719 161.304688 168.890625 161.441406 C 168.925781 163.789062 168.941406 166.140625 168.957031 168.488281 C 169.074219 186.175781 168.941406 203.859375 169.105469 221.542969 C 169.191406 230.972656 169.136719 240.40625 169.144531 249.835938 C 169.144531 250.042969 169.152344 250.25 169.148438 250.457031 C 169.144531 250.691406 169.265625 250.773438 169.488281 250.792969 C 169.910156 250.828125 170.3125 250.699219 170.726562 250.691406 C 173.5625 250.648438 176.394531 250.722656 179.230469 250.5625 C 180.332031 250.5 181.441406 250.539062 182.546875 250.53125 C 183.503906 250.523438 183.425781 250.601562 183.425781 249.613281 Z M 110.472656 161.320312 C 110.472656 162.128906 110.488281 162.933594 110.46875 163.742188 C 110.222656 173.765625 110.480469 183.792969 110.308594 193.816406 C 110.144531 203.289062 110.351562 212.765625 110.171875 222.234375 C 109.996094 231.660156 110.175781 241.085938 110.027344 250.511719 C 109.992188 252.789062 109.980469 255.070312 109.933594 257.347656 C 109.917969 257.988281 109.648438 258.238281 109.011719 258.101562 C 108.550781 258.003906 108.097656 258.007812 107.640625 258.007812 C 104.847656 258 102.058594 257.996094 99.269531 257.992188 C 99.085938 257.992188 98.898438 258.003906 98.714844 257.984375 C 98.152344 257.921875 97.90625 257.652344 97.898438 257.078125 C 97.890625 256.386719 97.898438 255.695312 97.898438 255.003906 C 97.902344 251.546875 97.855469 248.085938 97.910156 244.628906 C 98.171875 226.949219 97.882812 209.265625 98.074219 191.585938 C 98.160156 183.75 98.054688 175.914062 98.175781 169.050781 C 98.175781 160.75 98.175781 153.414062 98.175781 146.082031 C 98.175781 145.921875 98.167969 145.761719 98.179688 145.597656 C 98.222656 145.003906 98.398438 144.820312 98.992188 144.820312 C 102.585938 144.8125 106.183594 144.8125 109.78125 144.816406 C 110.425781 144.816406 110.484375 144.890625 110.484375 145.617188 C 110.484375 150.851562 110.476562 156.085938 110.472656 161.320312 Z M 109.515625 146.507812 C 109.515625 146.371094 109.515625 146.230469 109.511719 146.09375 C 109.503906 145.902344 109.410156 145.792969 109.214844 145.789062 C 109.03125 145.78125 108.847656 145.78125 108.660156 145.78125 C 105.777344 145.78125 102.898438 145.78125 100.015625 145.785156 C 99.097656 145.785156 99.140625 145.707031 99.140625 146.632812 C 99.140625 154.058594 99.140625 161.484375 99.140625 169.992188 C 99.023438 176.90625 99.113281 184.902344 99.042969 192.902344 C 98.910156 208.582031 99 224.261719 98.980469 239.941406 C 98.976562 242.195312 98.988281 244.449219 98.898438 246.710938 C 98.773438 249.957031 98.863281 253.210938 98.867188 256.460938 C 98.867188 257.007812 98.882812 257.015625 99.398438 257.027344 C 102.390625 257.097656 105.386719 256.914062 108.375 257.15625 C 108.945312 257.203125 108.953125 257.152344 108.96875 256.585938 C 109.023438 254.261719 109.023438 251.9375 109.058594 249.613281 C 109.214844 240.140625 109.023438 230.667969 109.207031 221.195312 C 109.386719 211.976562 109.167969 202.753906 109.34375 193.535156 C 109.527344 184.109375 109.292969 174.683594 109.480469 165.253906 C 109.605469 159.007812 109.511719 152.757812 109.515625 146.507812 Z M 180.074219 245.28125 C 180.933594 245.304688 181.050781 245.179688 181.039062 244.335938 C 181.015625 242.703125 180.988281 241.066406 180.957031 239.433594 C 180.835938 233.742188 180.957031 228.050781 180.8125 222.359375 C 180.671875 216.785156 180.816406 211.207031 180.675781 205.628906 C 180.53125 199.960938 180.699219 194.292969 180.535156 188.625 C 180.441406 185.398438 180.476562 182.167969 180.496094 178.941406 C 180.527344 174.609375 180.316406 170.28125 180.367188 165.945312 C 180.375 165.125 180.273438 165.050781 179.449219 165.027344 C 178.136719 164.996094 176.824219 165.042969 175.515625 164.914062 C 174.761719 164.839844 173.992188 164.875 173.234375 164.882812 C 172.714844 164.886719 172.535156 165.058594 172.480469 165.570312 C 172.46875 165.660156 172.476562 165.753906 172.476562 165.847656 C 172.425781 168.679688 172.476562 171.511719 172.359375 174.347656 C 172.230469 177.613281 172.355469 180.886719 172.222656 184.160156 C 172.089844 187.496094 172.21875 190.839844 172.082031 194.179688 C 171.953125 197.378906 172.070312 200.582031 171.949219 203.785156 C 171.816406 207.261719 171.9375 210.742188 171.800781 214.21875 C 171.679688 217.328125 171.789062 220.4375 171.671875 223.550781 C 171.546875 227.070312 171.667969 230.597656 171.519531 234.125 C 171.453125 235.710938 171.480469 237.304688 171.488281 238.894531 C 171.5 240.761719 171.425781 242.625 171.375 244.488281 C 171.355469 245.207031 171.554688 245.390625 172.265625 245.398438 C 172.957031 245.40625 173.652344 245.402344 174.664062 245.402344 C 176.253906 245.441406 178.160156 245.230469 180.074219 245.28125 Z M 180.074219 245.28125 " fill-opacity="1" fill-rule="nonzero"/></svg>