<svg xmlns="http://www.w3.org/2000/svg" xmlns:xlink="http://www.w3.org/1999/xlink" width="500" zoomAndPan="magnify" viewBox="0 0 375 374.999991" height="500" preserveAspectRatio="xMidYMid meet" version="1.0"><defs><clipPath id="c849898072"><path d="M 58.5 58.5 L 316.5 58.5 L 316.5 316.5 L 58.5 316.5 Z M 58.5 58.5 " clip-rule="nonzero"/></clipPath><clipPath id="37524d0af9"><path d="M 187.5 316.5 C 153.058594 316.5 120.628906 303.09375 96.292969 278.707031 C 71.90625 254.371094 58.5 221.941406 58.5 187.5 C 58.5 153.058594 71.90625 120.628906 96.292969 96.292969 C 120.628906 71.90625 153.058594 58.5 187.5 58.5 C 221.941406 58.5 254.371094 71.90625 278.707031 96.292969 C 303.09375 120.679688 316.5 153.058594 316.5 187.5 C 316.5 221.941406 303.09375 254.371094 278.707031 278.707031 C 254.371094 303.09375 221.941406 316.5 187.5 316.5 Z M 187.5 66.234375 C 155.121094 66.234375 124.648438 78.867188 101.757812 101.757812 C 78.867188 124.648438 66.234375 155.121094 66.234375 187.5 C 66.234375 219.878906 78.867188 250.351562 101.757812 273.242188 C 124.648438 296.132812 155.121094 308.765625 187.5 308.765625 C 219.878906 308.765625 250.351562 296.132812 273.242188 273.242188 C 296.132812 250.351562 308.765625 219.878906 308.765625 187.5 C 308.765625 155.121094 296.132812 124.648438 273.242188 101.757812 C 250.351562 78.867188 219.878906 66.234375 187.5 66.234375 Z M 187.5 66.234375 " clip-rule="nonzero"/></clipPath><clipPath id="257daeafcd"><path d="M 80.125 145.417969 L 294.625 145.417969 L 294.625 236.917969 L 80.125 236.917969 Z M 80.125 145.417969 " clip-rule="nonzero"/></clipPath><clipPath id="73dbd57b08"><path d="M 85.5 85.5 L 289.5 85.5 L 289.5 289.5 L 85.5 289.5 Z M 85.5 85.5 " clip-rule="nonzero"/></clipPath></defs><g clip-path="url(#c849898072)"><g clip-path="url(#37524d0af9)"><path fill="#29452c" d="M 58.5 58.5 L 316.5 58.5 L 316.5 316.5 L 58.5 316.5 Z M 58.5 58.5 " fill-opacity="1" fill-rule="nonzero"/></g></g><g clip-path="url(#257daeafcd)"><path fill="#112241" d="M 288.226562 216.128906 C 285.503906 225.394531 281.347656 234.191406 276.191406 242.289062 C 271.933594 248.878906 267.089844 255.074219 261.648438 260.707031 C 260.945312 261.476562 260.160156 262.167969 259.410156 262.894531 C 258.652344 263.605469 257.914062 264.34375 257.136719 265.039062 L 254.777344 267.089844 L 253.601562 268.117188 L 252.375 269.089844 L 249.933594 271.042969 C 249.105469 271.675781 248.25 272.273438 247.414062 272.890625 C 245.757812 274.160156 243.996094 275.277344 242.269531 276.449219 C 242.019531 276.617188 241.757812 276.792969 241.484375 276.976562 C 241.203125 277.144531 240.914062 277.320312 240.605469 277.503906 C 240 277.867188 239.34375 278.257812 238.644531 278.675781 C 237.265625 279.542969 235.636719 280.355469 233.875 281.292969 C 233.433594 281.523438 232.988281 281.769531 232.519531 281.996094 C 232.046875 282.214844 231.570312 282.4375 231.078125 282.664062 C 230.101562 283.117188 229.085938 283.585938 228.039062 284.070312 C 225.894531 284.90625 223.65625 285.914062 221.21875 286.695312 C 211.585938 290.1875 199.5625 292.347656 187.5 292.398438 C 175.433594 292.347656 163.414062 290.1875 153.78125 286.695312 C 151.339844 285.914062 149.101562 284.90625 146.957031 284.070312 C 145.910156 283.585938 144.898438 283.117188 143.917969 282.664062 C 143.429688 282.4375 142.949219 282.214844 142.476562 281.996094 C 142.007812 281.773438 141.566406 281.523438 141.121094 281.292969 C 139.363281 280.359375 137.730469 279.542969 136.351562 278.675781 C 135.652344 278.257812 135 277.867188 134.390625 277.503906 C 134.085938 277.320312 133.792969 277.144531 133.511719 276.976562 C 133.238281 276.792969 132.976562 276.617188 132.730469 276.449219 C 126.175781 272.15625 120.019531 267.277344 114.421875 261.796875 C 108.519531 255.898438 103.355469 249.292969 98.808594 242.289062 C 93.648438 234.191406 89.492188 225.394531 86.769531 216.128906 C 83.933594 206.890625 82.621094 197.195312 82.539062 187.5 C 82.621094 177.800781 83.933594 168.105469 86.769531 158.867188 C 89.492188 149.601562 93.648438 140.808594 98.804688 132.707031 C 103.0625 126.117188 107.90625 119.921875 113.347656 114.289062 C 114.050781 113.519531 114.835938 112.828125 115.585938 112.101562 C 116.34375 111.390625 117.082031 110.652344 117.859375 109.957031 L 120.21875 107.90625 L 121.398438 106.878906 L 122.621094 105.90625 L 125.0625 103.953125 C 125.890625 103.320312 126.746094 102.722656 127.582031 102.105469 C 129.238281 100.835938 131.003906 99.71875 132.726562 98.546875 C 132.976562 98.378906 133.238281 98.203125 133.511719 98.019531 C 133.792969 97.851562 134.085938 97.675781 134.390625 97.492188 C 134.996094 97.128906 135.652344 96.738281 136.351562 96.320312 C 137.730469 95.453125 139.359375 94.640625 141.121094 93.703125 C 141.566406 93.476562 142.007812 93.226562 142.476562 93 C 142.949219 92.78125 143.429688 92.558594 143.917969 92.332031 C 144.894531 91.878906 145.910156 91.410156 146.957031 90.925781 C 149.101562 90.089844 151.339844 89.082031 153.777344 88.300781 C 163.414062 84.808594 175.433594 82.648438 187.5 82.597656 C 199.5625 82.648438 211.585938 84.808594 221.214844 88.300781 C 223.65625 89.082031 225.894531 90.089844 228.039062 90.925781 C 229.085938 91.410156 230.097656 91.878906 231.078125 92.332031 C 231.566406 92.558594 232.046875 92.78125 232.519531 93 C 232.988281 93.222656 233.429688 93.476562 233.875 93.703125 C 235.632812 94.636719 237.265625 95.453125 238.644531 96.320312 C 239.34375 96.738281 239.996094 97.128906 240.605469 97.492188 C 240.910156 97.675781 241.203125 97.851562 241.484375 98.019531 C 241.757812 98.203125 242.019531 98.378906 242.265625 98.546875 C 248.820312 102.839844 254.976562 107.71875 260.574219 113.199219 C 266.476562 119.097656 271.640625 125.703125 276.1875 132.707031 C 281.347656 140.804688 285.503906 149.601562 288.226562 158.867188 C 291.0625 168.105469 292.375 177.800781 292.457031 187.5 C 292.375 197.195312 291.0625 206.890625 288.226562 216.128906 Z M 294.871094 187.425781 L 294.867188 187.417969 C 294.78125 177.519531 293.449219 167.613281 290.5625 158.164062 C 287.789062 148.691406 283.542969 139.699219 278.246094 131.4375 L 275.699219 127.609375 C 275.699219 127.609375 274.960938 126.582031 273.859375 125.039062 C 272.796875 123.460938 271.171875 121.519531 269.617188 119.523438 C 267.941406 117.628906 266.339844 115.671875 264.988281 114.335938 C 263.675781 112.964844 262.800781 112.054688 262.800781 112.054688 C 262.800781 112.054688 262.582031 111.828125 262.183594 111.445312 C 261.785156 111.0625 261.21875 110.511719 260.535156 109.855469 C 259.207031 108.5 257.273438 106.867188 255.382812 105.191406 C 254.410156 104.382812 253.410156 103.609375 252.484375 102.867188 C 252.023438 102.5 251.574219 102.140625 251.148438 101.804688 C 250.707031 101.484375 250.292969 101.1875 249.90625 100.910156 C 248.371094 99.796875 247.34375 99.058594 247.34375 99.058594 C 247.34375 99.058594 247.121094 98.878906 246.757812 98.644531 C 246.402344 98.40625 245.925781 98.085938 245.449219 97.765625 C 244.496094 97.128906 243.539062 96.488281 243.539062 96.488281 C 243.285156 96.316406 243.019531 96.136719 242.742188 95.949219 C 242.453125 95.773438 242.15625 95.59375 241.84375 95.40625 C 241.222656 95.03125 240.550781 94.628906 239.839844 94.203125 C 238.429688 93.3125 236.761719 92.476562 234.960938 91.515625 C 234.507812 91.28125 234.050781 91.023438 233.574219 90.796875 C 233.09375 90.570312 232.601562 90.339844 232.101562 90.109375 C 231.101562 89.644531 230.0625 89.164062 228.992188 88.667969 C 226.796875 87.804688 224.507812 86.777344 222.007812 85.972656 C 212.152344 82.390625 199.84375 80.171875 187.5 80.125 C 175.152344 80.171875 162.84375 82.390625 152.984375 85.972656 C 150.488281 86.777344 148.199219 87.804688 146.003906 88.667969 C 144.933594 89.164062 143.898438 89.644531 142.894531 90.109375 C 142.394531 90.34375 141.902344 90.570312 141.421875 90.796875 C 140.941406 91.023438 140.488281 91.28125 140.035156 91.515625 C 138.234375 92.476562 136.566406 93.3125 135.15625 94.203125 C 134.445312 94.628906 133.773438 95.03125 133.152344 95.40625 C 132.839844 95.59375 132.542969 95.777344 132.253906 95.949219 C 131.976562 96.136719 131.710938 96.316406 131.453125 96.488281 C 131.453125 96.488281 130.5 97.128906 129.546875 97.765625 C 129.070312 98.085938 128.59375 98.40625 128.238281 98.644531 C 127.875 98.878906 127.652344 99.058594 127.652344 99.058594 C 127.652344 99.058594 126.628906 99.796875 125.089844 100.910156 C 124.703125 101.1875 124.289062 101.484375 123.847656 101.804688 C 123.421875 102.140625 122.976562 102.5 122.511719 102.867188 C 121.585938 103.609375 120.585938 104.382812 119.617188 105.191406 C 117.722656 106.867188 115.792969 108.5 114.460938 109.855469 C 113.777344 110.511719 113.210938 111.0625 112.8125 111.445312 C 112.414062 111.828125 112.195312 112.054688 112.195312 112.054688 C 112.195312 112.054688 111.320312 112.964844 110.007812 114.335938 C 108.65625 115.671875 107.054688 117.628906 105.378906 119.523438 C 103.824219 121.519531 102.199219 123.460938 101.136719 125.039062 C 100.03125 126.582031 99.296875 127.609375 99.296875 127.609375 L 96.75 131.4375 C 91.453125 139.699219 87.207031 148.691406 84.433594 158.164062 C 81.546875 167.613281 80.214844 177.519531 80.128906 187.417969 L 80.125 187.425781 L 80.125 187.570312 L 80.128906 187.578125 C 80.214844 197.476562 81.546875 207.386719 84.433594 216.832031 C 87.207031 226.304688 91.453125 235.300781 96.75 243.558594 L 99.296875 247.386719 C 99.296875 247.386719 100.035156 248.414062 101.136719 249.960938 C 102.199219 251.535156 103.824219 253.476562 105.378906 255.472656 C 107.054688 257.367188 108.65625 259.324219 110.007812 260.660156 C 111.320312 262.027344 112.195312 262.941406 112.195312 262.941406 C 112.195312 262.941406 112.414062 263.167969 112.8125 263.550781 C 113.210938 263.933594 113.777344 264.484375 114.460938 265.140625 C 115.792969 266.496094 117.722656 268.128906 119.617188 269.804688 C 120.585938 270.613281 121.585938 271.386719 122.511719 272.128906 C 122.976562 272.496094 123.421875 272.855469 123.847656 273.191406 C 124.289062 273.511719 124.703125 273.808594 125.089844 274.085938 C 126.628906 275.199219 127.652344 275.9375 127.652344 275.9375 C 127.652344 275.9375 127.875 276.117188 128.238281 276.351562 C 128.59375 276.589844 129.070312 276.910156 129.546875 277.230469 C 130.5 277.867188 131.457031 278.507812 131.457031 278.507812 C 131.710938 278.679688 131.976562 278.859375 132.253906 279.046875 C 132.542969 279.222656 132.839844 279.402344 133.152344 279.589844 C 133.773438 279.964844 134.445312 280.367188 135.15625 280.792969 C 136.566406 281.683594 138.234375 282.519531 140.035156 283.480469 C 140.488281 283.714844 140.945312 283.972656 141.421875 284.199219 C 141.902344 284.425781 142.394531 284.65625 142.894531 284.886719 C 143.898438 285.351562 144.933594 285.832031 146.003906 286.328125 C 148.199219 287.191406 150.488281 288.21875 152.988281 289.023438 C 162.84375 292.605469 175.152344 294.820312 187.5 294.871094 C 199.84375 294.820312 212.152344 292.605469 222.011719 289.023438 C 224.507812 288.21875 226.796875 287.191406 228.992188 286.328125 C 230.0625 285.832031 231.101562 285.351562 232.101562 284.886719 C 232.601562 284.652344 233.09375 284.425781 233.574219 284.199219 C 234.054688 283.972656 234.507812 283.714844 234.960938 283.480469 C 236.761719 282.519531 238.429688 281.683594 239.839844 280.792969 C 240.550781 280.367188 241.222656 279.964844 241.84375 279.589844 C 242.15625 279.402344 242.453125 279.21875 242.742188 279.046875 C 243.019531 278.859375 243.285156 278.679688 243.542969 278.507812 C 243.542969 278.507812 244.496094 277.867188 245.449219 277.230469 C 245.925781 276.910156 246.402344 276.589844 246.757812 276.351562 C 247.121094 276.117188 247.34375 275.9375 247.34375 275.9375 C 247.34375 275.9375 248.371094 275.199219 249.90625 274.085938 C 250.292969 273.808594 250.707031 273.511719 251.148438 273.191406 C 251.574219 272.855469 252.023438 272.496094 252.484375 272.128906 C 253.410156 271.386719 254.410156 270.613281 255.382812 269.804688 C 257.273438 268.128906 259.207031 266.496094 260.535156 265.140625 C 261.21875 264.484375 261.785156 263.933594 262.183594 263.550781 C 262.582031 263.167969 262.800781 262.941406 262.800781 262.941406 C 262.800781 262.941406 263.675781 262.027344 264.988281 260.660156 C 266.339844 259.324219 267.941406 257.367188 269.617188 255.472656 C 271.171875 253.476562 272.796875 251.535156 273.859375 249.960938 C 274.964844 248.414062 275.699219 247.386719 275.699219 247.386719 L 278.246094 243.558594 C 283.542969 235.300781 287.789062 226.304688 290.5625 216.832031 C 293.449219 207.382812 294.78125 197.476562 294.867188 187.578125 L 294.871094 187.570312 L 294.871094 187.425781 " fill-opacity="1" fill-rule="nonzero"/></g><g clip-path="url(#73dbd57b08)"><path fill="#29452c" d="M 187.503906 289.503906 C 131.167969 289.503906 85.5 243.835938 85.5 187.503906 C 85.5 131.167969 131.167969 85.5 187.503906 85.5 C 243.835938 85.5 289.503906 131.167969 289.503906 187.503906 C 289.503906 243.835938 243.835938 289.503906 187.503906 289.503906 " fill-opacity="1" fill-rule="nonzero"/></g><path fill="#ffffff" d="M 169.734375 189.902344 L 185.570312 189.902344 C 188.316406 189.902344 190.574219 192.003906 190.832031 194.683594 L 164.476562 194.683594 C 164.730469 192.003906 166.992188 189.902344 169.734375 189.902344 " fill-opacity="1" fill-rule="nonzero"/><path fill="#ffffff" d="M 190.855469 199.703125 C 190.855469 204.730469 186.761719 208.828125 181.730469 208.828125 L 173.574219 208.828125 C 168.542969 208.828125 164.449219 204.730469 164.449219 199.703125 L 164.449219 195.691406 L 190.855469 195.691406 L 190.855469 199.703125 " fill-opacity="1" fill-rule="nonzero"/><path fill="#ffffff" d="M 151.453125 205.277344 L 151.453125 200 C 151.453125 198.742188 152.125 197.636719 153.128906 197.019531 L 153.128906 208.257812 C 152.125 207.640625 151.453125 206.539062 151.453125 205.277344 " fill-opacity="1" fill-rule="nonzero"/><path fill="#ffffff" d="M 156.828125 208.777344 L 154.953125 208.777344 C 154.644531 208.777344 154.347656 208.734375 154.0625 208.65625 L 154.0625 196.746094 C 154.0625 196.703125 154.054688 196.664062 154.046875 196.625 C 154.335938 196.546875 154.636719 196.503906 154.953125 196.503906 L 157.074219 196.503906 L 158.613281 198.042969 L 158.613281 206.992188 C 158.613281 207.976562 157.8125 208.777344 156.828125 208.777344 " fill-opacity="1" fill-rule="nonzero"/><path fill="#ffffff" d="M 162.179688 197.417969 L 161.660156 197.9375 C 161.414062 198.179688 161.089844 198.316406 160.746094 198.316406 C 160.402344 198.316406 160.078125 198.179688 159.832031 197.9375 L 157.167969 195.269531 C 156.664062 194.765625 156.664062 193.949219 157.167969 193.445312 L 157.6875 192.925781 C 158.289062 192.324219 159.085938 191.992188 159.933594 191.992188 C 160.78125 191.992188 161.578125 192.324219 162.179688 192.925781 C 162.777344 193.523438 163.109375 194.320312 163.109375 195.171875 C 163.109375 196.019531 162.777344 196.816406 162.179688 197.417969 " fill-opacity="1" fill-rule="nonzero"/><path fill="#ffffff" d="M 202.183594 208.257812 L 202.183594 197.019531 C 203.1875 197.636719 203.859375 198.742188 203.859375 200 L 203.859375 205.277344 C 203.859375 206.539062 203.1875 207.640625 202.183594 208.257812 " fill-opacity="1" fill-rule="nonzero"/><path fill="#ffffff" d="M 196.695312 206.992188 L 196.695312 198.042969 L 198.234375 196.503906 L 200.359375 196.503906 C 200.671875 196.503906 200.972656 196.546875 201.265625 196.625 C 201.253906 196.664062 201.246094 196.703125 201.246094 196.746094 L 201.246094 208.65625 C 200.960938 208.734375 200.664062 208.777344 200.359375 208.777344 L 198.480469 208.777344 C 197.496094 208.777344 196.695312 207.976562 196.695312 206.992188 " fill-opacity="1" fill-rule="nonzero"/><path fill="#ffffff" d="M 192.199219 195.171875 C 192.199219 194.320312 192.53125 193.523438 193.132812 192.925781 C 193.730469 192.324219 194.527344 191.992188 195.375 191.992188 C 196.226562 191.992188 197.023438 192.324219 197.621094 192.925781 L 198.144531 193.445312 C 198.644531 193.949219 198.644531 194.765625 198.144531 195.269531 L 195.476562 197.9375 C 195.234375 198.179688 194.910156 198.316406 194.5625 198.316406 C 194.21875 198.316406 193.894531 198.179688 193.652344 197.9375 L 193.132812 197.417969 C 192.53125 196.816406 192.199219 196.019531 192.199219 195.171875 " fill-opacity="1" fill-rule="nonzero"/><path fill="#ffffff" d="M 239.25 108.40625 L 239.25 113.125 C 239.25 114.25 238.648438 115.238281 237.753906 115.789062 L 237.753906 105.738281 C 238.648438 106.292969 239.25 107.277344 239.25 108.40625 " fill-opacity="1" fill-rule="nonzero"/><path fill="#ffffff" d="M 234.445312 105.277344 L 236.121094 105.277344 C 236.398438 105.277344 236.660156 105.316406 236.917969 105.378906 L 236.917969 116.03125 C 236.917969 116.070312 236.921875 116.109375 236.933594 116.144531 C 236.675781 116.210938 236.402344 116.253906 236.121094 116.253906 L 234.222656 116.253906 L 232.847656 114.875 L 232.847656 106.871094 C 232.847656 105.992188 233.5625 105.277344 234.445312 105.277344 " fill-opacity="1" fill-rule="nonzero"/><path fill="#ffffff" d="M 229.660156 115.433594 L 230.125 114.96875 C 230.339844 114.753906 230.632812 114.632812 230.941406 114.632812 C 231.25 114.632812 231.539062 114.753906 231.757812 114.96875 L 234.140625 117.355469 C 234.589844 117.804688 234.589844 118.539062 234.140625 118.988281 L 233.675781 119.453125 C 233.136719 119.988281 232.425781 120.285156 231.667969 120.285156 C 230.90625 120.285156 230.195312 119.988281 229.660156 119.453125 C 229.121094 118.914062 228.824219 118.203125 228.824219 117.445312 C 228.824219 116.6875 229.121094 115.972656 229.660156 115.433594 " fill-opacity="1" fill-rule="nonzero"/><path fill="#ffffff" d="M 217.851562 105.503906 L 217.851562 115.550781 C 216.953125 115 216.355469 114.015625 216.355469 112.886719 L 216.355469 108.167969 C 216.355469 107.039062 216.953125 106.050781 217.851562 105.503906 " fill-opacity="1" fill-rule="nonzero"/><path fill="#ffffff" d="M 222.757812 106.632812 L 222.757812 114.640625 L 221.382812 116.015625 L 219.484375 116.015625 C 219.203125 116.015625 218.933594 115.972656 218.671875 115.90625 C 218.683594 115.871094 218.6875 115.832031 218.6875 115.796875 L 218.6875 105.144531 C 218.941406 105.078125 219.210938 105.039062 219.484375 105.039062 L 221.164062 105.039062 C 222.042969 105.039062 222.757812 105.753906 222.757812 106.632812 " fill-opacity="1" fill-rule="nonzero"/><path fill="#ffffff" d="M 226.78125 117.207031 C 226.78125 117.964844 226.484375 118.679688 225.949219 119.214844 C 225.410156 119.75 224.699219 120.046875 223.9375 120.046875 C 223.179688 120.046875 222.464844 119.75 221.929688 119.214844 L 221.464844 118.75 C 221.015625 118.300781 221.015625 117.566406 221.464844 117.117188 L 223.851562 114.730469 C 224.066406 114.515625 224.359375 114.394531 224.664062 114.394531 C 224.972656 114.394531 225.265625 114.515625 225.480469 114.730469 L 225.949219 115.199219 C 226.484375 115.734375 226.78125 116.449219 226.78125 117.207031 " fill-opacity="1" fill-rule="nonzero"/><path fill="#ffffff" d="M 203.390625 182.425781 C 203.390625 183.425781 202.578125 184.238281 201.578125 184.238281 L 153.839844 184.238281 C 152.84375 184.238281 152.03125 183.425781 152.03125 182.425781 L 152.03125 181.378906 L 203.390625 181.378906 L 203.390625 182.425781 " fill-opacity="1" fill-rule="nonzero"/><path fill="#ffffff" d="M 197.5 177.625 C 197.5 177.878906 197.292969 178.082031 197.042969 178.082031 L 158.375 178.082031 C 158.125 178.082031 157.921875 177.878906 157.921875 177.625 L 157.921875 158.09375 C 157.921875 157.289062 158.574219 156.632812 159.382812 156.632812 L 196.039062 156.632812 C 196.84375 156.632812 197.5 157.289062 197.5 158.09375 Z M 199.925781 180.195312 L 199.925781 155.957031 C 199.925781 154.992188 199.140625 154.210938 198.175781 154.210938 L 157.242188 154.210938 C 156.28125 154.210938 155.496094 154.992188 155.496094 155.957031 L 155.496094 180.195312 C 155.496094 180.300781 155.460938 180.394531 155.402344 180.46875 L 200.015625 180.46875 C 199.960938 180.394531 199.925781 180.300781 199.925781 180.195312 " fill-opacity="1" fill-rule="nonzero"/><path fill="#ffffff" d="M 177.390625 155.746094 C 177.476562 155.832031 177.585938 155.882812 177.710938 155.882812 C 177.773438 155.882812 177.828125 155.871094 177.882812 155.847656 C 177.9375 155.824219 177.988281 155.789062 178.03125 155.746094 C 178.074219 155.707031 178.109375 155.652344 178.128906 155.601562 C 178.152344 155.546875 178.164062 155.488281 178.164062 155.425781 C 178.164062 155.394531 178.160156 155.367188 178.15625 155.335938 C 178.152344 155.308594 178.140625 155.277344 178.128906 155.25 C 178.117188 155.222656 178.105469 155.199219 178.085938 155.171875 C 178.074219 155.148438 178.050781 155.128906 178.03125 155.105469 C 178.011719 155.085938 177.988281 155.0625 177.964844 155.046875 C 177.9375 155.03125 177.910156 155.019531 177.882812 155.003906 C 177.855469 154.992188 177.824219 154.988281 177.800781 154.980469 C 177.742188 154.96875 177.679688 154.96875 177.621094 154.980469 C 177.59375 154.988281 177.5625 154.992188 177.535156 155.003906 C 177.507812 155.019531 177.480469 155.03125 177.457031 155.046875 C 177.433594 155.0625 177.410156 155.085938 177.390625 155.105469 C 177.367188 155.128906 177.347656 155.148438 177.332031 155.171875 C 177.3125 155.199219 177.300781 155.222656 177.289062 155.25 C 177.277344 155.277344 177.269531 155.308594 177.261719 155.335938 C 177.257812 155.367188 177.257812 155.394531 177.257812 155.425781 C 177.257812 155.488281 177.265625 155.546875 177.289062 155.601562 C 177.3125 155.652344 177.34375 155.707031 177.390625 155.746094 " fill-opacity="1" fill-rule="nonzero"/><path fill="#ffffff" d="M 150.066406 117.804688 L 174.324219 117.804688 L 174.324219 121.402344 C 174.0625 121.253906 173.761719 121.167969 173.4375 121.167969 L 150.957031 121.167969 C 150.632812 121.167969 150.332031 121.253906 150.066406 121.402344 L 150.066406 117.804688 " fill-opacity="1" fill-rule="nonzero"/><path fill="#ffffff" d="M 153.207031 95.738281 L 171.183594 95.738281 L 171.183594 108.859375 L 153.207031 108.859375 L 153.207031 95.738281 " fill-opacity="1" fill-rule="nonzero"/><path fill="#ffffff" d="M 152.753906 109.769531 L 174.324219 109.769531 L 174.324219 116.894531 L 150.066406 116.894531 L 150.066406 109.769531 L 152.753906 109.769531 " fill-opacity="1" fill-rule="nonzero"/><path fill="#ffffff" d="M 142.183594 111.636719 C 142.183594 110.605469 143.023438 109.769531 144.050781 109.769531 L 149.160156 109.769531 L 149.160156 123.257812 L 142.183594 123.257812 L 142.183594 111.636719 " fill-opacity="1" fill-rule="nonzero"/><path fill="#ffffff" d="M 174.324219 125.351562 L 150.066406 125.351562 L 150.066406 122.964844 C 150.066406 122.472656 150.464844 122.074219 150.957031 122.074219 L 173.4375 122.074219 C 173.925781 122.074219 174.324219 122.472656 174.324219 122.964844 L 174.324219 125.351562 " fill-opacity="1" fill-rule="nonzero"/><path fill="#ffffff" d="M 178.621094 117.605469 C 178.25 117.605469 177.949219 117.910156 177.949219 118.28125 C 177.949219 118.652344 178.25 118.953125 178.621094 118.953125 C 178.992188 118.953125 179.292969 118.652344 179.292969 118.28125 C 179.292969 117.910156 178.992188 117.605469 178.621094 117.605469 " fill-opacity="1" fill-rule="nonzero"/><path fill="#ffffff" d="M 178.621094 113.550781 C 178.25 113.550781 177.949219 113.851562 177.949219 114.222656 C 177.949219 114.59375 178.25 114.894531 178.621094 114.894531 C 178.992188 114.894531 179.292969 114.59375 179.292969 114.222656 C 179.292969 113.851562 178.992188 113.550781 178.621094 113.550781 " fill-opacity="1" fill-rule="nonzero"/><path fill="#ffffff" d="M 178.621094 115.804688 C 177.746094 115.804688 177.039062 115.09375 177.039062 114.222656 C 177.039062 113.351562 177.746094 112.640625 178.621094 112.640625 C 179.492188 112.640625 180.203125 113.351562 180.203125 114.222656 C 180.203125 115.09375 179.492188 115.804688 178.621094 115.804688 Z M 178.621094 119.859375 C 177.746094 119.859375 177.039062 119.152344 177.039062 118.28125 C 177.039062 117.40625 177.746094 116.699219 178.621094 116.699219 C 179.492188 116.699219 180.203125 117.40625 180.203125 118.28125 C 180.203125 119.152344 179.492188 119.859375 178.621094 119.859375 Z M 180.339844 109.769531 L 175.234375 109.769531 L 175.234375 123.257812 L 182.207031 123.257812 L 182.207031 111.636719 C 182.207031 110.605469 181.371094 109.769531 180.339844 109.769531 " fill-opacity="1" fill-rule="nonzero"/><path fill="#ffffff" d="M 136.734375 134.410156 C 136.023438 134.410156 135.445312 133.832031 135.445312 133.121094 C 135.445312 132.410156 136.023438 131.832031 136.734375 131.832031 C 137.445312 131.832031 138.023438 132.410156 138.023438 133.121094 C 138.023438 133.832031 137.445312 134.410156 136.734375 134.410156 Z M 134.328125 136.8125 C 133.617188 136.8125 133.039062 136.238281 133.039062 135.523438 C 133.039062 134.816406 133.617188 134.238281 134.328125 134.238281 C 135.039062 134.238281 135.617188 134.816406 135.617188 135.523438 C 135.617188 136.238281 135.039062 136.8125 134.328125 136.8125 Z M 132.101562 142.097656 C 130.699219 142.097656 129.558594 140.957031 129.558594 139.554688 C 129.558594 138.152344 130.699219 137.007812 132.101562 137.007812 C 133.507812 137.007812 134.648438 138.152344 134.648438 139.554688 C 134.648438 140.957031 133.507812 142.097656 132.101562 142.097656 Z M 131.925781 131.832031 C 132.632812 131.832031 133.210938 132.410156 133.210938 133.121094 C 133.210938 133.832031 132.632812 134.410156 131.925781 134.410156 C 131.210938 134.410156 130.636719 133.832031 130.636719 133.121094 C 130.636719 132.410156 131.210938 131.832031 131.925781 131.832031 Z M 134.328125 129.425781 C 135.039062 129.425781 135.617188 130.003906 135.617188 130.714844 C 135.617188 131.425781 135.039062 132.003906 134.328125 132.003906 C 133.617188 132.003906 133.039062 131.425781 133.039062 130.714844 C 133.039062 130.003906 133.617188 129.425781 134.328125 129.425781 Z M 117.589844 142.097656 C 116.1875 142.097656 115.046875 140.957031 115.046875 139.554688 C 115.046875 138.152344 116.1875 137.007812 117.589844 137.007812 C 118.996094 137.007812 120.136719 138.152344 120.136719 139.554688 C 120.136719 140.957031 118.996094 142.097656 117.589844 142.097656 Z M 113.816406 136.328125 C 113.171875 136.328125 112.648438 135.804688 112.648438 135.164062 C 112.648438 134.871094 112.410156 134.632812 112.117188 134.632812 C 111.476562 134.632812 110.949219 134.109375 110.949219 133.464844 L 110.949219 132.777344 C 110.949219 132.132812 111.476562 131.609375 112.117188 131.609375 C 112.410156 131.609375 112.648438 131.371094 112.648438 131.078125 C 112.648438 130.433594 113.171875 129.910156 113.816406 129.910156 L 114.503906 129.910156 C 115.148438 129.910156 115.671875 130.433594 115.671875 131.078125 C 115.671875 131.371094 115.910156 131.609375 116.203125 131.609375 C 116.84375 131.609375 117.371094 132.132812 117.371094 132.777344 L 117.371094 133.464844 C 117.371094 134.109375 116.84375 134.632812 116.203125 134.632812 C 115.910156 134.632812 115.671875 134.871094 115.671875 135.164062 C 115.671875 135.804688 115.148438 136.328125 114.503906 136.328125 Z M 143.417969 147.382812 C 143.417969 147.378906 143.417969 147.378906 143.417969 147.375 L 141.402344 134.765625 C 140.875 130.613281 137.320312 127.476562 133.128906 127.476562 L 115.878906 127.476562 C 111.691406 127.476562 108.132812 130.613281 107.605469 134.757812 L 105.589844 147.382812 C 105.492188 148.160156 105.730469 148.941406 106.25 149.53125 C 106.765625 150.117188 107.511719 150.453125 108.292969 150.453125 C 110.460938 150.453125 112.394531 149.15625 113.214844 147.148438 L 114.144531 144.859375 C 114.445312 144.121094 115.316406 143.710938 116.042969 143.96875 C 117.492188 144.480469 119.089844 144.246094 120.542969 143.308594 C 120.839844 143.113281 121.101562 142.855469 121.300781 142.558594 C 121.894531 141.664062 122.222656 140.726562 122.265625 139.777344 C 122.324219 138.582031 123.296875 137.644531 124.476562 137.644531 L 125.246094 137.644531 C 126.429688 137.644531 127.402344 138.582031 127.460938 139.78125 C 127.503906 140.726562 127.828125 141.660156 128.425781 142.550781 C 128.621094 142.851562 128.882812 143.109375 129.183594 143.304688 C 130.449219 144.125 131.8125 144.410156 133.125 144.128906 C 133.890625 143.964844 134.652344 144.347656 134.9375 145.039062 L 135.796875 147.148438 C 136.613281 149.15625 138.542969 150.453125 140.710938 150.453125 C 141.496094 150.453125 142.242188 150.117188 142.757812 149.53125 C 143.277344 148.941406 143.515625 148.160156 143.417969 147.382812 " fill-opacity="1" fill-rule="nonzero"/><path fill="#ffffff" d="M 207.894531 97.734375 L 208.15625 101.804688 C 208.105469 101.78125 208.046875 101.769531 207.984375 101.769531 L 201.230469 101.769531 L 201.230469 101.277344 C 201.230469 100.191406 200.460938 99.285156 199.433594 99.074219 L 199.433594 90.945312 L 200.648438 90.945312 C 204.464844 90.945312 207.644531 93.929688 207.894531 97.734375 " fill-opacity="1" fill-rule="nonzero"/><path fill="#ffffff" d="M 197.640625 101.277344 C 197.640625 100.535156 198.242188 99.9375 198.980469 99.9375 C 199.71875 99.9375 200.320312 100.535156 200.320312 101.277344 L 200.320312 103.707031 C 200.320312 104.445312 199.71875 105.046875 198.980469 105.046875 C 198.242188 105.046875 197.640625 104.445312 197.640625 103.707031 L 197.640625 101.277344 " fill-opacity="1" fill-rule="nonzero"/><path fill="#ffffff" d="M 197.3125 90.945312 L 198.527344 90.945312 L 198.527344 99.074219 C 197.503906 99.285156 196.730469 100.191406 196.730469 101.277344 L 196.730469 101.769531 L 189.976562 101.769531 C 189.914062 101.769531 189.859375 101.78125 189.804688 101.804688 L 190.070312 97.734375 C 190.316406 93.929688 193.5 90.945312 197.3125 90.945312 " fill-opacity="1" fill-rule="nonzero"/><path fill="#ffffff" d="M 206.585938 120.546875 C 204.898438 122.34375 202.613281 123.335938 200.148438 123.335938 L 197.8125 123.335938 C 195.347656 123.335938 193.0625 122.34375 191.378906 120.546875 C 189.691406 118.75 188.851562 116.402344 189.015625 113.945312 L 189.75 102.617188 C 189.820312 102.65625 189.894531 102.679688 189.976562 102.679688 L 196.730469 102.679688 L 196.730469 103.707031 C 196.730469 104.949219 197.738281 105.957031 198.980469 105.957031 C 200.222656 105.957031 201.230469 104.949219 201.230469 103.707031 L 201.230469 102.679688 L 207.984375 102.679688 C 208.070312 102.679688 208.144531 102.65625 208.210938 102.617188 L 208.949219 113.945312 C 209.109375 116.402344 208.269531 118.75 206.585938 120.546875 " fill-opacity="1" fill-rule="nonzero"/><path fill="#ffffff" d="M 273.089844 224.9375 C 273.089844 225.40625 272.707031 225.785156 272.242188 225.785156 L 257.144531 225.785156 C 256.679688 225.785156 256.296875 225.40625 256.296875 224.9375 L 256.296875 192.21875 C 256.296875 191.75 256.679688 191.371094 257.144531 191.371094 L 272.242188 191.371094 C 272.707031 191.371094 273.089844 191.75 273.089844 192.21875 Z M 266.21875 227.839844 L 263.613281 227.839844 C 263.410156 227.839844 263.242188 227.671875 263.242188 227.464844 C 263.242188 227.261719 263.410156 227.09375 263.613281 227.09375 L 266.21875 227.09375 C 266.421875 227.09375 266.589844 227.261719 266.589844 227.464844 C 266.589844 227.671875 266.421875 227.839844 266.21875 227.839844 Z M 273.414062 189.773438 L 255.976562 189.773438 C 255.125 189.773438 254.4375 190.464844 254.4375 191.3125 L 254.4375 227.554688 C 254.4375 228.40625 255.125 229.09375 255.976562 229.09375 L 273.414062 229.09375 C 274.261719 229.09375 274.953125 228.40625 274.953125 227.554688 L 274.953125 191.3125 C 274.953125 190.464844 274.261719 189.773438 273.414062 189.773438 " fill-opacity="1" fill-rule="nonzero"/><path fill="#ffffff" d="M 265.476562 192.539062 C 265.453125 192.488281 265.433594 192.4375 265.398438 192.390625 C 265.371094 192.347656 265.332031 192.300781 265.296875 192.261719 C 265.257812 192.222656 265.210938 192.1875 265.167969 192.15625 C 265.121094 192.125 265.070312 192.097656 265.019531 192.082031 C 264.96875 192.058594 264.914062 192.042969 264.863281 192.03125 C 264.75 192.007812 264.636719 192.007812 264.527344 192.03125 C 264.480469 192.042969 264.421875 192.058594 264.371094 192.082031 C 264.320312 192.097656 264.269531 192.125 264.222656 192.15625 C 264.179688 192.1875 264.136719 192.222656 264.09375 192.261719 C 264.054688 192.300781 264.023438 192.347656 263.996094 192.390625 C 263.960938 192.4375 263.9375 192.488281 263.914062 192.539062 C 263.890625 192.589844 263.875 192.640625 263.863281 192.695312 C 263.851562 192.753906 263.847656 192.804688 263.847656 192.859375 C 263.847656 192.972656 263.867188 193.078125 263.914062 193.1875 C 263.953125 193.289062 264.015625 193.378906 264.09375 193.457031 C 264.257812 193.617188 264.464844 193.707031 264.699219 193.707031 C 264.917969 193.707031 265.132812 193.617188 265.296875 193.457031 C 265.375 193.378906 265.4375 193.289062 265.476562 193.1875 C 265.523438 193.078125 265.539062 192.972656 265.539062 192.859375 C 265.539062 192.804688 265.535156 192.753906 265.523438 192.695312 C 265.515625 192.640625 265.5 192.589844 265.476562 192.539062 " fill-opacity="1" fill-rule="nonzero"/><path fill="#ffffff" d="M 231.421875 134.636719 C 232.132812 134.671875 232.6875 135.257812 232.6875 135.96875 L 232.6875 142.320312 C 232.6875 143.035156 232.132812 143.621094 231.421875 143.65625 L 223.339844 144.046875 C 223.28125 144.039062 223.21875 144.039062 223.160156 144.054688 L 222.371094 144.09375 L 222.371094 134.199219 L 231.421875 134.636719 " fill-opacity="1" fill-rule="nonzero"/><path fill="#ffffff" d="M 220.417969 132.023438 C 221.210938 132.132812 221.90625 132.542969 222.382812 133.15625 L 221.875 133.132812 C 221.734375 133.125 221.59375 133.179688 221.492188 133.277344 C 221.386719 133.375 221.332031 133.511719 221.332031 133.652344 L 221.332031 144.636719 C 221.332031 144.78125 221.386719 144.917969 221.492188 145.015625 C 221.59375 145.113281 221.734375 145.164062 221.875 145.160156 L 222.324219 145.136719 C 221.851562 145.710938 221.171875 146.105469 220.417969 146.210938 L 219.714844 146.308594 C 219.867188 145.886719 219.953125 145.433594 219.953125 144.957031 L 219.953125 133.273438 C 219.953125 132.800781 219.867188 132.347656 219.714844 131.925781 L 220.417969 132.023438 " fill-opacity="1" fill-rule="nonzero"/><path fill="#ffffff" d="M 186.515625 143.65625 C 185.804688 143.621094 185.246094 143.035156 185.246094 142.320312 L 185.246094 135.96875 C 185.246094 135.257812 185.804688 134.671875 186.515625 134.636719 L 195.5625 134.199219 L 195.5625 144.09375 L 186.515625 143.65625 " fill-opacity="1" fill-rule="nonzero"/><path fill="#ffffff" d="M 197.519531 146.210938 C 196.761719 146.105469 196.085938 145.714844 195.605469 145.136719 L 196.058594 145.160156 C 196.203125 145.164062 196.339844 145.113281 196.445312 145.015625 C 196.546875 144.917969 196.605469 144.78125 196.605469 144.636719 L 196.605469 133.652344 C 196.605469 133.511719 196.546875 133.375 196.445312 133.277344 C 196.339844 133.179688 196.203125 133.125 196.058594 133.132812 L 195.558594 133.15625 C 196.035156 132.550781 196.730469 132.132812 197.519531 132.023438 L 198.332031 131.910156 C 198.175781 132.335938 198.089844 132.796875 198.089844 133.273438 L 198.089844 144.957031 C 198.089844 145.4375 198.175781 145.898438 198.332031 146.324219 L 197.519531 146.210938 " fill-opacity="1" fill-rule="nonzero"/><path fill="#ffffff" d="M 203.132812 144.75 C 202.671875 144.75 202.300781 144.378906 202.300781 143.917969 L 202.300781 134.316406 C 202.300781 133.855469 202.671875 133.480469 203.132812 133.480469 L 214.90625 133.480469 C 215.367188 133.480469 215.742188 133.855469 215.742188 134.316406 L 215.742188 143.917969 C 215.742188 144.378906 215.367188 144.75 214.90625 144.75 Z M 218.222656 146.871094 C 218.253906 146.722656 218.339844 146.597656 218.46875 146.523438 C 218.746094 146.066406 218.910156 145.53125 218.910156 144.957031 L 218.910156 133.273438 C 218.910156 132.695312 218.742188 132.15625 218.457031 131.695312 C 218.347656 131.625 218.269531 131.511719 218.238281 131.382812 C 217.683594 130.699219 216.839844 130.261719 215.898438 130.261719 L 202.140625 130.261719 C 200.480469 130.261719 199.128906 131.613281 199.128906 133.273438 L 199.128906 144.957031 C 199.128906 146.621094 200.480469 147.96875 202.140625 147.96875 L 215.898438 147.96875 C 216.832031 147.96875 217.667969 147.542969 218.222656 146.871094 " fill-opacity="1" fill-rule="nonzero"/><path fill="#ffffff" d="M 119.601562 187.417969 C 119.601562 187.976562 119.417969 188.496094 119.109375 188.808594 C 118.988281 188.929688 118.796875 189.070312 118.550781 189.070312 L 118.082031 189.070312 C 117.515625 189.070312 117.03125 188.324219 117.03125 187.441406 L 117.023438 186.113281 L 119.59375 186.113281 L 119.601562 187.417969 " fill-opacity="1" fill-rule="nonzero"/><path fill="#ffffff" d="M 127.652344 194.226562 L 127.652344 194.53125 L 108.847656 194.53125 L 108.847656 194.226562 C 108.847656 193.433594 109.492188 192.789062 110.28125 192.789062 L 126.214844 192.789062 C 127.007812 192.789062 127.652344 193.433594 127.652344 194.226562 " fill-opacity="1" fill-rule="nonzero"/><path fill="#ffffff" d="M 113.921875 192.003906 L 114.898438 186.113281 L 116.234375 186.113281 L 116.242188 187.445312 C 116.246094 188.796875 117.054688 189.859375 118.082031 189.859375 L 118.550781 189.859375 C 118.957031 189.859375 119.34375 189.6875 119.667969 189.363281 C 120.128906 188.902344 120.390625 188.191406 120.386719 187.414062 L 120.382812 186.113281 L 121.628906 186.113281 L 122.785156 192.003906 L 113.921875 192.003906 " fill-opacity="1" fill-rule="nonzero"/><path fill="#ffffff" d="M 138.417969 182.539062 C 138.417969 182.585938 138.378906 182.621094 138.335938 182.621094 L 98.160156 182.621094 C 98.117188 182.621094 98.078125 182.585938 98.078125 182.539062 L 98.078125 160.046875 C 98.078125 160 98.117188 159.964844 98.160156 159.964844 L 138.335938 159.964844 C 138.378906 159.964844 138.417969 160 138.417969 160.046875 Z M 139.984375 157.511719 L 96.511719 157.511719 C 96.023438 157.511719 95.628906 157.910156 95.628906 158.394531 L 95.628906 184.191406 C 95.628906 184.679688 96.023438 185.074219 96.511719 185.074219 L 116.621094 185.074219 C 116.625 185.074219 116.625 185.074219 116.625 185.074219 C 116.628906 185.074219 116.628906 185.074219 116.628906 185.074219 L 139.984375 185.074219 C 140.472656 185.074219 140.867188 184.679688 140.867188 184.191406 L 140.867188 158.394531 C 140.867188 157.910156 140.472656 157.511719 139.984375 157.511719 " fill-opacity="1" fill-rule="nonzero"/><path fill="#ffffff" d="M 187.640625 218.441406 C 187.640625 218.179688 187.425781 217.96875 187.164062 217.96875 L 183.667969 217.96875 C 183.410156 217.96875 183.195312 218.179688 183.195312 218.441406 L 183.195312 219.242188 L 187.640625 219.242188 L 187.640625 218.441406 " fill-opacity="1" fill-rule="nonzero"/><path fill="#ffffff" d="M 166.902344 217.96875 L 163.59375 217.96875 L 163.59375 219.242188 L 166.902344 219.242188 L 166.902344 217.96875 " fill-opacity="1" fill-rule="nonzero"/><path fill="#ffffff" d="M 163.136719 222.800781 C 163.125 222.800781 163.113281 222.808594 163.113281 222.824219 L 163.113281 224.863281 C 163.113281 224.875 163.125 224.886719 163.136719 224.886719 L 167.414062 224.886719 C 167.429688 224.886719 167.4375 224.875 167.4375 224.863281 L 167.4375 222.824219 C 167.4375 222.808594 167.429688 222.800781 167.414062 222.800781 L 163.136719 222.800781 " fill-opacity="1" fill-rule="nonzero"/><path fill="#ffffff" d="M 187.640625 224.863281 C 187.640625 224.875 187.628906 224.886719 187.617188 224.886719 L 184.335938 224.886719 C 184.320312 224.886719 184.3125 224.875 184.3125 224.863281 L 184.3125 222.824219 C 184.3125 222.808594 184.320312 222.800781 184.335938 222.800781 L 187.617188 222.800781 C 187.628906 222.800781 187.640625 222.808594 187.640625 222.824219 Z M 168.242188 224.863281 C 168.242188 225.320312 167.871094 225.691406 167.414062 225.691406 L 163.136719 225.691406 C 162.683594 225.691406 162.3125 225.320312 162.3125 224.863281 L 162.3125 222.824219 C 162.3125 222.367188 162.683594 221.996094 163.136719 221.996094 L 167.414062 221.996094 C 167.871094 221.996094 168.242188 222.367188 168.242188 222.824219 Z M 189.859375 220.046875 L 160.648438 220.046875 C 160.230469 220.046875 159.890625 220.386719 159.890625 220.804688 L 159.890625 229.175781 L 169.851562 229.175781 C 170.058594 225.773438 172.890625 223.074219 176.339844 223.074219 C 179.789062 223.074219 182.621094 225.773438 182.828125 229.175781 L 190.617188 229.175781 L 190.617188 220.804688 C 190.617188 220.386719 190.277344 220.046875 189.859375 220.046875 " fill-opacity="1" fill-rule="nonzero"/><path fill="#ffffff" d="M 176.339844 227.683594 C 177.382812 227.683594 178.230469 228.535156 178.230469 229.578125 C 178.230469 230.621094 177.382812 231.46875 176.339844 231.46875 C 175.296875 231.46875 174.449219 230.621094 174.449219 229.578125 C 174.449219 228.535156 175.296875 227.683594 176.339844 227.683594 Z M 176.339844 232.585938 C 178 232.585938 179.347656 231.234375 179.347656 229.578125 C 179.347656 227.917969 178 226.566406 176.339844 226.566406 C 174.683594 226.566406 173.332031 227.917969 173.332031 229.578125 C 173.332031 231.234375 174.683594 232.585938 176.339844 232.585938 " fill-opacity="1" fill-rule="nonzero"/><path fill="#ffffff" d="M 176.339844 225.761719 C 178.441406 225.761719 180.152344 227.472656 180.152344 229.578125 C 180.152344 231.679688 178.441406 233.390625 176.339844 233.390625 C 174.238281 233.390625 172.527344 231.679688 172.527344 229.578125 C 172.527344 227.472656 174.238281 225.761719 176.339844 225.761719 Z M 176.339844 235.277344 C 179.480469 235.277344 182.039062 232.71875 182.039062 229.578125 C 182.039062 226.433594 179.480469 223.878906 176.339844 223.878906 C 173.199219 223.878906 170.640625 226.433594 170.640625 229.578125 C 170.640625 232.71875 173.199219 235.277344 176.339844 235.277344 " fill-opacity="1" fill-rule="nonzero"/><path fill="#ffffff" d="M 176.339844 236.078125 C 172.890625 236.078125 170.058594 233.378906 169.851562 229.976562 L 159.890625 229.976562 L 159.890625 238.347656 C 159.890625 238.765625 160.230469 239.105469 160.648438 239.105469 L 189.859375 239.105469 C 190.277344 239.105469 190.617188 238.765625 190.617188 238.347656 L 190.617188 229.976562 L 182.828125 229.976562 C 182.621094 233.378906 179.789062 236.078125 176.339844 236.078125 " fill-opacity="1" fill-rule="nonzero"/><path fill="#ffffff" d="M 238.78125 262.496094 C 238.78125 262.527344 238.753906 262.554688 238.71875 262.554688 L 216.890625 262.554688 C 216.855469 262.554688 216.828125 262.527344 216.828125 262.496094 L 216.828125 231.839844 C 216.828125 231.804688 216.855469 231.777344 216.890625 231.777344 L 238.71875 231.777344 C 238.753906 231.777344 238.78125 231.804688 238.78125 231.839844 Z M 236.8125 265.488281 L 234.636719 265.488281 C 234.320312 265.488281 234.0625 265.230469 234.0625 264.910156 C 234.0625 264.59375 234.320312 264.335938 234.636719 264.335938 L 236.8125 264.335938 C 237.132812 264.335938 237.390625 264.59375 237.390625 264.910156 C 237.390625 265.230469 237.132812 265.488281 236.8125 265.488281 Z M 229.464844 266.269531 L 226.722656 266.269531 C 226.03125 266.269531 225.46875 265.707031 225.46875 265.015625 C 225.46875 264.324219 226.03125 263.761719 226.722656 263.761719 L 229.464844 263.761719 C 230.15625 263.761719 230.71875 264.324219 230.71875 265.015625 C 230.71875 265.707031 230.15625 266.269531 229.464844 266.269531 Z M 221.550781 265.488281 L 219.375 265.488281 C 219.054688 265.488281 218.796875 265.230469 218.796875 264.910156 C 218.796875 264.59375 219.054688 264.335938 219.375 264.335938 L 221.550781 264.335938 C 221.867188 264.335938 222.125 264.59375 222.125 264.910156 C 222.125 265.230469 221.867188 265.488281 221.550781 265.488281 Z M 227.238281 229.941406 C 227.25 229.902344 227.257812 229.867188 227.273438 229.832031 C 227.285156 229.796875 227.304688 229.765625 227.324219 229.730469 C 227.347656 229.703125 227.371094 229.671875 227.398438 229.644531 C 227.421875 229.621094 227.453125 229.59375 227.484375 229.574219 C 227.515625 229.550781 227.550781 229.535156 227.585938 229.519531 C 227.621094 229.507812 227.65625 229.492188 227.691406 229.488281 C 227.765625 229.472656 227.84375 229.472656 227.917969 229.488281 C 227.953125 229.492188 227.992188 229.507812 228.023438 229.519531 C 228.058594 229.535156 228.09375 229.550781 228.125 229.574219 C 228.15625 229.59375 228.1875 229.621094 228.210938 229.644531 C 228.238281 229.671875 228.265625 229.703125 228.285156 229.730469 C 228.304688 229.765625 228.320312 229.796875 228.335938 229.832031 C 228.351562 229.867188 228.363281 229.902344 228.371094 229.941406 C 228.378906 229.976562 228.378906 230.015625 228.378906 230.050781 C 228.378906 230.089844 228.378906 230.128906 228.371094 230.164062 C 228.363281 230.203125 228.351562 230.238281 228.335938 230.273438 C 228.320312 230.308594 228.304688 230.339844 228.285156 230.375 C 228.265625 230.40625 228.238281 230.433594 228.210938 230.460938 C 228.1875 230.488281 228.15625 230.511719 228.125 230.535156 C 228.09375 230.554688 228.058594 230.574219 228.023438 230.585938 C 227.992188 230.601562 227.953125 230.609375 227.917969 230.621094 C 227.878906 230.625 227.84375 230.628906 227.808594 230.628906 C 227.765625 230.628906 227.730469 230.625 227.691406 230.621094 C 227.65625 230.609375 227.621094 230.601562 227.585938 230.585938 C 227.550781 230.574219 227.515625 230.554688 227.484375 230.535156 C 227.453125 230.511719 227.421875 230.488281 227.398438 230.460938 C 227.371094 230.433594 227.347656 230.40625 227.324219 230.375 C 227.304688 230.339844 227.285156 230.308594 227.273438 230.273438 C 227.257812 230.238281 227.25 230.203125 227.238281 230.164062 C 227.230469 230.128906 227.230469 230.089844 227.230469 230.050781 C 227.230469 230.015625 227.230469 229.976562 227.238281 229.941406 Z M 240.339844 228.898438 L 215.269531 228.898438 C 214.824219 228.898438 214.457031 229.265625 214.457031 229.714844 L 214.457031 266.6875 C 214.457031 267.136719 214.824219 267.5 215.269531 267.5 L 240.339844 267.5 C 240.789062 267.5 241.152344 267.136719 241.152344 266.6875 L 241.152344 229.714844 C 241.152344 229.265625 240.789062 228.898438 240.339844 228.898438 " fill-opacity="1" fill-rule="nonzero"/><path fill="#ffffff" d="M 229.464844 264.453125 L 226.722656 264.453125 C 226.414062 264.453125 226.164062 264.707031 226.164062 265.015625 C 226.164062 265.324219 226.414062 265.578125 226.722656 265.578125 L 229.464844 265.578125 C 229.773438 265.578125 230.027344 265.324219 230.027344 265.015625 C 230.027344 264.707031 229.773438 264.453125 229.464844 264.453125 " fill-opacity="1" fill-rule="nonzero"/><path fill="#ffffff" d="M 181.605469 281.34375 C 181.605469 281.675781 181.335938 281.941406 181.003906 281.941406 C 180.675781 281.941406 180.40625 281.675781 180.40625 281.34375 L 180.40625 279.390625 L 181.605469 279.390625 L 181.605469 281.34375 " fill-opacity="1" fill-rule="nonzero"/><path fill="#ffffff" d="M 194.335938 281.34375 C 194.335938 281.675781 194.066406 281.941406 193.734375 281.941406 C 193.40625 281.941406 193.136719 281.675781 193.136719 281.34375 L 193.136719 279.390625 L 194.335938 279.390625 L 194.335938 281.34375 " fill-opacity="1" fill-rule="nonzero"/><path fill="#ffffff" d="M 187.65625 264.75 C 185.738281 264.75 184.183594 263.191406 184.183594 261.277344 C 184.183594 259.363281 185.738281 257.804688 187.65625 257.804688 C 189.570312 257.804688 191.128906 259.363281 191.128906 261.277344 C 191.128906 263.191406 189.570312 264.75 187.65625 264.75 Z M 187.65625 256.414062 C 184.976562 256.414062 182.792969 258.597656 182.792969 261.277344 C 182.792969 263.957031 184.976562 266.136719 187.65625 266.136719 C 190.335938 266.136719 192.515625 263.957031 192.515625 261.277344 C 192.515625 258.597656 190.335938 256.414062 187.65625 256.414062 " fill-opacity="1" fill-rule="nonzero"/><path fill="#ffffff" d="M 187.65625 267.046875 C 184.472656 267.046875 181.882812 264.460938 181.882812 261.277344 C 181.882812 258.097656 184.472656 255.507812 187.65625 255.507812 C 190.835938 255.507812 193.425781 258.097656 193.425781 261.277344 C 193.425781 264.460938 190.835938 267.046875 187.65625 267.046875 Z M 177.066406 253.550781 L 177.066406 278.480469 L 198.246094 278.480469 L 198.246094 253.550781 L 177.066406 253.550781 " fill-opacity="1" fill-rule="nonzero"/><path fill="#ffffff" d="M 169.726562 271.335938 C 168.503906 271.335938 167.507812 270.339844 167.507812 269.117188 C 167.507812 267.894531 168.503906 266.894531 169.726562 266.894531 C 170.953125 266.894531 171.949219 267.894531 171.949219 269.117188 C 171.949219 270.339844 170.953125 271.335938 169.726562 271.335938 Z M 169.726562 264.25 C 167.125 264.25 165.003906 266.367188 165.003906 268.972656 L 165.003906 275.667969 C 165.003906 278.273438 167.125 280.390625 169.726562 280.390625 C 172.335938 280.390625 174.453125 278.273438 174.453125 275.667969 L 174.453125 268.972656 C 174.453125 266.367188 172.335938 264.25 169.726562 264.25 " fill-opacity="1" fill-rule="nonzero"/><path fill="#ffffff" d="M 174 281.875 L 165.457031 281.875 C 165.207031 281.875 165.003906 281.667969 165.003906 281.417969 C 165.003906 281.167969 165.207031 280.964844 165.457031 280.964844 L 174 280.964844 C 174.25 280.964844 174.453125 281.167969 174.453125 281.417969 C 174.453125 281.667969 174.25 281.875 174 281.875 " fill-opacity="1" fill-rule="nonzero"/><path fill="#ffffff" d="M 203.054688 269.117188 C 203.054688 267.894531 204.050781 266.894531 205.273438 266.894531 C 206.5 266.894531 207.496094 267.894531 207.496094 269.117188 C 207.496094 270.339844 206.5 271.335938 205.273438 271.335938 C 204.050781 271.335938 203.054688 270.339844 203.054688 269.117188 Z M 200.550781 268.972656 L 200.550781 275.667969 C 200.550781 278.273438 202.667969 280.390625 205.273438 280.390625 C 207.878906 280.390625 210 278.273438 210 275.667969 L 210 268.972656 C 210 266.367188 207.878906 264.25 205.273438 264.25 C 202.667969 264.25 200.550781 266.367188 200.550781 268.972656 " fill-opacity="1" fill-rule="nonzero"/><path fill="#ffffff" d="M 201.003906 281.875 L 209.542969 281.875 C 209.796875 281.875 210 281.667969 210 281.417969 C 210 281.167969 209.796875 280.964844 209.542969 280.964844 L 201.003906 280.964844 C 200.753906 280.964844 200.550781 281.167969 200.550781 281.417969 C 200.550781 281.667969 200.753906 281.875 201.003906 281.875 " fill-opacity="1" fill-rule="nonzero"/><path fill="#ffffff" d="M 108.089844 233.957031 C 107.210938 233.839844 106.503906 233.207031 106.289062 232.34375 L 104.808594 226.394531 C 104.59375 225.53125 104.921875 224.636719 105.648438 224.121094 L 105.75 224.046875 C 105.769531 224.039062 105.789062 224.035156 105.804688 224.023438 C 105.839844 224.003906 105.871094 223.976562 105.894531 223.945312 L 107.386719 222.878906 L 110.210938 234.242188 L 108.089844 233.957031 " fill-opacity="1" fill-rule="nonzero"/><path fill="#ffffff" d="M 109.4375 220.21875 L 109.582031 220.183594 C 109.742188 220.144531 109.902344 220.125 110.058594 220.125 C 110.941406 220.125 111.746094 220.726562 111.972656 221.621094 L 114.847656 233.207031 C 114.976562 233.71875 114.898438 234.246094 114.625 234.699219 C 114.351562 235.148438 113.921875 235.46875 113.410156 235.59375 L 113.265625 235.628906 C 112.210938 235.890625 111.140625 235.246094 110.878906 234.191406 L 108.191406 223.378906 L 108 222.609375 C 107.871094 222.097656 107.953125 221.566406 108.222656 221.117188 C 108.496094 220.667969 108.925781 220.347656 109.4375 220.21875 " fill-opacity="1" fill-rule="nonzero"/><path fill="#ffffff" d="M 108.1875 218.953125 C 108.1875 219.332031 108.210938 219.71875 108.246094 220.097656 C 108.019531 220.289062 107.816406 220.511719 107.660156 220.777344 C 107.40625 221.195312 107.28125 221.664062 107.285156 222.140625 L 105.777344 223.21875 C 105.296875 221.835938 105.050781 220.402344 105.050781 218.953125 C 105.050781 218.667969 105.21875 218.398438 105.507812 218.195312 C 105.800781 218.46875 106.191406 218.632812 106.621094 218.632812 C 107.046875 218.632812 107.4375 218.46875 107.726562 218.195312 C 108.019531 218.398438 108.1875 218.667969 108.1875 218.953125 " fill-opacity="1" fill-rule="nonzero"/><path fill="#ffffff" d="M 121.945312 200.964844 C 114.03125 200.964844 107.59375 208.15625 107.59375 217 C 107.59375 217.539062 107.15625 217.972656 106.621094 217.972656 C 106.082031 217.972656 105.644531 217.539062 105.644531 217 C 105.644531 207.082031 112.957031 199.015625 121.945312 199.015625 C 130.933594 199.015625 138.246094 207.082031 138.246094 217 C 138.246094 217.539062 137.808594 217.972656 137.269531 217.972656 C 136.730469 217.972656 136.296875 217.539062 136.296875 217 C 136.296875 208.15625 129.855469 200.964844 121.945312 200.964844 " fill-opacity="1" fill-rule="nonzero"/><path fill="#ffffff" d="M 135.703125 218.953125 C 135.703125 218.671875 135.871094 218.398438 136.160156 218.195312 C 136.453125 218.46875 136.839844 218.632812 137.269531 218.632812 C 137.699219 218.632812 138.089844 218.46875 138.378906 218.195312 C 138.675781 218.402344 138.835938 218.667969 138.835938 218.953125 C 138.835938 220.402344 138.589844 221.835938 138.109375 223.21875 L 136.605469 222.140625 C 136.605469 221.664062 136.480469 221.195312 136.230469 220.777344 C 136.070312 220.511719 135.871094 220.289062 135.640625 220.097656 C 135.679688 219.71875 135.703125 219.332031 135.703125 218.953125 " fill-opacity="1" fill-rule="nonzero"/><path fill="#ffffff" d="M 133.011719 234.191406 C 132.746094 235.246094 131.675781 235.890625 130.621094 235.628906 L 130.476562 235.59375 C 129.421875 235.332031 128.777344 234.261719 129.039062 233.207031 L 131.917969 221.621094 C 132.140625 220.726562 132.945312 220.125 133.832031 220.125 C 133.988281 220.125 134.148438 220.144531 134.308594 220.183594 L 134.453125 220.21875 C 134.960938 220.347656 135.394531 220.667969 135.664062 221.117188 C 135.9375 221.566406 136.015625 222.097656 135.890625 222.609375 L 135.695312 223.378906 L 133.011719 234.191406 " fill-opacity="1" fill-rule="nonzero"/><path fill="#ffffff" d="M 139.082031 226.394531 L 137.601562 232.34375 C 137.386719 233.207031 136.679688 233.839844 135.796875 233.957031 L 133.679688 234.242188 L 135.089844 228.558594 L 136.5 222.878906 L 138.242188 224.121094 C 138.964844 224.636719 139.292969 225.53125 139.082031 226.394531 " fill-opacity="1" fill-rule="nonzero"/><path fill="#ffffff" d="M 136.472656 244.753906 L 134.816406 244.753906 C 134.722656 244.753906 134.648438 244.832031 134.648438 244.921875 L 134.648438 246.578125 C 134.648438 246.671875 134.722656 246.746094 134.816406 246.746094 L 136.472656 246.746094 C 136.566406 246.746094 136.640625 246.671875 136.640625 246.578125 L 136.640625 244.921875 C 136.640625 244.832031 136.566406 244.753906 136.472656 244.753906 " fill-opacity="1" fill-rule="nonzero"/><path fill="#ffffff" d="M 144.167969 251.210938 C 142.753906 251.210938 141.601562 250.058594 141.601562 248.644531 C 141.601562 247.230469 142.753906 246.078125 144.167969 246.078125 C 145.582031 246.078125 146.734375 247.230469 146.734375 248.644531 C 146.734375 250.058594 145.582031 251.210938 144.167969 251.210938 Z M 144.167969 244 C 141.609375 244 139.523438 246.082031 139.523438 248.644531 C 139.523438 251.203125 141.609375 253.289062 144.167969 253.289062 C 146.730469 253.289062 148.8125 251.203125 148.8125 248.644531 C 148.8125 246.082031 146.730469 244 144.167969 244 " fill-opacity="1" fill-rule="nonzero"/><path fill="#ffffff" d="M 144.167969 253.945312 C 141.246094 253.945312 138.867188 251.566406 138.867188 248.644531 C 138.867188 245.722656 141.246094 243.34375 144.167969 243.34375 C 147.09375 243.34375 149.46875 245.722656 149.46875 248.644531 C 149.46875 251.566406 147.09375 253.945312 144.167969 253.945312 Z M 137.296875 246.578125 C 137.296875 247.03125 136.925781 247.402344 136.472656 247.402344 L 134.816406 247.402344 C 134.363281 247.402344 133.992188 247.03125 133.992188 246.578125 L 133.992188 244.921875 C 133.992188 244.46875 134.363281 244.097656 134.816406 244.097656 L 136.472656 244.097656 C 136.925781 244.097656 137.296875 244.46875 137.296875 244.921875 Z M 148.175781 241.890625 L 134.667969 241.890625 C 133.144531 241.890625 131.902344 243.132812 131.902344 244.660156 L 131.902344 258.921875 C 131.902344 260.445312 133.144531 261.6875 134.667969 261.6875 L 148.175781 261.6875 C 149.703125 261.6875 150.945312 260.445312 150.945312 258.921875 L 150.945312 244.660156 C 150.945312 243.132812 149.703125 241.890625 148.175781 241.890625 " fill-opacity="1" fill-rule="nonzero"/><path fill="#ffffff" d="M 142.519531 262.148438 L 142.519531 264.203125 L 140.328125 264.203125 L 140.328125 262.148438 L 142.519531 262.148438 " fill-opacity="1" fill-rule="nonzero"/><path fill="#ffffff" d="M 145.921875 267.9375 C 146.21875 267.9375 146.457031 268.175781 146.457031 268.46875 L 146.457031 269.121094 L 136.390625 269.121094 L 136.390625 268.46875 C 136.390625 268.175781 136.628906 267.9375 136.925781 267.9375 L 138.035156 267.9375 C 138.214844 267.9375 138.363281 267.789062 138.363281 267.609375 L 138.363281 265.722656 C 138.363281 265.195312 138.792969 264.765625 139.320312 264.765625 L 143.527344 264.765625 C 144.054688 264.765625 144.484375 265.195312 144.484375 265.722656 L 144.484375 267.609375 C 144.484375 267.789062 144.632812 267.9375 144.8125 267.9375 L 145.921875 267.9375 " fill-opacity="1" fill-rule="nonzero"/><path fill="#ffffff" d="M 153.0625 265.765625 L 144.941406 265.765625 L 144.941406 265.722656 C 144.941406 265.414062 144.855469 265.128906 144.703125 264.882812 L 153.0625 264.882812 L 153.0625 265.765625 " fill-opacity="1" fill-rule="nonzero"/><path fill="#ffffff" d="M 155.796875 267.007812 L 153.503906 266.136719 L 153.503906 264.507812 L 155.796875 263.640625 C 156.027344 263.550781 156.273438 263.722656 156.273438 263.96875 L 156.273438 266.675781 C 156.273438 266.921875 156.027344 267.09375 155.796875 267.007812 " fill-opacity="1" fill-rule="nonzero"/><path fill="#ffffff" d="M 249.769531 142.589844 L 253.425781 142.589844 L 253.425781 140.300781 L 249.769531 140.300781 L 249.769531 142.589844 " fill-opacity="1" fill-rule="nonzero"/><path fill="#ffffff" d="M 249.769531 145.539062 L 253.425781 145.539062 L 253.425781 143.25 L 249.769531 143.25 L 249.769531 145.539062 " fill-opacity="1" fill-rule="nonzero"/><path fill="#ffffff" d="M 254.304688 151.441406 L 257.964844 151.441406 L 257.964844 149.152344 L 254.304688 149.152344 L 254.304688 151.441406 " fill-opacity="1" fill-rule="nonzero"/><path fill="#ffffff" d="M 254.304688 145.539062 L 257.964844 145.539062 L 257.964844 143.25 L 254.304688 143.25 L 254.304688 145.539062 " fill-opacity="1" fill-rule="nonzero"/><path fill="#ffffff" d="M 254.304688 148.492188 L 257.964844 148.492188 L 257.964844 146.203125 L 254.304688 146.203125 L 254.304688 148.492188 " fill-opacity="1" fill-rule="nonzero"/><path fill="#ffffff" d="M 245.238281 142.589844 L 248.898438 142.589844 L 248.898438 140.300781 L 245.238281 140.300781 L 245.238281 142.589844 " fill-opacity="1" fill-rule="nonzero"/><path fill="#ffffff" d="M 249.769531 148.492188 L 253.425781 148.492188 L 253.425781 146.203125 L 249.769531 146.203125 L 249.769531 148.492188 " fill-opacity="1" fill-rule="nonzero"/><path fill="#ffffff" d="M 249.769531 151.441406 L 253.425781 151.441406 L 253.425781 149.152344 L 249.769531 149.152344 L 249.769531 151.441406 " fill-opacity="1" fill-rule="nonzero"/><path fill="#ffffff" d="M 245.238281 145.539062 L 248.898438 145.539062 L 248.898438 143.25 L 245.238281 143.25 L 245.238281 145.539062 " fill-opacity="1" fill-rule="nonzero"/><path fill="#ffffff" d="M 254.953125 137.894531 L 257.964844 138.273438 L 257.964844 136.964844 L 254.953125 136.964844 L 254.953125 137.894531 " fill-opacity="1" fill-rule="nonzero"/><path fill="#ffffff" d="M 254.304688 142.589844 L 257.964844 142.589844 L 257.964844 140.300781 L 254.304688 140.300781 L 254.304688 142.589844 " fill-opacity="1" fill-rule="nonzero"/><path fill="#ffffff" d="M 258.625 134.78125 C 258.625 135.164062 258.316406 135.472656 257.9375 135.472656 L 245.386719 135.472656 C 245.007812 135.472656 244.699219 135.164062 244.699219 134.78125 L 244.699219 123.714844 C 244.699219 123.332031 245.007812 123.023438 245.386719 123.023438 L 257.9375 123.023438 C 258.316406 123.023438 258.625 123.332031 258.625 123.714844 Z M 258.625 138.652344 C 258.625 138.746094 258.585938 138.835938 258.515625 138.898438 C 258.453125 138.953125 258.375 138.980469 258.296875 138.980469 C 258.28125 138.980469 258.269531 138.980469 258.253906 138.980469 L 254.578125 138.515625 C 254.414062 138.496094 254.285156 138.355469 254.285156 138.1875 L 254.285156 136.632812 C 254.285156 136.449219 254.4375 136.300781 254.621094 136.300781 L 258.296875 136.300781 C 258.480469 136.300781 258.625 136.449219 258.625 136.632812 Z M 249.773438 137.640625 C 249.773438 136.925781 250.578125 136.367188 251.597656 136.367188 C 252.625 136.367188 253.425781 136.925781 253.425781 137.640625 C 253.425781 138.355469 252.625 138.914062 251.597656 138.914062 C 250.578125 138.914062 249.773438 138.355469 249.773438 137.640625 Z M 258.625 142.921875 L 258.625 151.773438 C 258.625 151.957031 258.480469 152.105469 258.296875 152.105469 L 244.90625 152.105469 C 244.722656 152.105469 244.574219 151.957031 244.574219 151.773438 L 244.574219 139.96875 C 244.574219 139.785156 244.722656 139.636719 244.90625 139.636719 L 258.296875 139.636719 C 258.480469 139.636719 258.625 139.785156 258.625 139.96875 Z M 244.699219 136.632812 C 244.699219 136.449219 244.84375 136.300781 245.03125 136.300781 L 248.707031 136.300781 C 248.890625 136.300781 249.039062 136.449219 249.039062 136.632812 L 249.039062 138.1875 C 249.039062 138.355469 248.914062 138.496094 248.746094 138.515625 L 245.070312 138.980469 C 245.058594 138.980469 245.042969 138.980469 245.03125 138.980469 C 244.949219 138.980469 244.871094 138.953125 244.808594 138.898438 C 244.738281 138.835938 244.699219 138.746094 244.699219 138.652344 Z M 258.960938 121.441406 L 244.363281 121.441406 C 243.535156 121.441406 242.863281 122.113281 242.863281 122.941406 L 242.863281 152.074219 C 242.863281 152.902344 243.535156 153.574219 244.363281 153.574219 L 258.960938 153.574219 C 259.789062 153.574219 260.460938 152.902344 260.460938 152.074219 L 260.460938 122.941406 C 260.460938 122.113281 259.789062 121.441406 258.960938 121.441406 " fill-opacity="1" fill-rule="nonzero"/><path fill="#ffffff" d="M 248.375 136.964844 L 245.359375 136.964844 L 245.359375 138.273438 L 248.375 137.894531 L 248.375 136.964844 " fill-opacity="1" fill-rule="nonzero"/><path fill="#ffffff" d="M 245.238281 148.492188 L 248.898438 148.492188 L 248.898438 146.203125 L 245.238281 146.203125 L 245.238281 148.492188 " fill-opacity="1" fill-rule="nonzero"/><path fill="#ffffff" d="M 252.761719 137.640625 C 252.761719 137.351562 252.265625 137.03125 251.597656 137.03125 C 250.933594 137.03125 250.4375 137.351562 250.4375 137.640625 C 250.4375 137.929688 250.933594 138.253906 251.597656 138.253906 C 252.265625 138.253906 252.761719 137.929688 252.761719 137.640625 " fill-opacity="1" fill-rule="nonzero"/><path fill="#ffffff" d="M 245.238281 151.441406 L 248.898438 151.441406 L 248.898438 149.152344 L 245.238281 149.152344 L 245.238281 151.441406 " fill-opacity="1" fill-rule="nonzero"/><path fill="#ffffff" d="M 221.609375 215.761719 L 221.609375 212.308594 C 222.277344 212.414062 222.960938 212.472656 223.660156 212.472656 C 224.164062 212.472656 224.664062 212.441406 225.152344 212.382812 L 225.152344 215.761719 L 223.570312 215.761719 C 223.445312 215.761719 223.316406 215.761719 223.191406 215.761719 L 221.609375 215.761719 " fill-opacity="1" fill-rule="nonzero"/><path fill="#ffffff" d="M 233.472656 219.933594 L 213.289062 219.933594 L 213.289062 219.042969 C 216.410156 217.4375 219.8125 216.625 223.222656 216.597656 L 223.539062 216.597656 C 226.949219 216.625 230.351562 217.4375 233.472656 219.042969 L 233.472656 219.933594 " fill-opacity="1" fill-rule="nonzero"/><path fill="#ffffff" d="M 223.589844 201.921875 C 222.402344 201.921875 221.4375 200.957031 221.4375 199.773438 C 221.4375 198.585938 222.402344 197.621094 223.589844 197.621094 C 224.773438 197.621094 225.738281 198.585938 225.738281 199.773438 C 225.738281 200.957031 224.773438 201.921875 223.589844 201.921875 Z M 223.589844 194.78125 C 220.835938 194.78125 218.597656 197.019531 218.597656 199.773438 C 218.597656 202.523438 220.835938 204.761719 223.589844 204.761719 C 226.339844 204.761719 228.578125 202.523438 228.578125 199.773438 C 228.578125 197.019531 226.339844 194.78125 223.589844 194.78125 " fill-opacity="1" fill-rule="nonzero"/><path fill="#ffffff" d="M 223.589844 205.597656 C 220.375 205.597656 217.761719 202.984375 217.761719 199.773438 C 217.761719 196.558594 220.375 193.945312 223.589844 193.945312 C 226.800781 193.945312 229.414062 196.558594 229.414062 199.773438 C 229.414062 202.984375 226.800781 205.597656 223.589844 205.597656 Z M 222.96875 190.390625 C 223.015625 190.347656 223.066406 190.304688 223.117188 190.269531 C 223.167969 190.234375 223.226562 190.207031 223.289062 190.179688 C 223.347656 190.15625 223.40625 190.140625 223.46875 190.125 C 223.59375 190.101562 223.722656 190.101562 223.851562 190.125 C 223.910156 190.140625 223.972656 190.15625 224.03125 190.179688 C 224.09375 190.207031 224.148438 190.234375 224.203125 190.269531 C 224.253906 190.304688 224.304688 190.347656 224.351562 190.390625 C 224.53125 190.574219 224.636719 190.824219 224.636719 191.082031 C 224.636719 191.144531 224.628906 191.207031 224.617188 191.273438 C 224.601562 191.335938 224.585938 191.394531 224.5625 191.453125 C 224.535156 191.511719 224.503906 191.570312 224.472656 191.625 C 224.4375 191.675781 224.394531 191.726562 224.351562 191.773438 C 224.167969 191.953125 223.917969 192.058594 223.660156 192.058594 C 223.597656 192.058594 223.53125 192.050781 223.46875 192.035156 C 223.40625 192.027344 223.347656 192.003906 223.289062 191.980469 C 223.226562 191.960938 223.167969 191.929688 223.117188 191.890625 C 223.066406 191.859375 223.015625 191.816406 222.96875 191.773438 C 222.925781 191.726562 222.882812 191.675781 222.851562 191.625 C 222.8125 191.570312 222.78125 191.511719 222.757812 191.453125 C 222.734375 191.394531 222.714844 191.335938 222.703125 191.273438 C 222.691406 191.207031 222.683594 191.144531 222.683594 191.082031 C 222.683594 190.824219 222.789062 190.574219 222.96875 190.390625 Z M 223.660156 187.90625 C 217.117188 187.90625 211.792969 193.230469 211.792969 199.773438 C 211.792969 206.316406 217.117188 211.640625 223.660156 211.640625 C 230.203125 211.640625 235.527344 206.316406 235.527344 199.773438 C 235.527344 193.230469 230.203125 187.90625 223.660156 187.90625 " fill-opacity="1" fill-rule="nonzero"/><path fill="#ffffff" d="M 229.714844 178.867188 L 229.3125 159.054688 C 229.308594 158.683594 228.996094 158.382812 228.625 158.382812 C 228.253906 158.382812 227.945312 158.683594 227.9375 159.054688 L 227.539062 178.867188 L 229.714844 178.867188 " fill-opacity="1" fill-rule="nonzero"/><path fill="#ffffff" d="M 280.035156 178.867188 L 279.636719 159.054688 C 279.628906 158.683594 279.320312 158.382812 278.949219 158.382812 C 278.578125 158.382812 278.265625 158.683594 278.261719 159.054688 L 277.859375 178.867188 L 280.035156 178.867188 " fill-opacity="1" fill-rule="nonzero"/><path fill="#ffffff" d="M 267.042969 159.058594 C 267.050781 158.683594 267.359375 158.382812 267.734375 158.382812 C 268.105469 158.382812 268.414062 158.683594 268.421875 159.058594 L 268.824219 178.945312 L 266.644531 178.945312 L 267.042969 159.058594 " fill-opacity="1" fill-rule="nonzero"/><path fill="#ffffff" d="M 239.152344 159.058594 C 239.160156 158.683594 239.46875 158.382812 239.839844 158.382812 C 240.210938 158.382812 240.519531 158.683594 240.527344 159.058594 L 240.929688 178.945312 L 238.75 178.945312 L 239.152344 159.058594 " fill-opacity="1" fill-rule="nonzero"/><path fill="#ffffff" d="M 232.792969 181.582031 L 229.140625 181.582031 L 229.144531 179.671875 C 229.144531 179.390625 228.914062 179.160156 228.632812 179.15625 C 228.632812 179.15625 228.632812 179.15625 228.628906 179.15625 C 228.347656 179.15625 228.117188 179.386719 228.117188 179.667969 L 228.113281 182.09375 C 228.113281 182.234375 228.164062 182.363281 228.261719 182.460938 C 228.359375 182.554688 228.488281 182.609375 228.625 182.609375 L 233.429688 182.609375 C 233.183594 182.292969 232.972656 181.949219 232.792969 181.582031 " fill-opacity="1" fill-rule="nonzero"/><path fill="#ffffff" d="M 279.550781 179.667969 C 279.546875 179.386719 279.320312 179.15625 279.035156 179.15625 C 278.75 179.160156 278.523438 179.390625 278.523438 179.671875 L 278.527344 181.582031 L 274.894531 181.582031 C 274.714844 181.949219 274.503906 182.292969 274.257812 182.609375 L 279.042969 182.609375 C 279.175781 182.609375 279.308594 182.554688 279.40625 182.460938 C 279.5 182.363281 279.554688 182.234375 279.554688 182.09375 L 279.550781 179.667969 " fill-opacity="1" fill-rule="nonzero"/><path fill="#ffffff" d="M 262.828125 182.570312 C 262.78125 182.621094 262.726562 182.660156 262.667969 182.695312 C 262.613281 182.734375 262.558594 182.765625 262.492188 182.792969 C 262.429688 182.816406 262.367188 182.835938 262.300781 182.851562 C 262.234375 182.863281 262.167969 182.871094 262.101562 182.871094 C 262.035156 182.871094 261.964844 182.863281 261.898438 182.851562 C 261.835938 182.835938 261.769531 182.816406 261.707031 182.792969 C 261.648438 182.765625 261.585938 182.734375 261.53125 182.695312 C 261.476562 182.660156 261.421875 182.621094 261.375 182.570312 C 261.183594 182.378906 261.074219 182.113281 261.074219 181.84375 C 261.074219 181.777344 261.082031 181.707031 261.097656 181.644531 C 261.105469 181.578125 261.125 181.511719 261.152344 181.453125 C 261.179688 181.390625 261.210938 181.328125 261.246094 181.273438 C 261.28125 181.21875 261.328125 181.164062 261.375 181.121094 C 261.425781 181.070312 261.476562 181.027344 261.53125 180.988281 C 261.585938 180.953125 261.648438 180.921875 261.707031 180.894531 C 261.769531 180.867188 261.835938 180.847656 261.898438 180.839844 C 262.234375 180.769531 262.589844 180.878906 262.828125 181.121094 C 262.875 181.164062 262.917969 181.21875 262.953125 181.273438 C 262.992188 181.328125 263.023438 181.390625 263.050781 181.453125 C 263.074219 181.511719 263.09375 181.578125 263.109375 181.644531 C 263.121094 181.707031 263.128906 181.777344 263.128906 181.84375 C 263.128906 182.113281 263.019531 182.378906 262.828125 182.570312 Z M 257.285156 182.570312 C 257.238281 182.621094 257.1875 182.660156 257.128906 182.695312 C 257.074219 182.734375 257.015625 182.765625 256.953125 182.792969 C 256.886719 182.816406 256.828125 182.835938 256.757812 182.851562 C 256.695312 182.863281 256.625 182.871094 256.558594 182.871094 C 256.289062 182.871094 256.023438 182.761719 255.835938 182.570312 C 255.640625 182.378906 255.535156 182.109375 255.535156 181.84375 C 255.535156 181.777344 255.542969 181.707031 255.554688 181.644531 C 255.566406 181.578125 255.582031 181.511719 255.613281 181.453125 C 255.636719 181.390625 255.667969 181.328125 255.703125 181.273438 C 255.742188 181.21875 255.785156 181.164062 255.835938 181.121094 C 256.214844 180.738281 256.902344 180.738281 257.285156 181.121094 C 257.332031 181.164062 257.375 181.21875 257.410156 181.273438 C 257.449219 181.328125 257.480469 181.390625 257.507812 181.453125 C 257.53125 181.511719 257.554688 181.578125 257.566406 181.644531 C 257.582031 181.707031 257.585938 181.777344 257.585938 181.84375 C 257.585938 182.113281 257.476562 182.378906 257.285156 182.570312 Z M 251.742188 182.570312 C 251.550781 182.761719 251.289062 182.871094 251.019531 182.871094 C 250.746094 182.871094 250.484375 182.761719 250.292969 182.570312 C 250.101562 182.378906 249.992188 182.113281 249.992188 181.84375 C 249.992188 181.777344 250 181.707031 250.011719 181.644531 C 250.027344 181.578125 250.042969 181.511719 250.070312 181.453125 C 250.09375 181.390625 250.128906 181.328125 250.164062 181.273438 C 250.199219 181.21875 250.242188 181.164062 250.292969 181.121094 C 250.527344 180.878906 250.886719 180.769531 251.21875 180.839844 C 251.285156 180.847656 251.351562 180.867188 251.414062 180.894531 C 251.472656 180.921875 251.53125 180.953125 251.585938 180.988281 C 251.644531 181.027344 251.695312 181.070312 251.742188 181.121094 C 251.792969 181.164062 251.832031 181.21875 251.871094 181.273438 C 251.910156 181.328125 251.941406 181.390625 251.96875 181.453125 C 251.992188 181.511719 252.011719 181.578125 252.023438 181.644531 C 252.039062 181.707031 252.042969 181.777344 252.042969 181.84375 C 252.042969 182.113281 251.9375 182.378906 251.742188 182.570312 Z M 246.484375 182.042969 C 246.46875 182.109375 246.453125 182.171875 246.425781 182.234375 C 246.402344 182.300781 246.367188 182.359375 246.332031 182.414062 C 246.292969 182.472656 246.25 182.523438 246.203125 182.570312 C 246.015625 182.761719 245.746094 182.871094 245.476562 182.871094 C 245.40625 182.871094 245.34375 182.863281 245.273438 182.851562 C 245.210938 182.835938 245.144531 182.816406 245.082031 182.792969 C 245.019531 182.765625 244.960938 182.734375 244.910156 182.695312 C 244.851562 182.660156 244.800781 182.621094 244.75 182.570312 C 244.558594 182.378906 244.449219 182.113281 244.449219 181.84375 C 244.449219 181.777344 244.457031 181.707031 244.472656 181.644531 C 244.484375 181.578125 244.503906 181.511719 244.527344 181.453125 C 244.554688 181.390625 244.585938 181.328125 244.625 181.273438 C 244.660156 181.21875 244.703125 181.164062 244.75 181.121094 C 244.800781 181.070312 244.851562 181.027344 244.910156 180.988281 C 244.960938 180.953125 245.019531 180.921875 245.082031 180.894531 C 245.144531 180.867188 245.210938 180.847656 245.273438 180.839844 C 245.609375 180.769531 245.964844 180.878906 246.203125 181.121094 C 246.25 181.164062 246.292969 181.21875 246.332031 181.273438 C 246.367188 181.328125 246.402344 181.390625 246.425781 181.453125 C 246.453125 181.511719 246.46875 181.578125 246.484375 181.644531 C 246.496094 181.707031 246.503906 181.777344 246.503906 181.84375 C 246.503906 181.910156 246.496094 181.980469 246.484375 182.042969 Z M 232.894531 179.480469 C 233.15625 182.128906 235.390625 184.207031 238.105469 184.207031 L 269.578125 184.207031 C 272.292969 184.207031 274.53125 182.128906 274.792969 179.480469 L 232.894531 179.480469 " fill-opacity="1" fill-rule="nonzero"/><path fill="#ffffff" d="M 195.476562 248.03125 L 167.507812 248.03125 L 167.507812 246.769531 L 195.476562 246.769531 C 199.808594 246.769531 203.332031 243.246094 203.332031 238.914062 L 203.332031 226.566406 L 204.59375 226.566406 L 204.59375 238.914062 C 204.59375 243.945312 200.503906 248.03125 195.476562 248.03125 " fill-opacity="1" fill-rule="nonzero"/><path fill="#ffffff" d="M 205.410156 225.898438 L 202.578125 225.898438 C 202.359375 225.898438 202.183594 225.722656 202.183594 225.503906 L 202.183594 223.21875 L 205.804688 223.21875 L 205.804688 225.503906 C 205.804688 225.722656 205.628906 225.898438 205.410156 225.898438 " fill-opacity="1" fill-rule="nonzero"/><path fill="#ffffff" d="M 204.988281 222.636719 L 203 222.636719 L 203 220.707031 L 204.988281 220.707031 L 204.988281 222.636719 " fill-opacity="1" fill-rule="nonzero"/><path fill="#ffffff" d="M 165.972656 249.941406 L 160.816406 249.941406 L 160.816406 244.863281 L 165.972656 244.863281 C 166.5 244.863281 166.921875 245.289062 166.921875 245.816406 L 166.921875 248.988281 C 166.921875 249.515625 166.5 249.941406 165.972656 249.941406 " fill-opacity="1" fill-rule="nonzero"/><path fill="#ffffff" d="M 160.445312 246.746094 L 158.46875 246.746094 C 158.222656 246.746094 158.027344 246.546875 158.027344 246.300781 C 158.027344 246.058594 158.222656 245.859375 158.46875 245.859375 L 160.445312 245.859375 L 160.445312 246.746094 " fill-opacity="1" fill-rule="nonzero"/><path fill="#ffffff" d="M 160.445312 249.085938 L 158.46875 249.085938 C 158.222656 249.085938 158.027344 248.886719 158.027344 248.644531 C 158.027344 248.398438 158.222656 248.199219 158.46875 248.199219 L 160.445312 248.199219 L 160.445312 249.085938 " fill-opacity="1" fill-rule="nonzero"/><path fill="#ffffff" d="M 96.429688 205.515625 L 96.429688 198.902344 L 102.9375 198.902344 L 102.9375 205.515625 C 102.9375 206.1875 102.394531 206.730469 101.71875 206.730469 L 97.648438 206.730469 C 96.976562 206.730469 96.429688 206.1875 96.429688 205.515625 " fill-opacity="1" fill-rule="nonzero"/><path fill="#ffffff" d="M 100.523438 198.429688 L 100.523438 195.890625 C 100.523438 195.578125 100.777344 195.324219 101.09375 195.324219 C 101.40625 195.324219 101.660156 195.578125 101.660156 195.890625 L 101.660156 198.429688 L 100.523438 198.429688 " fill-opacity="1" fill-rule="nonzero"/><path fill="#ffffff" d="M 97.523438 198.429688 L 97.523438 195.890625 C 97.523438 195.578125 97.777344 195.324219 98.089844 195.324219 C 98.40625 195.324219 98.660156 195.578125 98.660156 195.890625 L 98.660156 198.429688 L 97.523438 198.429688 " fill-opacity="1" fill-rule="nonzero"/><path fill="#ffffff" d="M 149.667969 218.378906 L 146.96875 223.058594 L 152.367188 223.058594 Z M 149.667969 218.378906 " fill-opacity="1" fill-rule="nonzero"/><path fill="#ffffff" d="M 149.667969 217.441406 C 147.542969 217.441406 145.816406 219.167969 145.816406 221.292969 C 145.816406 223.417969 147.542969 225.144531 149.667969 225.144531 C 151.792969 225.144531 153.519531 223.417969 153.519531 221.292969 C 153.519531 219.167969 151.792969 217.441406 149.667969 217.441406 Z M 149.667969 226.195312 C 146.964844 226.195312 144.765625 223.996094 144.765625 221.292969 C 144.765625 218.585938 146.964844 216.386719 149.667969 216.386719 C 152.371094 216.386719 154.574219 218.585938 154.574219 221.292969 C 154.574219 223.996094 152.371094 226.195312 149.667969 226.195312 " fill-opacity="1" fill-rule="nonzero"/><path fill="#ffffff" d="M 246.253906 209.433594 L 241.578125 206.730469 L 241.578125 212.132812 Z M 246.253906 209.433594 " fill-opacity="1" fill-rule="nonzero"/><path fill="#ffffff" d="M 243.34375 205.582031 C 241.21875 205.582031 239.488281 207.308594 239.488281 209.433594 C 239.488281 211.558594 241.21875 213.285156 243.34375 213.285156 C 245.46875 213.285156 247.195312 211.558594 247.195312 209.433594 C 247.195312 207.308594 245.46875 205.582031 243.34375 205.582031 Z M 243.34375 214.335938 C 240.640625 214.335938 238.4375 212.136719 238.4375 209.433594 C 238.4375 206.730469 240.640625 204.53125 243.34375 204.53125 C 246.046875 204.53125 248.246094 206.730469 248.246094 209.433594 C 248.246094 212.136719 246.046875 214.335938 243.34375 214.335938 " fill-opacity="1" fill-rule="nonzero"/><path fill="#ffffff" d="M 215.976562 167.34375 C 215.976562 167.699219 215.589844 167.921875 215.28125 167.742188 L 211.992188 165.847656 C 211.683594 165.667969 211.683594 165.222656 211.992188 165.042969 L 215.28125 163.144531 C 215.589844 162.96875 215.976562 163.191406 215.976562 163.546875 Z M 214.457031 161.066406 C 212.039062 161.066406 210.082031 163.027344 210.082031 165.445312 C 210.082031 167.863281 212.039062 169.824219 214.457031 169.824219 C 216.875 169.824219 218.835938 167.863281 218.835938 165.445312 C 218.835938 163.027344 216.875 161.066406 214.457031 161.066406 " fill-opacity="1" fill-rule="nonzero"/><path fill="#ffffff" d="M 127.25 112.953125 C 125.914062 112.953125 124.828125 114.035156 124.828125 115.375 C 124.828125 116.710938 125.914062 117.792969 127.25 117.792969 C 128.585938 117.792969 129.671875 116.710938 129.671875 115.375 C 129.671875 114.035156 128.585938 112.953125 127.25 112.953125 " fill-opacity="1" fill-rule="nonzero"/><path fill="#ffffff" d="M 255.628906 171.25 C 255.628906 171.734375 255.105469 172.039062 254.683594 171.796875 L 250.207031 169.210938 C 249.785156 168.96875 249.785156 168.359375 250.207031 168.117188 L 254.683594 165.53125 C 255.105469 165.289062 255.628906 165.589844 255.628906 166.078125 L 255.628906 171.25 " fill-opacity="1" fill-rule="nonzero"/><path fill="#ffffff" d="M 217.894531 277.332031 C 217.554688 277.332031 217.339844 276.960938 217.511719 276.667969 L 219.328125 273.515625 C 219.5 273.222656 219.929688 273.222656 220.097656 273.515625 L 221.917969 276.667969 C 222.089844 276.960938 221.875 277.332031 221.535156 277.332031 L 217.894531 277.332031 " fill-opacity="1" fill-rule="nonzero"/><path fill="#ffffff" d="M 116.628906 244.816406 C 116.628906 244.332031 117.15625 244.027344 117.574219 244.269531 L 122.054688 246.855469 C 122.472656 247.097656 122.472656 247.707031 122.054688 247.949219 L 117.574219 250.535156 C 117.15625 250.777344 116.628906 250.472656 116.628906 249.988281 L 116.628906 244.816406 " fill-opacity="1" fill-rule="nonzero"/><path fill="#ffffff" d="M 168.242188 140.507812 C 167.261719 140.507812 166.464844 141.304688 166.464844 142.289062 C 166.464844 143.269531 167.261719 144.066406 168.242188 144.066406 C 169.226562 144.066406 170.019531 143.269531 170.019531 142.289062 C 170.019531 141.304688 169.226562 140.507812 168.242188 140.507812 " fill-opacity="1" fill-rule="nonzero"/><path fill="#ffffff" d="M 168.242188 145.921875 C 166.238281 145.921875 164.609375 144.292969 164.609375 142.289062 C 164.609375 140.28125 166.238281 138.65625 168.242188 138.65625 C 170.25 138.65625 171.875 140.28125 171.875 142.289062 C 171.875 144.292969 170.25 145.921875 168.242188 145.921875 Z M 168.242188 133.324219 C 169.226562 133.324219 170.019531 134.117188 170.019531 135.101562 C 170.019531 136.082031 169.226562 136.878906 168.242188 136.878906 C 167.261719 136.878906 166.464844 136.082031 166.464844 135.101562 C 166.464844 134.117188 167.261719 133.324219 168.242188 133.324219 Z M 173.148438 130.871094 L 163.339844 130.871094 C 162.480469 130.871094 161.785156 131.566406 161.785156 132.425781 L 161.785156 146.679688 C 161.785156 147.539062 162.480469 148.234375 163.339844 148.234375 L 173.148438 148.234375 C 174.007812 148.234375 174.703125 147.539062 174.703125 146.679688 L 174.703125 132.425781 C 174.703125 131.566406 174.007812 130.871094 173.148438 130.871094 " fill-opacity="1" fill-rule="nonzero"/><path fill="#ffffff" d="M 254.402344 244.300781 C 253.421875 244.300781 252.625 245.097656 252.625 246.078125 C 252.625 247.058594 253.421875 247.859375 254.402344 247.859375 C 255.386719 247.859375 256.183594 247.058594 256.183594 246.078125 C 256.183594 245.097656 255.386719 244.300781 254.402344 244.300781 " fill-opacity="1" fill-rule="nonzero"/><path fill="#ffffff" d="M 254.402344 249.710938 C 252.398438 249.710938 250.773438 248.085938 250.773438 246.078125 C 250.773438 244.074219 252.398438 242.445312 254.402344 242.445312 C 256.410156 242.445312 258.035156 244.074219 258.035156 246.078125 C 258.035156 248.085938 256.410156 249.710938 254.402344 249.710938 Z M 254.402344 237.113281 C 255.386719 237.113281 256.183594 237.910156 256.183594 238.890625 C 256.183594 239.875 255.386719 240.667969 254.402344 240.667969 C 253.421875 240.667969 252.625 239.875 252.625 238.890625 C 252.625 237.910156 253.421875 237.113281 254.402344 237.113281 Z M 259.308594 234.664062 L 249.5 234.664062 C 248.640625 234.664062 247.945312 235.359375 247.945312 236.21875 L 247.945312 250.472656 C 247.945312 251.328125 248.640625 252.027344 249.5 252.027344 L 259.308594 252.027344 C 260.167969 252.027344 260.863281 251.328125 260.863281 250.472656 L 260.863281 236.21875 C 260.863281 235.359375 260.167969 234.664062 259.308594 234.664062 " fill-opacity="1" fill-rule="nonzero"/><path fill="#ffffff" d="M 140.851562 197.167969 L 139.347656 197.167969 L 139.347656 192.394531 L 140.851562 192.394531 L 140.851562 197.167969 " fill-opacity="1" fill-rule="nonzero"/><path fill="#ffffff" d="M 143.5 197.167969 L 141.996094 197.167969 L 141.996094 192.394531 L 143.5 192.394531 L 143.5 197.167969 " fill-opacity="1" fill-rule="nonzero"/><path fill="#ffffff" d="M 270.320312 147.136719 L 268.824219 147.136719 L 268.824219 142.367188 L 270.320312 142.367188 L 270.320312 147.136719 " fill-opacity="1" fill-rule="nonzero"/><path fill="#ffffff" d="M 272.972656 147.136719 L 271.472656 147.136719 L 271.472656 142.367188 L 272.972656 142.367188 L 272.972656 147.136719 " fill-opacity="1" fill-rule="nonzero"/><path fill="#ffffff" d="M 246.859375 225.019531 C 246.859375 226.242188 245.867188 227.234375 244.644531 227.234375 C 243.417969 227.234375 242.425781 226.242188 242.425781 225.019531 C 242.425781 223.792969 243.417969 222.800781 244.644531 222.800781 C 245.867188 222.800781 246.859375 223.792969 246.859375 225.019531 " fill-opacity="1" fill-rule="nonzero"/><path fill="#ffffff" d="M 212.683594 184.964844 L 208.492188 184.964844 L 208.492188 180.777344 L 212.683594 180.777344 L 212.683594 184.964844 " fill-opacity="1" fill-rule="nonzero"/><path fill="#ffffff" d="M 152.640625 139.230469 C 152.640625 140.109375 151.929688 140.820312 151.054688 140.820312 C 150.179688 140.820312 149.46875 140.109375 149.46875 139.230469 C 149.46875 138.355469 150.179688 137.644531 151.054688 137.644531 C 151.929688 137.644531 152.640625 138.355469 152.640625 139.230469 " fill-opacity="1" fill-rule="nonzero"/><path fill="#ffffff" d="M 150.746094 166.21875 C 150.746094 167.285156 149.882812 168.152344 148.8125 168.152344 C 147.746094 168.152344 146.878906 167.285156 146.878906 166.21875 C 146.878906 165.152344 147.746094 164.285156 148.8125 164.285156 C 149.882812 164.285156 150.746094 165.152344 150.746094 166.21875 " fill-opacity="1" fill-rule="nonzero"/></svg>