<svg xmlns="http://www.w3.org/2000/svg" xmlns:xlink="http://www.w3.org/1999/xlink" width="500" zoomAndPan="magnify" viewBox="0 0 375 374.999991" height="500" preserveAspectRatio="xMidYMid meet" version="1.0"><defs><clipPath id="9fd368d8ff"><path d="M 58.5 58.5 L 316.5 58.5 L 316.5 316.5 L 58.5 316.5 Z M 58.5 58.5 " clip-rule="nonzero"/></clipPath><clipPath id="dfc5d89070"><path d="M 187.5 316.5 C 153.058594 316.5 120.628906 303.09375 96.292969 278.707031 C 71.90625 254.371094 58.5 221.941406 58.5 187.5 C 58.5 153.058594 71.90625 120.628906 96.292969 96.292969 C 120.628906 71.90625 153.058594 58.5 187.5 58.5 C 221.941406 58.5 254.371094 71.90625 278.707031 96.292969 C 303.09375 120.679688 316.5 153.058594 316.5 187.5 C 316.5 221.941406 303.09375 254.371094 278.707031 278.707031 C 254.371094 303.09375 221.941406 316.5 187.5 316.5 Z M 187.5 66.234375 C 155.121094 66.234375 124.648438 78.867188 101.757812 101.757812 C 78.867188 124.648438 66.234375 155.121094 66.234375 187.5 C 66.234375 219.878906 78.867188 250.351562 101.757812 273.242188 C 124.648438 296.132812 155.121094 308.765625 187.5 308.765625 C 219.878906 308.765625 250.351562 296.132812 273.242188 273.242188 C 296.132812 250.351562 308.765625 219.878906 308.765625 187.5 C 308.765625 155.121094 296.132812 124.648438 273.242188 101.757812 C 250.351562 78.867188 219.878906 66.234375 187.5 66.234375 Z M 187.5 66.234375 " clip-rule="nonzero"/></clipPath><clipPath id="4184219d44"><path d="M 80.125 145.417969 L 294.625 145.417969 L 294.625 236.917969 L 80.125 236.917969 Z M 80.125 145.417969 " clip-rule="nonzero"/></clipPath><clipPath id="c2a48df4d8"><path d="M 183 243 L 198 243 L 198 274.304688 L 183 274.304688 Z M 183 243 " clip-rule="nonzero"/></clipPath><clipPath id="de2d563244"><path d="M 81.269531 115 L 204 115 L 204 246 L 81.269531 246 Z M 81.269531 115 " clip-rule="nonzero"/></clipPath></defs><g clip-path="url(#9fd368d8ff)"><g clip-path="url(#dfc5d89070)"><path fill="#29452c" d="M 58.5 58.5 L 316.5 58.5 L 316.5 316.5 L 58.5 316.5 Z M 58.5 58.5 " fill-opacity="1" fill-rule="nonzero"/></g></g><g clip-path="url(#4184219d44)"><path fill="#112241" d="M 288.226562 216.128906 C 285.503906 225.394531 281.347656 234.191406 276.191406 242.289062 C 271.933594 248.878906 267.089844 255.074219 261.648438 260.707031 C 260.945312 261.476562 260.160156 262.167969 259.410156 262.894531 C 258.652344 263.605469 257.914062 264.34375 257.136719 265.039062 L 254.777344 267.089844 L 253.601562 268.117188 L 252.375 269.089844 L 249.933594 271.042969 C 249.105469 271.675781 248.25 272.273438 247.414062 272.890625 C 245.757812 274.160156 243.996094 275.277344 242.269531 276.449219 C 242.019531 276.617188 241.757812 276.792969 241.484375 276.976562 C 241.203125 277.144531 240.914062 277.320312 240.605469 277.503906 C 240 277.867188 239.34375 278.257812 238.644531 278.675781 C 237.265625 279.542969 235.636719 280.355469 233.875 281.292969 C 233.433594 281.523438 232.988281 281.769531 232.519531 281.996094 C 232.046875 282.214844 231.570312 282.4375 231.078125 282.664062 C 230.101562 283.117188 229.085938 283.585938 228.039062 284.070312 C 225.894531 284.90625 223.65625 285.914062 221.21875 286.695312 C 211.585938 290.1875 199.5625 292.347656 187.5 292.398438 C 175.433594 292.347656 163.414062 290.1875 153.78125 286.695312 C 151.339844 285.914062 149.101562 284.90625 146.957031 284.070312 C 145.910156 283.585938 144.898438 283.117188 143.917969 282.664062 C 143.429688 282.4375 142.949219 282.214844 142.476562 281.996094 C 142.007812 281.773438 141.566406 281.523438 141.121094 281.292969 C 139.363281 280.359375 137.730469 279.542969 136.351562 278.675781 C 135.652344 278.257812 135 277.867188 134.390625 277.503906 C 134.085938 277.320312 133.792969 277.144531 133.511719 276.976562 C 133.238281 276.792969 132.976562 276.617188 132.730469 276.449219 C 126.175781 272.15625 120.019531 267.277344 114.421875 261.796875 C 108.519531 255.898438 103.355469 249.292969 98.808594 242.289062 C 93.648438 234.191406 89.492188 225.394531 86.769531 216.128906 C 83.933594 206.890625 82.621094 197.195312 82.539062 187.5 C 82.621094 177.800781 83.933594 168.105469 86.769531 158.867188 C 89.492188 149.601562 93.648438 140.808594 98.804688 132.707031 C 103.0625 126.117188 107.90625 119.921875 113.347656 114.289062 C 114.050781 113.519531 114.835938 112.828125 115.585938 112.101562 C 116.34375 111.390625 117.082031 110.652344 117.859375 109.957031 L 120.21875 107.90625 L 121.398438 106.878906 L 122.621094 105.90625 L 125.0625 103.953125 C 125.890625 103.320312 126.746094 102.722656 127.582031 102.105469 C 129.238281 100.835938 131.003906 99.71875 132.726562 98.546875 C 132.976562 98.378906 133.238281 98.203125 133.511719 98.019531 C 133.792969 97.851562 134.085938 97.675781 134.390625 97.492188 C 134.996094 97.128906 135.652344 96.738281 136.351562 96.320312 C 137.730469 95.453125 139.359375 94.640625 141.121094 93.703125 C 141.566406 93.476562 142.007812 93.226562 142.476562 93 C 142.949219 92.78125 143.429688 92.558594 143.917969 92.332031 C 144.894531 91.878906 145.910156 91.410156 146.957031 90.925781 C 149.101562 90.089844 151.339844 89.082031 153.777344 88.300781 C 163.414062 84.808594 175.433594 82.648438 187.5 82.597656 C 199.5625 82.648438 211.585938 84.808594 221.214844 88.300781 C 223.65625 89.082031 225.894531 90.089844 228.039062 90.925781 C 229.085938 91.410156 230.097656 91.878906 231.078125 92.332031 C 231.566406 92.558594 232.046875 92.78125 232.519531 93 C 232.988281 93.222656 233.429688 93.476562 233.875 93.703125 C 235.632812 94.636719 237.265625 95.453125 238.644531 96.320312 C 239.34375 96.738281 239.996094 97.128906 240.605469 97.492188 C 240.910156 97.675781 241.203125 97.851562 241.484375 98.019531 C 241.757812 98.203125 242.019531 98.378906 242.265625 98.546875 C 248.820312 102.839844 254.976562 107.71875 260.574219 113.199219 C 266.476562 119.097656 271.640625 125.703125 276.1875 132.707031 C 281.347656 140.804688 285.503906 149.601562 288.226562 158.867188 C 291.0625 168.105469 292.375 177.800781 292.457031 187.5 C 292.375 197.195312 291.0625 206.890625 288.226562 216.128906 Z M 294.871094 187.425781 L 294.867188 187.417969 C 294.78125 177.519531 293.449219 167.613281 290.5625 158.164062 C 287.789062 148.691406 283.542969 139.699219 278.246094 131.4375 L 275.699219 127.609375 C 275.699219 127.609375 274.960938 126.582031 273.859375 125.039062 C 272.796875 123.460938 271.171875 121.519531 269.617188 119.523438 C 267.941406 117.628906 266.339844 115.671875 264.988281 114.335938 C 263.675781 112.964844 262.800781 112.054688 262.800781 112.054688 C 262.800781 112.054688 262.582031 111.828125 262.183594 111.445312 C 261.785156 111.0625 261.21875 110.511719 260.535156 109.855469 C 259.207031 108.5 257.273438 106.867188 255.382812 105.191406 C 254.410156 104.382812 253.410156 103.609375 252.484375 102.867188 C 252.023438 102.5 251.574219 102.140625 251.148438 101.804688 C 250.707031 101.484375 250.292969 101.1875 249.90625 100.910156 C 248.371094 99.796875 247.34375 99.058594 247.34375 99.058594 C 247.34375 99.058594 247.121094 98.878906 246.757812 98.644531 C 246.402344 98.40625 245.925781 98.085938 245.449219 97.765625 C 244.496094 97.128906 243.539062 96.488281 243.539062 96.488281 C 243.285156 96.316406 243.019531 96.136719 242.742188 95.949219 C 242.453125 95.773438 242.15625 95.59375 241.84375 95.40625 C 241.222656 95.03125 240.550781 94.628906 239.839844 94.203125 C 238.429688 93.3125 236.761719 92.476562 234.960938 91.515625 C 234.507812 91.28125 234.050781 91.023438 233.574219 90.796875 C 233.09375 90.570312 232.601562 90.339844 232.101562 90.109375 C 231.101562 89.644531 230.0625 89.164062 228.992188 88.667969 C 226.796875 87.804688 224.507812 86.777344 222.007812 85.972656 C 212.152344 82.390625 199.84375 80.171875 187.5 80.125 C 175.152344 80.171875 162.84375 82.390625 152.984375 85.972656 C 150.488281 86.777344 148.199219 87.804688 146.003906 88.667969 C 144.933594 89.164062 143.898438 89.644531 142.894531 90.109375 C 142.394531 90.34375 141.902344 90.570312 141.421875 90.796875 C 140.941406 91.023438 140.488281 91.28125 140.035156 91.515625 C 138.234375 92.476562 136.566406 93.3125 135.15625 94.203125 C 134.445312 94.628906 133.773438 95.03125 133.152344 95.40625 C 132.839844 95.59375 132.542969 95.777344 132.253906 95.949219 C 131.976562 96.136719 131.710938 96.316406 131.453125 96.488281 C 131.453125 96.488281 130.5 97.128906 129.546875 97.765625 C 129.070312 98.085938 128.59375 98.40625 128.238281 98.644531 C 127.875 98.878906 127.652344 99.058594 127.652344 99.058594 C 127.652344 99.058594 126.628906 99.796875 125.089844 100.910156 C 124.703125 101.1875 124.289062 101.484375 123.847656 101.804688 C 123.421875 102.140625 122.976562 102.5 122.511719 102.867188 C 121.585938 103.609375 120.585938 104.382812 119.617188 105.191406 C 117.722656 106.867188 115.792969 108.5 114.460938 109.855469 C 113.777344 110.511719 113.210938 111.0625 112.8125 111.445312 C 112.414062 111.828125 112.195312 112.054688 112.195312 112.054688 C 112.195312 112.054688 111.320312 112.964844 110.007812 114.335938 C 108.65625 115.671875 107.054688 117.628906 105.378906 119.523438 C 103.824219 121.519531 102.199219 123.460938 101.136719 125.039062 C 100.03125 126.582031 99.296875 127.609375 99.296875 127.609375 L 96.75 131.4375 C 91.453125 139.699219 87.207031 148.691406 84.433594 158.164062 C 81.546875 167.613281 80.214844 177.519531 80.128906 187.417969 L 80.125 187.425781 L 80.125 187.570312 L 80.128906 187.578125 C 80.214844 197.476562 81.546875 207.386719 84.433594 216.832031 C 87.207031 226.304688 91.453125 235.300781 96.75 243.558594 L 99.296875 247.386719 C 99.296875 247.386719 100.035156 248.414062 101.136719 249.960938 C 102.199219 251.535156 103.824219 253.476562 105.378906 255.472656 C 107.054688 257.367188 108.65625 259.324219 110.007812 260.660156 C 111.320312 262.027344 112.195312 262.941406 112.195312 262.941406 C 112.195312 262.941406 112.414062 263.167969 112.8125 263.550781 C 113.210938 263.933594 113.777344 264.484375 114.460938 265.140625 C 115.792969 266.496094 117.722656 268.128906 119.617188 269.804688 C 120.585938 270.613281 121.585938 271.386719 122.511719 272.128906 C 122.976562 272.496094 123.421875 272.855469 123.847656 273.191406 C 124.289062 273.511719 124.703125 273.808594 125.089844 274.085938 C 126.628906 275.199219 127.652344 275.9375 127.652344 275.9375 C 127.652344 275.9375 127.875 276.117188 128.238281 276.351562 C 128.59375 276.589844 129.070312 276.910156 129.546875 277.230469 C 130.5 277.867188 131.457031 278.507812 131.457031 278.507812 C 131.710938 278.679688 131.976562 278.859375 132.253906 279.046875 C 132.542969 279.222656 132.839844 279.402344 133.152344 279.589844 C 133.773438 279.964844 134.445312 280.367188 135.15625 280.792969 C 136.566406 281.683594 138.234375 282.519531 140.035156 283.480469 C 140.488281 283.714844 140.945312 283.972656 141.421875 284.199219 C 141.902344 284.425781 142.394531 284.65625 142.894531 284.886719 C 143.898438 285.351562 144.933594 285.832031 146.003906 286.328125 C 148.199219 287.191406 150.488281 288.21875 152.988281 289.023438 C 162.84375 292.605469 175.152344 294.820312 187.5 294.871094 C 199.84375 294.820312 212.152344 292.605469 222.011719 289.023438 C 224.507812 288.21875 226.796875 287.191406 228.992188 286.328125 C 230.0625 285.832031 231.101562 285.351562 232.101562 284.886719 C 232.601562 284.652344 233.09375 284.425781 233.574219 284.199219 C 234.054688 283.972656 234.507812 283.714844 234.960938 283.480469 C 236.761719 282.519531 238.429688 281.683594 239.839844 280.792969 C 240.550781 280.367188 241.222656 279.964844 241.84375 279.589844 C 242.15625 279.402344 242.453125 279.21875 242.742188 279.046875 C 243.019531 278.859375 243.285156 278.679688 243.542969 278.507812 C 243.542969 278.507812 244.496094 277.867188 245.449219 277.230469 C 245.925781 276.910156 246.402344 276.589844 246.757812 276.351562 C 247.121094 276.117188 247.34375 275.9375 247.34375 275.9375 C 247.34375 275.9375 248.371094 275.199219 249.90625 274.085938 C 250.292969 273.808594 250.707031 273.511719 251.148438 273.191406 C 251.574219 272.855469 252.023438 272.496094 252.484375 272.128906 C 253.410156 271.386719 254.410156 270.613281 255.382812 269.804688 C 257.273438 268.128906 259.207031 266.496094 260.535156 265.140625 C 261.21875 264.484375 261.785156 263.933594 262.183594 263.550781 C 262.582031 263.167969 262.800781 262.941406 262.800781 262.941406 C 262.800781 262.941406 263.675781 262.027344 264.988281 260.660156 C 266.339844 259.324219 267.941406 257.367188 269.617188 255.472656 C 271.171875 253.476562 272.796875 251.535156 273.859375 249.960938 C 274.964844 248.414062 275.699219 247.386719 275.699219 247.386719 L 278.246094 243.558594 C 283.542969 235.300781 287.789062 226.304688 290.5625 216.832031 C 293.449219 207.382812 294.78125 197.476562 294.867188 187.578125 L 294.871094 187.570312 L 294.871094 187.425781 " fill-opacity="1" fill-rule="nonzero"/></g><path fill="#b87f59" d="M 272.402344 226.394531 L 258.269531 228.039062 L 265.707031 250.492188 C 266.300781 252.207031 267.9375 253.398438 269.722656 253.398438 C 272.175781 253.398438 274.109375 251.3125 273.960938 248.851562 Z M 272.402344 226.394531 " fill-opacity="1" fill-rule="nonzero"/><path fill="#83987f" d="M 107.300781 227.292969 C 98.75 187.90625 95.253906 163.886719 92.128906 122.039062 C 91.832031 118.457031 94.730469 115.472656 98.300781 115.621094 L 175.644531 119.054688 L 178.917969 148.371094 L 287.347656 155.007812 C 290.992188 155.230469 293.519531 158.664062 292.851562 162.246094 C 288.019531 186.859375 287.125 202.152344 287.199219 227.292969 L 192.082031 246.3125 Z M 107.300781 227.292969 " fill-opacity="1" fill-rule="nonzero"/><path fill="#000000" d="M 107.300781 227.292969 C 98.75 187.90625 95.253906 163.886719 92.128906 122.039062 C 91.832031 118.457031 94.730469 115.472656 98.300781 115.621094 L 175.644531 119.054688 L 178.917969 148.371094 L 287.347656 155.007812 C 290.992188 155.230469 293.519531 158.664062 292.851562 162.246094 C 288.019531 186.859375 287.125 202.152344 287.199219 227.292969 L 192.082031 246.3125 Z M 107.300781 227.292969 " fill-opacity="0.4" fill-rule="nonzero"/><path fill="#b87f59" d="M 109.382812 226.394531 L 123.511719 228.039062 L 117.785156 250.417969 C 117.265625 252.28125 115.628906 253.625 113.621094 253.625 C 111.242188 253.625 109.308594 251.683594 109.308594 249.296875 L 109.308594 226.394531 Z M 109.382812 226.394531 " fill-opacity="1" fill-rule="nonzero"/><g clip-path="url(#c2a48df4d8)"><path fill="#b87f59" d="M 197.957031 243.554688 L 183.828125 245.195312 L 187.546875 270.40625 C 187.84375 272.496094 189.628906 274.0625 191.785156 274.0625 C 194.015625 274.0625 195.875 272.347656 196.023438 270.109375 Z M 197.957031 243.554688 " fill-opacity="1" fill-rule="nonzero"/></g><path fill="#ebd597" d="M 196.097656 171.570312 L 195.28125 171.496094 L 129.089844 173.0625 L 129.089844 208.644531 L 204.648438 217.296875 C 231.871094 216.101562 249.71875 213.640625 276.269531 206.332031 C 278.648438 197.902344 279.019531 192.679688 277.457031 185.667969 C 276.789062 182.683594 274.558594 180.296875 271.65625 179.402344 C 258.789062 175.746094 239.527344 174.476562 196.097656 171.570312 Z M 196.097656 171.570312 " fill-opacity="1" fill-rule="nonzero"/><path fill="#000000" d="M 274.855469 181.191406 L 189.179688 188.351562 L 191.414062 215.804688 L 204.648438 217.296875 C 231.871094 216.101562 249.71875 213.640625 276.269531 206.332031 C 278.648438 197.902344 279.019531 192.679688 277.457031 185.667969 C 277.160156 183.953125 276.191406 182.386719 274.855469 181.191406 Z M 274.855469 181.191406 " fill-opacity="0.2" fill-rule="evenodd"/><path fill="#ebd597" d="M 120.539062 102.269531 C 147.015625 101.300781 165.234375 103.3125 195.28125 111.742188 C 197.585938 112.414062 199.296875 114.355469 199.519531 116.742188 L 203.015625 145.386719 L 211.863281 175.820312 C 174.234375 182.308594 153.484375 180.96875 116.449219 180.074219 C 110.273438 158.664062 108.417969 143.746094 106.035156 119.277344 C 105.144531 110.402344 111.6875 102.566406 120.539062 102.269531 Z M 120.539062 102.269531 " fill-opacity="1" fill-rule="nonzero"/><path fill="#000000" d="M 151.476562 128.976562 C 151.921875 128.976562 152.21875 129.273438 152.292969 129.644531 L 153.113281 140.984375 C 153.113281 141.433594 152.816406 141.730469 152.441406 141.804688 C 151.996094 141.804688 151.699219 141.507812 151.625 141.132812 L 150.804688 129.796875 C 150.730469 129.347656 151.03125 128.976562 151.476562 128.976562 Z M 151.476562 128.976562 " fill-opacity="0.05" fill-rule="evenodd"/><path fill="#000000" d="M 159.953125 135.089844 C 159.953125 135.539062 159.65625 135.835938 159.210938 135.835938 L 143.296875 135.914062 C 142.847656 135.914062 142.550781 135.613281 142.550781 135.167969 C 142.550781 134.71875 142.847656 134.421875 143.296875 134.421875 L 159.285156 134.34375 C 159.65625 134.34375 159.953125 134.644531 159.953125 135.089844 Z M 159.953125 135.089844 " fill-opacity="0.05" fill-rule="evenodd"/><path fill="#83987f" d="M 154.300781 135.089844 C 154.226562 136.507812 153.039062 137.628906 151.550781 137.554688 C 150.136719 137.480469 149.023438 136.285156 149.097656 134.792969 C 149.171875 133.375 150.359375 132.257812 151.847656 132.332031 C 153.261719 132.480469 154.375 133.675781 154.300781 135.089844 Z M 154.300781 135.089844 " fill-opacity="1" fill-rule="nonzero"/><path fill="#000000" d="M 180.035156 129.71875 C 180.480469 129.71875 180.777344 130.019531 180.851562 130.390625 L 181.667969 141.730469 C 181.667969 142.179688 181.371094 142.476562 181 142.550781 C 180.554688 142.550781 180.257812 142.253906 180.183594 141.878906 L 179.363281 130.542969 C 179.289062 130.167969 179.660156 129.796875 180.035156 129.71875 Z M 180.035156 129.71875 " fill-opacity="0.05" fill-rule="evenodd"/><path fill="#000000" d="M 188.511719 135.835938 C 188.511719 136.285156 188.214844 136.582031 187.769531 136.582031 L 171.777344 136.65625 C 171.332031 136.65625 171.035156 136.359375 171.035156 135.914062 C 171.035156 135.464844 171.332031 135.167969 171.777344 135.167969 L 187.769531 135.089844 C 188.214844 135.089844 188.511719 135.464844 188.511719 135.835938 Z M 188.511719 135.835938 " fill-opacity="0.05" fill-rule="evenodd"/><path fill="#83987f" d="M 182.933594 135.914062 C 182.859375 137.328125 181.667969 138.449219 180.183594 138.375 C 178.769531 138.300781 177.652344 137.105469 177.726562 135.613281 C 177.800781 134.195312 178.992188 133.078125 180.480469 133.152344 C 181.894531 133.226562 183.007812 134.496094 182.933594 135.914062 Z M 182.933594 135.914062 " fill-opacity="1" fill-rule="nonzero"/><path fill="#000000" d="M 127.976562 102.046875 L 123.066406 103.386719 C 120.390625 104.132812 118.753906 106.746094 119.347656 109.503906 L 133.851562 180.519531 C 131.621094 180.445312 129.3125 180.371094 126.933594 180.371094 C 123.585938 180.296875 120.09375 180.222656 116.375 180.074219 C 110.199219 158.664062 108.339844 143.746094 105.960938 119.277344 C 105.144531 110.402344 111.6875 102.566406 120.539062 102.269531 C 123.066406 102.195312 125.59375 102.121094 127.976562 102.046875 Z M 127.976562 102.046875 " fill-opacity="0.2" fill-rule="evenodd"/><path fill="#83987f" d="M 285.859375 154.933594 L 287.273438 155.007812 C 290.917969 155.230469 293.445312 158.664062 292.777344 162.246094 C 287.945312 186.859375 287.050781 202.152344 287.125 227.292969 L 195.726562 245.566406 L 191.933594 246.089844 L 189.554688 226.472656 L 202.640625 224.085938 L 277.53125 212.894531 Z M 285.859375 154.933594 " fill-opacity="1" fill-rule="evenodd"/><g clip-path="url(#de2d563244)"><path fill="#83987f" d="M 87.519531 115.695312 L 100.53125 115.695312 C 101.203125 128.304688 102.914062 135.6875 109.085938 149.488281 L 184.867188 156.128906 C 188.289062 156.425781 191.113281 159.035156 191.5625 162.46875 L 203.460938 243.554688 L 200.855469 244.300781 C 194.164062 246.164062 187.097656 246.386719 180.257812 245.046875 L 101.351562 229.230469 C 97.855469 228.558594 95.105469 225.800781 94.359375 222.292969 C 88.113281 191.261719 85.585938 166.046875 81.570312 122.1875 C 81.269531 118.679688 84.023438 115.695312 87.519531 115.695312 Z M 87.519531 115.695312 " fill-opacity="1" fill-rule="nonzero"/><path fill="#000000" d="M 87.519531 115.695312 L 100.53125 115.695312 C 101.203125 128.304688 102.914062 135.6875 109.085938 149.488281 L 184.867188 156.128906 C 188.289062 156.425781 191.113281 159.035156 191.5625 162.46875 L 203.460938 243.554688 L 200.855469 244.300781 C 194.164062 246.164062 187.097656 246.386719 180.257812 245.046875 L 101.351562 229.230469 C 97.855469 228.558594 95.105469 225.800781 94.359375 222.292969 C 88.113281 191.261719 85.585938 166.046875 81.570312 122.1875 C 81.269531 118.679688 84.023438 115.695312 87.519531 115.695312 Z M 87.519531 115.695312 " fill-opacity="0.2" fill-rule="nonzero"/></g><path fill="#83987f" d="M 89.230469 115.695312 C 90.714844 131.4375 93.246094 139.640625 100.011719 149.785156 C 124.183594 153.742188 141.882812 155.753906 175.273438 158.664062 C 178.84375 158.960938 181.667969 161.722656 182.042969 165.304688 L 190.964844 245.867188 C 194.3125 245.714844 197.660156 245.195312 200.929688 244.300781 L 203.535156 243.554688 L 191.5625 162.320312 C 191.039062 158.960938 188.363281 156.351562 185.015625 155.976562 L 108.9375 147.398438 C 102.839844 133.523438 101.203125 128.304688 100.53125 115.621094 L 89.230469 115.621094 Z M 89.230469 115.695312 " fill-opacity="1" fill-rule="evenodd"/></svg>