<svg xmlns="http://www.w3.org/2000/svg" xmlns:xlink="http://www.w3.org/1999/xlink" width="500" zoomAndPan="magnify" viewBox="0 0 375 374.999991" height="500" preserveAspectRatio="xMidYMid meet" version="1.0"><defs><clipPath id="dc4a8f6f58"><path d="M 58.5 58.5 L 316.5 58.5 L 316.5 316.5 L 58.5 316.5 Z M 58.5 58.5 " clip-rule="nonzero"/></clipPath><clipPath id="1566173c55"><path d="M 187.5 316.5 C 153.058594 316.5 120.628906 303.09375 96.292969 278.707031 C 71.90625 254.371094 58.5 221.941406 58.5 187.5 C 58.5 153.058594 71.90625 120.628906 96.292969 96.292969 C 120.628906 71.90625 153.058594 58.5 187.5 58.5 C 221.941406 58.5 254.371094 71.90625 278.707031 96.292969 C 303.09375 120.679688 316.5 153.058594 316.5 187.5 C 316.5 221.941406 303.09375 254.371094 278.707031 278.707031 C 254.371094 303.09375 221.941406 316.5 187.5 316.5 Z M 187.5 66.234375 C 155.121094 66.234375 124.648438 78.867188 101.757812 101.757812 C 78.867188 124.648438 66.234375 155.121094 66.234375 187.5 C 66.234375 219.878906 78.867188 250.351562 101.757812 273.242188 C 124.648438 296.132812 155.121094 308.765625 187.5 308.765625 C 219.878906 308.765625 250.351562 296.132812 273.242188 273.242188 C 296.132812 250.351562 308.765625 219.878906 308.765625 187.5 C 308.765625 155.121094 296.132812 124.648438 273.242188 101.757812 C 250.351562 78.867188 219.878906 66.234375 187.5 66.234375 Z M 187.5 66.234375 " clip-rule="nonzero"/></clipPath><clipPath id="8d29032b6a"><path d="M 76 80.566406 L 301.589844 80.566406 L 301.589844 291 L 76 291 Z M 76 80.566406 " clip-rule="nonzero"/></clipPath><clipPath id="cf4696fded"><path d="M 76.320312 80.566406 L 301.589844 80.566406 L 301.589844 291 L 76.320312 291 Z M 76.320312 80.566406 " clip-rule="nonzero"/></clipPath><clipPath id="fa9cc36d63"><path d="M 89.652344 149.890625 C 89.882812 147.996094 89.328125 146.085938 88.101562 144.613281 C 86.875 143.144531 85.105469 142.253906 83.1875 142.140625 C 83.105469 142.851562 83.121094 143.5625 83.25 144.25 L 83.25 144.257812 C 83.46875 145.414062 83.972656 146.503906 84.742188 147.421875 C 85.960938 148.890625 87.738281 149.78125 89.652344 149.890625 M 102.640625 153.390625 C 106.71875 150.214844 107.273438 144.234375 103.824219 140.378906 C 101.867188 141.898438 100.628906 144.160156 100.402344 146.617188 C 100.183594 149.089844 100.988281 151.542969 102.640625 153.390625 Z M 116.375 156.070312 C 118.273438 156.304688 120.175781 155.746094 121.652344 154.519531 C 123.121094 153.296875 124.015625 151.523438 124.121094 149.609375 C 122.234375 149.378906 120.324219 149.933594 118.84375 151.160156 C 117.382812 152.378906 116.480469 154.148438 116.375 156.070312 Z M 110.339844 168.195312 C 116.847656 165.84375 123.433594 164.453125 127.070312 158.640625 C 128.660156 156.097656 129.113281 153.152344 128.347656 150.191406 C 124.410156 159.730469 109.140625 157.378906 102.519531 167.171875 C 102.726562 164.972656 105.074219 161.3125 106.253906 160.253906 C 109.441406 157.398438 113.714844 155.3125 115.210938 149.628906 C 115.792969 147.4375 115.621094 145.1875 114.734375 143.222656 C 108.496094 147.367188 104.535156 152.195312 101.996094 160.300781 C 100.976562 151.898438 97.953125 146.441406 92.574219 141.246094 C 91.347656 143.027344 90.765625 145.199219 90.9375 147.472656 C 91.339844 152.714844 94.46875 155.554688 97 158.519531 C 99.207031 161.117188 100.574219 163.492188 100.257812 166.96875 C 95.519531 156.136719 79.664062 153.21875 77.925781 145.59375 C 73.589844 154.941406 82.585938 161.082031 89.613281 164.992188 C 94.003906 167.441406 97.71875 169.585938 100.808594 173.304688 C 103.824219 170.863281 106.601562 169.539062 110.339844 168.195312 Z M 143.292969 95.464844 C 142.28125 93.839844 141.996094 91.867188 142.480469 90.027344 C 142.980469 88.183594 144.222656 86.628906 145.910156 85.71875 C 146.917969 87.332031 147.214844 89.316406 146.71875 91.15625 C 146.21875 93.011719 144.988281 94.570312 143.292969 95.464844 Z M 132.960938 104.082031 C 127.929688 102.917969 124.921875 97.71875 126.433594 92.777344 C 128.84375 93.335938 130.921875 94.863281 132.152344 97.007812 C 133.390625 99.15625 133.6875 101.714844 132.960938 104.082031 Z M 120.335938 108.71875 C 118.710938 109.730469 116.746094 110.027344 114.894531 109.53125 C 113.046875 109.039062 111.484375 107.800781 110.59375 106.109375 C 112.210938 105.097656 114.183594 104.808594 116.027344 105.308594 C 117.882812 105.789062 119.441406 107.027344 120.335938 108.71875 Z M 132.808594 120.703125 C 125.695312 121.246094 118.898438 122.960938 112.980469 119.085938 C 110.480469 117.4375 108.824219 114.960938 108.28125 111.953125 C 119.691406 109.535156 128.730469 110.425781 138.847656 116.539062 C 137.3125 113.867188 135.15625 112.585938 132.253906 111.738281 C 128.230469 110.566406 123.621094 110.355469 119.972656 105.941406 C 118.519531 104.183594 117.75 102.082031 117.714844 99.917969 C 125.117188 101.066406 130.742188 103.789062 136.4375 110.078125 C 133.84375 102.015625 134.308594 95.804688 137.007812 88.832031 C 138.867188 89.9375 140.304688 91.667969 141.097656 93.796875 C 142.929688 98.722656 141.289062 102.605469 140.234375 106.355469 C 139.292969 109.722656 139.085938 112.417969 140.808594 115.402344 C 140.570312 103.585938 144.316406 95.316406 152.125 86.636719 C 154.429688 88.597656 155.78125 91.246094 155.945312 94.277344 C 156.292969 100.40625 152.589844 105.121094 149.171875 109.808594 C 146.539062 113.425781 144.125 117 142.953125 121.390625 C 139.3125 120.480469 136.386719 120.429688 132.808594 120.703125 Z M 124.257812 262.210938 C 123.78125 261.765625 123.761719 261.023438 124.207031 260.558594 C 124.65625 260.082031 125.394531 260.058594 125.859375 260.496094 C 135.230469 269.324219 146.257812 276.398438 158.410156 281.214844 C 170.125 285.851562 182.894531 288.40625 196.269531 288.40625 C 224.632812 288.40625 250.328125 276.90625 268.914062 258.316406 C 287.511719 239.722656 299.007812 214.039062 299.007812 185.664062 C 299.007812 157.289062 287.507812 131.597656 268.914062 113.011719 C 250.324219 94.421875 224.632812 82.921875 196.269531 82.921875 C 184.535156 82.921875 172.917969 84.882812 161.871094 88.816406 C 161.257812 89.027344 160.589844 88.710938 160.363281 88.097656 C 160.15625 87.480469 160.46875 86.808594 161.085938 86.589844 C 172.386719 82.589844 184.285156 80.566406 196.269531 80.566406 C 225.289062 80.566406 251.570312 92.328125 270.578125 111.351562 C 289.59375 130.371094 301.363281 156.644531 301.363281 185.667969 C 301.363281 214.691406 289.59375 240.957031 270.578125 259.984375 C 251.5625 279 225.28125 290.773438 196.269531 290.773438 C 182.601562 290.773438 169.542969 288.160156 157.550781 283.398438 C 145.109375 278.464844 133.835938 271.226562 124.257812 262.210938 Z M 124.03125 197.265625 C 133.390625 194.347656 143.496094 197.183594 149.980469 204.292969 C 153.234375 193.925781 155.402344 184.359375 156.054688 174.988281 C 143.46875 178.152344 140.03125 165.1875 129.527344 165.164062 C 139.230469 162.132812 149.726562 165.28125 156.171875 172.976562 C 156.195312 172.484375 156.207031 171.996094 156.222656 171.507812 C 156.464844 163.09375 155.417969 154.769531 152.773438 146.074219 C 141.410156 148.886719 138.285156 137.171875 128.773438 137.140625 C 137.007812 134.574219 145.867188 136.914062 151.761719 142.9375 C 149.941406 137.65625 147.539062 132.234375 144.46875 126.542969 C 142.789062 123.421875 139.902344 124.222656 137.332031 125.222656 C 134.796875 126.203125 129.113281 126.574219 127.640625 123.285156 C 134.101562 121.179688 138.855469 120.855469 143.855469 122.933594 C 144.550781 117.5625 147.210938 113.617188 152.265625 109.070312 C 154.375 111.984375 151.222656 116.726562 149.09375 118.4375 C 146.484375 120.527344 145.074219 122.050781 146.757812 125.148438 C 147.6875 126.871094 148.558594 128.566406 149.367188 130.242188 C 150.917969 123.304688 156.34375 117.773438 163.414062 116.183594 C 156.75 120.054688 159.230469 129.492188 150.3125 132.253906 C 153.945312 140.097656 156.328125 147.527344 157.648438 154.832031 C 159.996094 145.914062 167.148438 138.863281 176.367188 136.785156 C 167.265625 142.074219 170.804688 155.0625 158.238281 158.589844 C 158.8125 162.9375 159.015625 167.25 158.898438 171.589844 C 158.652344 180.210938 157.113281 188.910156 154.585938 198.128906 C 161.851562 185.683594 171.015625 174.082031 180.703125 163.441406 C 191.285156 151.824219 227.226562 112.914062 202.246094 101.65625 C 195.589844 98.660156 187.113281 98.855469 181.65625 102.492188 C 193.957031 93.324219 211.542969 99.355469 215.863281 113.847656 C 218.222656 122.820312 218.265625 130.761719 217.382812 139.976562 C 217.1875 141.671875 217.101562 143.242188 217.132812 144.710938 C 219.546875 147.175781 223.949219 147.355469 228.0625 147.203125 C 224.640625 148.121094 220.757812 149.195312 217.480469 148.367188 L 217.585938 148.894531 C 218.59375 153.625 226.703125 161.726562 233.671875 168.066406 C 240.605469 174.367188 245.195312 178.347656 233.609375 182.191406 C 230.40625 183.238281 227.789062 184.464844 230.214844 188.246094 C 233.308594 193.089844 237.65625 193.492188 230.1875 198.441406 C 227.867188 199.976562 225.125 201.273438 223.175781 201.707031 C 225.46875 201.257812 230.726562 203.226562 230.75 205.464844 C 230.792969 209.96875 221.804688 208.804688 226.15625 224.109375 C 227.339844 228.28125 228.515625 232.371094 223.742188 235.082031 C 217.222656 238.605469 210.484375 237.441406 203.195312 236.179688 C 185.820312 233.179688 174.628906 234.328125 168.339844 237.765625 C 144.898438 250.574219 187.953125 294.421875 235.753906 273.28125 C 269.105469 258.128906 292.3125 224.519531 292.3125 185.492188 C 292.3125 132.257812 249.15625 89.113281 195.929688 89.113281 C 184.734375 89.113281 173.988281 91.019531 163.992188 94.53125 L 164 94.523438 C 163.601562 94.660156 163.171875 94.570312 162.84375 94.292969 C 162.507812 94.007812 162.351562 93.566406 162.4375 93.128906 C 162.519531 92.71875 162.808594 92.390625 163.1875 92.238281 C 173.433594 88.640625 184.457031 86.675781 195.9375 86.675781 C 250.507812 86.675781 294.753906 130.914062 294.753906 185.492188 C 294.753906 224.671875 271.953125 258.519531 238.894531 274.5 L 238.949219 274.476562 C 225.949219 280.773438 211.351562 284.304688 195.9375 284.304688 C 168.566406 284.304688 143.796875 273.175781 125.902344 255.195312 L 125.894531 255.195312 C 114.601562 261.421875 107.933594 249.839844 97.800781 252.523438 C 105.226562 247.832031 114.417969 247.4375 122.082031 251.128906 C 119.796875 248.65625 117.667969 246.054688 115.679688 243.332031 C 109.339844 234.644531 104.535156 224.757812 101.589844 214.210938 C 89.859375 217.140625 86.648438 205.066406 76.867188 205.035156 C 85.488281 202.347656 94.792969 204.890625 100.84375 211.351562 C 98.296875 200.945312 97.546875 189.957031 98.902344 178.859375 C 99.371094 175.019531 97.671875 174.082031 94.011719 173.175781 C 91.371094 172.519531 86.515625 169.542969 87.210938 166.007812 C 93.707031 168.007812 97.773438 170.488281 100.660156 175.070312 C 104.328125 171.09375 108.777344 169.386719 115.523438 168.589844 C 115.566406 172.195312 110.253906 174.242188 107.535156 174.414062 C 103.648438 174.648438 102.019531 175.320312 101.546875 179.175781 C 101.066406 183.152344 100.859375 187.113281 100.914062 191.027344 C 104.917969 183.5 112.933594 178.800781 121.632812 179.148438 C 112.558594 181.613281 112.582031 193.59375 101 193.808594 C 101.625 207.503906 105.441406 220.648438 111.804688 232.253906 C 111.449219 222.71875 116.582031 213.679688 125.203125 209.148438 C 117.773438 216.613281 124.558594 228.25 113.324219 234.910156 C 114.722656 237.261719 116.226562 239.546875 117.835938 241.753906 C 126.703125 253.914062 138.652344 263.664062 152.738281 269.5 C 150.902344 267.941406 149.234375 266.167969 147.765625 264.15625 C 146.875 262.597656 145.945312 261.074219 144.96875 259.5625 C 141.917969 253.46875 140.421875 245.824219 141.09375 236.621094 C 141.660156 228.820312 143.84375 221.070312 146.789062 213.8125 C 147.550781 211.644531 148.285156 209.523438 148.972656 207.421875 C 137.65625 209.167969 134.082031 197.292969 124.03125 197.265625 Z M 124.03125 197.265625 " clip-rule="nonzero"/></clipPath></defs><g clip-path="url(#dc4a8f6f58)"><g clip-path="url(#1566173c55)"><path fill="#29452c" d="M 58.5 58.5 L 316.5 58.5 L 316.5 316.5 L 58.5 316.5 Z M 58.5 58.5 " fill-opacity="1" fill-rule="nonzero"/></g></g><g clip-path="url(#8d29032b6a)"><path fill="#9e005d" d="M 89.652344 149.890625 C 89.882812 147.996094 89.328125 146.085938 88.101562 144.613281 C 86.875 143.144531 85.105469 142.253906 83.1875 142.140625 C 83.105469 142.851562 83.121094 143.5625 83.25 144.25 L 83.25 144.257812 C 83.46875 145.414062 83.972656 146.503906 84.742188 147.421875 C 85.960938 148.890625 87.738281 149.78125 89.652344 149.890625 M 102.640625 153.390625 C 106.71875 150.214844 107.273438 144.234375 103.824219 140.378906 C 101.867188 141.898438 100.628906 144.160156 100.402344 146.617188 C 100.183594 149.089844 100.988281 151.542969 102.640625 153.390625 Z M 116.375 156.070312 C 118.273438 156.304688 120.175781 155.746094 121.652344 154.519531 C 123.121094 153.296875 124.015625 151.523438 124.121094 149.609375 C 122.234375 149.378906 120.324219 149.933594 118.84375 151.160156 C 117.382812 152.378906 116.480469 154.148438 116.375 156.070312 Z M 110.339844 168.195312 C 116.847656 165.84375 123.433594 164.453125 127.070312 158.640625 C 128.660156 156.097656 129.113281 153.152344 128.347656 150.191406 C 124.410156 159.730469 109.140625 157.378906 102.519531 167.171875 C 102.726562 164.972656 105.074219 161.3125 106.253906 160.253906 C 109.441406 157.398438 113.714844 155.3125 115.210938 149.628906 C 115.792969 147.4375 115.621094 145.1875 114.734375 143.222656 C 108.496094 147.367188 104.535156 152.195312 101.996094 160.300781 C 100.976562 151.898438 97.953125 146.441406 92.574219 141.246094 C 91.347656 143.027344 90.765625 145.199219 90.9375 147.472656 C 91.339844 152.714844 94.46875 155.554688 97 158.519531 C 99.207031 161.117188 100.574219 163.492188 100.257812 166.96875 C 95.519531 156.136719 79.664062 153.21875 77.925781 145.59375 C 73.589844 154.941406 82.585938 161.082031 89.613281 164.992188 C 94.003906 167.441406 97.71875 169.585938 100.808594 173.304688 C 103.824219 170.863281 106.601562 169.539062 110.339844 168.195312 Z M 143.292969 95.464844 C 142.28125 93.839844 141.996094 91.867188 142.480469 90.027344 C 142.980469 88.183594 144.222656 86.628906 145.90625 85.71875 C 146.917969 87.332031 147.214844 89.316406 146.71875 91.15625 C 146.21875 93.011719 144.988281 94.570312 143.292969 95.464844 Z M 132.960938 104.082031 C 127.929688 102.917969 124.921875 97.71875 126.433594 92.777344 C 128.84375 93.335938 130.921875 94.863281 132.152344 97.007812 C 133.390625 99.15625 133.6875 101.714844 132.960938 104.082031 Z M 120.335938 108.71875 C 118.710938 109.730469 116.746094 110.027344 114.894531 109.53125 C 113.046875 109.039062 111.484375 107.800781 110.59375 106.109375 C 112.210938 105.097656 114.183594 104.808594 116.027344 105.308594 C 117.882812 105.789062 119.441406 107.027344 120.335938 108.71875 Z M 132.808594 120.703125 C 125.695312 121.246094 118.898438 122.960938 112.980469 119.085938 C 110.480469 117.4375 108.824219 114.960938 108.28125 111.953125 C 119.691406 109.535156 128.730469 110.425781 138.847656 116.539062 C 137.3125 113.867188 135.15625 112.585938 132.253906 111.738281 C 128.230469 110.566406 123.621094 110.355469 119.972656 105.941406 C 118.519531 104.183594 117.75 102.082031 117.714844 99.917969 C 125.117188 101.066406 130.742188 103.789062 136.4375 110.078125 C 133.84375 102.015625 134.308594 95.804688 137.007812 88.832031 C 138.867188 89.9375 140.304688 91.667969 141.097656 93.796875 C 142.929688 98.722656 141.289062 102.605469 140.234375 106.355469 C 139.292969 109.722656 139.085938 112.417969 140.808594 115.402344 C 140.570312 103.585938 144.316406 95.316406 152.125 86.636719 C 154.429688 88.597656 155.78125 91.246094 155.945312 94.277344 C 156.292969 100.40625 152.589844 105.121094 149.171875 109.808594 C 146.539062 113.425781 144.125 117 142.953125 121.390625 C 139.3125 120.480469 136.386719 120.429688 132.808594 120.703125 Z M 124.257812 262.210938 C 123.78125 261.765625 123.761719 261.023438 124.207031 260.558594 C 124.65625 260.082031 125.394531 260.058594 125.859375 260.496094 C 135.230469 269.324219 146.257812 276.398438 158.410156 281.214844 C 170.125 285.851562 182.894531 288.40625 196.269531 288.40625 C 224.632812 288.40625 250.328125 276.90625 268.914062 258.316406 C 287.511719 239.722656 299.007812 214.039062 299.007812 185.664062 C 299.007812 157.289062 287.507812 131.597656 268.914062 113.011719 C 250.324219 94.421875 224.632812 82.921875 196.269531 82.921875 C 184.535156 82.921875 172.917969 84.882812 161.871094 88.816406 C 161.257812 89.027344 160.589844 88.710938 160.363281 88.097656 C 160.15625 87.480469 160.46875 86.808594 161.085938 86.589844 C 172.386719 82.589844 184.285156 80.566406 196.269531 80.566406 C 225.289062 80.566406 251.570312 92.328125 270.578125 111.351562 C 289.59375 130.371094 301.363281 156.644531 301.363281 185.667969 C 301.363281 214.691406 289.59375 240.957031 270.578125 259.984375 C 251.5625 279 225.28125 290.773438 196.269531 290.773438 C 182.601562 290.773438 169.542969 288.160156 157.550781 283.398438 C 145.109375 278.464844 133.835938 271.226562 124.257812 262.210938 Z M 124.03125 197.265625 C 133.390625 194.347656 143.496094 197.183594 149.980469 204.292969 C 153.234375 193.925781 155.402344 184.359375 156.054688 174.988281 C 143.46875 178.152344 140.03125 165.1875 129.527344 165.164062 C 139.230469 162.132812 149.726562 165.28125 156.171875 172.976562 C 156.195312 172.484375 156.207031 171.996094 156.222656 171.507812 C 156.464844 163.09375 155.417969 154.769531 152.773438 146.074219 C 141.410156 148.886719 138.285156 137.171875 128.773438 137.140625 C 137.007812 134.574219 145.867188 136.914062 151.761719 142.9375 C 149.941406 137.65625 147.539062 132.234375 144.46875 126.542969 C 142.789062 123.421875 139.902344 124.222656 137.332031 125.222656 C 134.796875 126.203125 129.113281 126.574219 127.640625 123.285156 C 134.101562 121.179688 138.855469 120.855469 143.855469 122.933594 C 144.550781 117.5625 147.210938 113.617188 152.265625 109.070312 C 154.375 111.984375 151.222656 116.726562 149.09375 118.4375 C 146.484375 120.527344 145.074219 122.050781 146.757812 125.148438 C 147.6875 126.871094 148.558594 128.566406 149.367188 130.242188 C 150.917969 123.304688 156.339844 117.773438 163.414062 116.183594 C 156.75 120.054688 159.230469 129.492188 150.3125 132.253906 C 153.945312 140.097656 156.328125 147.527344 157.648438 154.832031 C 159.996094 145.914062 167.148438 138.863281 176.367188 136.785156 C 167.265625 142.074219 170.804688 155.0625 158.238281 158.589844 C 158.8125 162.9375 159.015625 167.25 158.898438 171.589844 C 158.652344 180.210938 157.113281 188.910156 154.585938 198.128906 C 161.851562 185.683594 171.015625 174.082031 180.703125 163.441406 C 191.285156 151.824219 227.226562 112.914062 202.246094 101.65625 C 195.589844 98.660156 187.113281 98.855469 181.65625 102.492188 C 193.957031 93.324219 211.542969 99.355469 215.863281 113.847656 C 218.222656 122.820312 218.265625 130.761719 217.382812 139.976562 C 217.1875 141.671875 217.105469 143.242188 217.132812 144.710938 C 219.546875 147.175781 223.949219 147.355469 228.0625 147.203125 C 224.640625 148.121094 220.757812 149.195312 217.480469 148.367188 L 217.585938 148.894531 C 218.59375 153.625 226.703125 161.726562 233.671875 168.066406 C 240.605469 174.367188 245.195312 178.347656 233.609375 182.191406 C 230.40625 183.238281 227.789062 184.464844 230.214844 188.246094 C 233.308594 193.089844 237.65625 193.492188 230.1875 198.441406 C 227.867188 199.976562 225.125 201.273438 223.175781 201.707031 C 225.46875 201.257812 230.726562 203.226562 230.75 205.464844 C 230.792969 209.96875 221.804688 208.804688 226.15625 224.109375 C 227.339844 228.28125 228.515625 232.371094 223.742188 235.082031 C 217.222656 238.605469 210.484375 237.441406 203.195312 236.179688 C 185.820312 233.179688 174.628906 234.328125 168.339844 237.765625 C 144.898438 250.574219 187.953125 294.421875 235.753906 273.28125 C 269.105469 258.128906 292.3125 224.519531 292.3125 185.492188 C 292.3125 132.257812 249.15625 89.113281 195.929688 89.113281 C 184.734375 89.113281 173.988281 91.019531 163.992188 94.53125 L 164 94.523438 C 163.601562 94.660156 163.171875 94.570312 162.84375 94.292969 C 162.507812 94.007812 162.351562 93.566406 162.4375 93.128906 C 162.519531 92.71875 162.808594 92.390625 163.1875 92.238281 C 173.433594 88.640625 184.457031 86.675781 195.9375 86.675781 C 250.507812 86.675781 294.753906 130.914062 294.753906 185.492188 C 294.753906 224.671875 271.953125 258.519531 238.894531 274.5 L 238.949219 274.476562 C 225.949219 280.773438 211.351562 284.304688 195.9375 284.304688 C 168.566406 284.304688 143.796875 273.175781 125.902344 255.195312 L 125.894531 255.195312 C 114.601562 261.421875 107.933594 249.839844 97.800781 252.523438 C 105.226562 247.832031 114.417969 247.4375 122.082031 251.128906 C 119.796875 248.65625 117.667969 246.054688 115.679688 243.332031 C 109.339844 234.644531 104.535156 224.757812 101.589844 214.210938 C 89.859375 217.140625 86.648438 205.066406 76.867188 205.035156 C 85.488281 202.347656 94.792969 204.890625 100.84375 211.351562 C 98.296875 200.945312 97.546875 189.957031 98.902344 178.859375 C 99.371094 175.019531 97.671875 174.082031 94.011719 173.175781 C 91.371094 172.519531 86.515625 169.542969 87.210938 166.007812 C 93.707031 168.007812 97.773438 170.488281 100.660156 175.070312 C 104.328125 171.09375 108.777344 169.386719 115.523438 168.589844 C 115.566406 172.195312 110.253906 174.242188 107.535156 174.414062 C 103.648438 174.648438 102.019531 175.320312 101.546875 179.175781 C 101.066406 183.152344 100.859375 187.113281 100.914062 191.027344 C 104.917969 183.5 112.933594 178.800781 121.632812 179.148438 C 112.558594 181.613281 112.582031 193.59375 101 193.808594 C 101.625 207.503906 105.441406 220.648438 111.804688 232.253906 C 111.449219 222.71875 116.582031 213.679688 125.203125 209.148438 C 117.773438 216.613281 124.558594 228.25 113.324219 234.910156 C 114.722656 237.261719 116.226562 239.546875 117.835938 241.753906 C 126.703125 253.914062 138.652344 263.664062 152.738281 269.5 C 150.902344 267.941406 149.234375 266.167969 147.765625 264.15625 C 146.875 262.597656 145.945312 261.074219 144.96875 259.5625 C 141.917969 253.46875 140.421875 245.824219 141.09375 236.621094 C 141.660156 228.820312 143.84375 221.070312 146.789062 213.8125 C 147.550781 211.644531 148.285156 209.523438 148.972656 207.421875 C 137.65625 209.167969 134.082031 197.292969 124.03125 197.265625 Z M 124.03125 197.265625 " fill-opacity="1" fill-rule="evenodd"/></g><g clip-path="url(#cf4696fded)"><g clip-path="url(#fa9cc36d63)"><path fill="#29452c" d="M 73.59375 80.566406 L 301.363281 80.566406 L 301.363281 294.417969 L 73.59375 294.417969 Z M 73.59375 80.566406 " fill-opacity="1" fill-rule="nonzero"/></g></g></svg>