<svg xmlns="http://www.w3.org/2000/svg" xmlns:xlink="http://www.w3.org/1999/xlink" width="500" zoomAndPan="magnify" viewBox="0 0 375 374.999991" height="500" preserveAspectRatio="xMidYMid meet" version="1.0"><defs><clipPath id="1f2ba2653a"><path d="M 58.5 58.5 L 316.5 58.5 L 316.5 316.5 L 58.5 316.5 Z M 58.5 58.5 " clip-rule="nonzero"/></clipPath><clipPath id="ed5af04676"><path d="M 187.5 316.5 C 153.058594 316.5 120.628906 303.09375 96.292969 278.707031 C 71.90625 254.371094 58.5 221.941406 58.5 187.5 C 58.5 153.058594 71.90625 120.628906 96.292969 96.292969 C 120.628906 71.90625 153.058594 58.5 187.5 58.5 C 221.941406 58.5 254.371094 71.90625 278.707031 96.292969 C 303.09375 120.679688 316.5 153.058594 316.5 187.5 C 316.5 221.941406 303.09375 254.371094 278.707031 278.707031 C 254.371094 303.09375 221.941406 316.5 187.5 316.5 Z M 187.5 66.234375 C 155.121094 66.234375 124.648438 78.867188 101.757812 101.757812 C 78.867188 124.648438 66.234375 155.121094 66.234375 187.5 C 66.234375 219.878906 78.867188 250.351562 101.757812 273.242188 C 124.648438 296.132812 155.121094 308.765625 187.5 308.765625 C 219.878906 308.765625 250.351562 296.132812 273.242188 273.242188 C 296.132812 250.351562 308.765625 219.878906 308.765625 187.5 C 308.765625 155.121094 296.132812 124.648438 273.242188 101.757812 C 250.351562 78.867188 219.878906 66.234375 187.5 66.234375 Z M 187.5 66.234375 " clip-rule="nonzero"/></clipPath><clipPath id="3fa6126e34"><path d="M 80.125 145.417969 L 294.625 145.417969 L 294.625 236.917969 L 80.125 236.917969 Z M 80.125 145.417969 " clip-rule="nonzero"/></clipPath><clipPath id="f2615fa16f"><path d="M 120.640625 86.84375 L 256.703125 86.84375 L 256.703125 291.289062 L 120.640625 291.289062 Z M 120.640625 86.84375 " clip-rule="nonzero"/></clipPath><clipPath id="80aef24d14"><path d="M 118.289062 83.710938 L 254.371094 83.710938 L 254.371094 288.183594 L 118.289062 288.183594 Z M 118.289062 83.710938 " clip-rule="nonzero"/></clipPath><clipPath id="2cd81265ff"><path d="M 251.632812 128.40625 C 251.214844 126.90625 250.707031 125.757812 250.238281 124.785156 C 249.523438 123.335938 248.863281 122.253906 248.332031 121.34375 C 247.796875 120.445312 247.386719 119.730469 247.144531 119.238281 L 247.140625 119.226562 C 246.957031 118.867188 246.726562 118.359375 246.457031 117.757812 C 246.054688 116.855469 245.582031 115.742188 244.960938 114.464844 C 244.652344 113.824219 244.300781 113.144531 243.878906 112.40625 C 243.453125 111.671875 242.960938 110.882812 242.316406 110.03125 C 240.515625 107.660156 238.496094 105.5625 236.347656 103.648438 C 233.117188 100.78125 229.585938 98.324219 225.941406 96.195312 C 222.292969 94.070312 218.535156 92.285156 214.816406 90.851562 C 211.359375 89.523438 207.074219 87.777344 202.074219 86.320312 C 197.070312 84.867188 191.296875 83.710938 184.890625 83.710938 C 183.082031 83.710938 181.226562 83.804688 179.332031 84.007812 C 176.109375 84.355469 173.359375 85.105469 170.921875 85.832031 C 168.492188 86.566406 166.371094 87.296875 164.683594 87.792969 L 164.691406 87.792969 C 161.863281 88.628906 159.335938 89.726562 157.054688 90.875 C 154.78125 92.023438 152.75 93.234375 151 94.34375 C 146.585938 97.15625 142.511719 100.566406 138.777344 104.175781 C 135.054688 107.789062 131.707031 111.585938 128.933594 115.253906 C 126.515625 118.457031 124.238281 122.058594 122.398438 126.167969 C 120.554688 130.273438 119.171875 134.859375 118.421875 139.882812 C 117.859375 143.609375 119.140625 147.421875 121.839844 150.050781 C 122.78125 150.96875 123.722656 151.703125 124.527344 152.269531 C 125.75 153.117188 126.636719 153.609375 127.097656 153.902344 C 127.308594 154.03125 127.441406 154.117188 127.515625 154.167969 C 127.59375 154.257812 127.738281 154.417969 127.941406 154.65625 C 128.199219 154.949219 128.550781 155.359375 129.039062 155.871094 C 129.410156 156.257812 129.859375 156.699219 130.410156 157.175781 C 131.234375 157.882812 132.308594 158.671875 133.625 159.351562 C 134.933594 160.03125 136.480469 160.570312 138.046875 160.851562 L 138.054688 160.851562 C 139.191406 161.058594 140.273438 161.136719 141.257812 161.136719 C 143.035156 161.132812 144.484375 160.898438 145.644531 160.671875 C 146.515625 160.492188 147.234375 160.3125 147.835938 160.164062 C 148.734375 159.933594 149.367188 159.777344 149.769531 159.699219 C 149.972656 159.660156 150.113281 159.640625 150.203125 159.628906 C 150.234375 159.625 150.261719 159.625 150.28125 159.621094 C 153.789062 160.265625 157.414062 159.277344 160.105469 156.933594 C 162.730469 154.648438 165.007812 152.367188 167.140625 150.3125 C 168.738281 148.773438 170.246094 147.359375 171.691406 146.144531 C 172.769531 145.234375 173.8125 144.441406 174.816406 143.773438 C 176.328125 142.765625 177.730469 142.054688 179.140625 141.574219 C 179.273438 141.53125 179.40625 141.488281 179.535156 141.449219 C 180.550781 142.820312 181.53125 144.453125 182.378906 146.214844 C 183.40625 148.339844 184.25 150.644531 184.824219 152.859375 C 185.140625 154.046875 185.386719 155.773438 185.375 157.105469 C 185.382812 158.046875 185.25 158.792969 185.199219 158.949219 C 184.726562 160.605469 184.054688 162.058594 183.210938 163.351562 C 181.949219 165.292969 180.292969 166.902344 178.261719 168.167969 C 176.230469 169.433594 173.820312 170.339844 171.125 170.753906 C 169.183594 171.058594 167.28125 171.367188 165.210938 171.902344 C 163.65625 172.308594 161.984375 172.84375 160.167969 173.761719 C 158.8125 174.453125 157.375 175.382812 156.03125 176.625 C 155.027344 177.550781 154.089844 178.652344 153.316406 179.847656 C 152.144531 181.640625 151.371094 183.613281 150.933594 185.472656 C 150.492188 187.339844 150.351562 189.105469 150.347656 190.796875 C 150.347656 191.839844 150.40625 192.859375 150.5 193.882812 C 150.753906 196.53125 151.203125 198.929688 151.632812 201.125 C 152.0625 203.316406 152.480469 205.296875 152.746094 206.929688 C 153.128906 209.277344 153.539062 211.425781 153.90625 213.414062 C 154.273438 215.402344 154.601562 217.234375 154.859375 218.984375 C 155.136719 220.875 155.304688 223.003906 155.433594 225.308594 C 155.53125 227.035156 155.609375 228.863281 155.726562 230.777344 C 155.910156 233.644531 156.160156 236.707031 156.839844 239.988281 C 157.183594 241.628906 157.640625 243.324219 158.289062 245.058594 C 158.9375 246.789062 159.78125 248.558594 160.886719 250.28125 C 161.09375 250.601562 161.316406 250.914062 161.550781 251.210938 C 160.730469 252.742188 160.066406 254.363281 159.5625 256.03125 C 158.980469 257.957031 158.617188 259.949219 158.453125 261.957031 L 158.453125 261.949219 C 158.402344 262.578125 158.375 263.203125 158.375 263.816406 C 158.371094 267.363281 159.21875 270.726562 160.597656 273.640625 C 161.632812 275.832031 162.960938 277.785156 164.484375 279.5 C 166.773438 282.070312 169.5 284.121094 172.550781 285.609375 C 175.605469 287.09375 179.011719 288.027344 182.667969 288.140625 C 182.972656 288.152344 183.273438 288.15625 183.578125 288.15625 C 187.535156 288.152344 191.304688 287.375 194.765625 286.050781 C 197.367188 285.050781 199.800781 283.742188 202.035156 282.15625 C 205.382812 279.773438 208.316406 276.769531 210.535156 273.085938 C 211.644531 271.246094 212.5625 269.230469 213.210938 267.054688 C 213.859375 264.878906 214.230469 262.542969 214.230469 260.136719 C 214.234375 257.640625 213.828125 255.078125 213.007812 252.613281 C 212.1875 250.148438 210.960938 247.789062 209.40625 245.636719 C 209.375 245.59375 209.34375 245.554688 209.316406 245.511719 C 209.785156 244.625 210.140625 243.769531 210.421875 242.96875 C 211.128906 240.925781 211.414062 239.160156 211.59375 237.535156 C 211.765625 235.914062 211.808594 234.429688 211.8125 233.054688 C 211.808594 231.492188 211.75 230.074219 211.703125 228.875 C 211.648438 227.6875 211.609375 226.695312 211.613281 226.21875 C 211.613281 226.097656 211.613281 226.015625 211.617188 225.984375 C 211.757812 222.097656 211.875 218.550781 212.035156 215.265625 C 215.902344 213.429688 219.523438 211.285156 222.886719 208.953125 C 228.332031 205.179688 233.113281 200.914062 237.226562 196.542969 C 240.007812 193.582031 242.433594 190.261719 244.535156 186.671875 C 247.6875 181.289062 250.113281 175.300781 251.78125 168.917969 C 253.449219 162.539062 254.351562 155.765625 254.351562 148.816406 C 254.351562 142.097656 253.503906 135.210938 251.632812 128.40625 Z M 251.632812 128.40625 " clip-rule="nonzero"/></clipPath><clipPath id="432857510c"><path d="M 251.632812 128.40625 C 251.214844 126.90625 250.707031 125.757812 250.238281 124.785156 C 249.523438 123.335938 248.867188 122.253906 248.332031 121.347656 C 247.796875 120.445312 247.386719 119.730469 247.144531 119.238281 L 247.136719 119.226562 C 246.957031 118.867188 246.722656 118.359375 246.457031 117.757812 C 246.054688 116.855469 245.582031 115.742188 244.960938 114.464844 C 244.652344 113.828125 244.300781 113.140625 243.878906 112.40625 C 243.453125 111.671875 242.960938 110.882812 242.316406 110.03125 C 240.515625 107.664062 238.496094 105.5625 236.347656 103.648438 C 233.117188 100.78125 229.585938 98.324219 225.941406 96.195312 C 222.292969 94.070312 218.535156 92.285156 214.816406 90.851562 C 211.359375 89.523438 207.074219 87.777344 202.074219 86.320312 C 197.070312 84.867188 191.296875 83.710938 184.890625 83.710938 C 183.082031 83.710938 181.226562 83.804688 179.332031 84.007812 C 176.109375 84.359375 173.359375 85.105469 170.921875 85.832031 C 168.492188 86.566406 166.371094 87.296875 164.683594 87.792969 L 164.691406 87.792969 C 161.863281 88.628906 159.335938 89.726562 157.054688 90.875 C 154.78125 92.027344 152.75 93.234375 151 94.347656 C 146.585938 97.15625 142.511719 100.570312 138.777344 104.175781 C 135.054688 107.789062 131.707031 111.585938 128.933594 115.257812 C 126.515625 118.457031 124.238281 122.058594 122.398438 126.167969 C 120.554688 130.273438 119.171875 134.859375 118.417969 139.882812 C 117.859375 143.609375 119.140625 147.421875 121.839844 150.050781 C 122.78125 150.96875 123.722656 151.703125 124.527344 152.269531 C 125.746094 153.117188 126.636719 153.609375 127.097656 153.902344 C 127.308594 154.03125 127.441406 154.117188 127.515625 154.167969 C 127.59375 154.257812 127.738281 154.421875 127.941406 154.65625 C 128.199219 154.949219 128.550781 155.359375 129.039062 155.871094 C 129.410156 156.257812 129.859375 156.699219 130.410156 157.171875 C 131.234375 157.882812 132.308594 158.671875 133.625 159.351562 C 134.933594 160.03125 136.480469 160.570312 138.046875 160.851562 L 138.054688 160.851562 C 139.191406 161.058594 140.273438 161.136719 141.257812 161.136719 C 143.035156 161.132812 144.484375 160.902344 145.644531 160.671875 C 146.515625 160.496094 147.234375 160.3125 147.835938 160.164062 C 148.734375 159.933594 149.367188 159.777344 149.769531 159.699219 C 149.972656 159.660156 150.113281 159.640625 150.203125 159.628906 C 150.234375 159.628906 150.261719 159.625 150.28125 159.625 C 153.789062 160.265625 157.414062 159.277344 160.105469 156.933594 C 162.730469 154.652344 165.007812 152.367188 167.140625 150.3125 C 168.738281 148.773438 170.246094 147.355469 171.691406 146.144531 C 172.769531 145.238281 173.8125 144.441406 174.816406 143.773438 C 176.328125 142.765625 177.730469 142.054688 179.140625 141.574219 C 179.273438 141.53125 179.40625 141.488281 179.535156 141.449219 C 180.550781 142.824219 181.53125 144.453125 182.378906 146.214844 C 183.40625 148.339844 184.25 150.644531 184.824219 152.859375 C 185.140625 154.046875 185.386719 155.777344 185.375 157.105469 C 185.382812 158.050781 185.25 158.792969 185.199219 158.949219 C 184.726562 160.609375 184.054688 162.058594 183.210938 163.351562 C 181.949219 165.292969 180.292969 166.902344 178.261719 168.167969 C 176.230469 169.433594 173.820312 170.339844 171.125 170.753906 C 169.183594 171.058594 167.28125 171.367188 165.210938 171.902344 C 163.65625 172.308594 161.984375 172.84375 160.167969 173.761719 C 158.8125 174.453125 157.375 175.382812 156.03125 176.625 C 155.027344 177.550781 154.089844 178.652344 153.316406 179.847656 C 152.144531 181.640625 151.371094 183.613281 150.933594 185.472656 C 150.492188 187.339844 150.351562 189.105469 150.347656 190.796875 C 150.347656 191.839844 150.40625 192.859375 150.5 193.882812 C 150.753906 196.53125 151.203125 198.929688 151.632812 201.125 C 152.0625 203.316406 152.480469 205.296875 152.746094 206.929688 C 153.128906 209.277344 153.539062 211.425781 153.90625 213.414062 C 154.273438 215.402344 154.601562 217.234375 154.859375 218.984375 C 155.136719 220.875 155.304688 223.003906 155.433594 225.308594 C 155.53125 227.035156 155.609375 228.863281 155.726562 230.777344 C 155.910156 233.644531 156.160156 236.707031 156.839844 239.988281 C 157.183594 241.628906 157.640625 243.324219 158.289062 245.058594 C 158.9375 246.789062 159.78125 248.558594 160.886719 250.28125 C 161.09375 250.601562 161.316406 250.914062 161.550781 251.210938 C 160.730469 252.742188 160.066406 254.363281 159.5625 256.03125 C 158.980469 257.957031 158.617188 259.949219 158.453125 261.957031 L 158.453125 261.949219 C 158.402344 262.578125 158.375 263.203125 158.375 263.816406 C 158.371094 267.363281 159.21875 270.726562 160.597656 273.640625 C 161.632812 275.832031 162.960938 277.785156 164.484375 279.5 C 166.773438 282.070312 169.5 284.121094 172.550781 285.609375 C 175.605469 287.09375 179.011719 288.027344 182.667969 288.140625 C 182.972656 288.152344 183.273438 288.15625 183.574219 288.15625 C 187.535156 288.152344 191.304688 287.375 194.765625 286.050781 C 197.367188 285.050781 199.800781 283.742188 202.035156 282.15625 C 205.382812 279.773438 208.316406 276.769531 210.535156 273.085938 C 211.644531 271.246094 212.5625 269.230469 213.210938 267.054688 C 213.859375 264.878906 214.230469 262.542969 214.230469 260.136719 C 214.230469 257.640625 213.828125 255.078125 213.007812 252.613281 C 212.1875 250.148438 210.960938 247.789062 209.40625 245.636719 C 209.375 245.59375 209.34375 245.554688 209.316406 245.511719 C 209.785156 244.625 210.140625 243.769531 210.421875 242.96875 C 211.125 240.925781 211.414062 239.160156 211.59375 237.535156 C 211.765625 235.914062 211.808594 234.429688 211.8125 233.054688 C 211.808594 231.492188 211.75 230.074219 211.699219 228.875 C 211.648438 227.6875 211.609375 226.699219 211.613281 226.21875 C 211.613281 226.097656 211.613281 226.015625 211.613281 225.984375 C 211.757812 222.097656 211.875 218.550781 212.035156 215.265625 C 215.902344 213.429688 219.523438 211.285156 222.886719 208.953125 C 228.332031 205.179688 233.113281 200.914062 237.226562 196.542969 C 240.007812 193.582031 242.433594 190.261719 244.535156 186.671875 C 247.6875 181.289062 250.113281 175.300781 251.78125 168.917969 C 253.449219 162.539062 254.351562 155.765625 254.351562 148.816406 C 254.351562 142.097656 253.503906 135.210938 251.632812 128.40625 " clip-rule="nonzero"/></clipPath><clipPath id="6d6f210016"><path d="M 183.945312 356.144531 L 356.511719 189.503906 L 188.695312 15.722656 L 16.128906 182.367188 Z M 183.945312 356.144531 " clip-rule="nonzero"/></clipPath><linearGradient x1="-0.233801" gradientTransform="matrix(-119.714719, -123.968213, 123.968213, -119.714719, 246.758939, 239.475307)" y1="0" x2="1.168001" gradientUnits="userSpaceOnUse" y2="0" id="9f0d954b73"><stop stop-opacity="1" stop-color="rgb(100%, 100%, 100%)" offset="0"/><stop stop-opacity="1" stop-color="rgb(100%, 100%, 100%)" offset="0.125"/><stop stop-opacity="1" stop-color="rgb(100%, 100%, 100%)" offset="0.1875"/><stop stop-opacity="1" stop-color="rgb(99.900818%, 99.900818%, 99.900818%)" offset="0.203125"/><stop stop-opacity="1" stop-color="rgb(99.702454%, 99.702454%, 99.702454%)" offset="0.21875"/><stop stop-opacity="1" stop-color="rgb(99.499512%, 99.499512%, 99.499512%)" offset="0.234375"/><stop stop-opacity="1" stop-color="rgb(99.298096%, 99.298096%, 99.298096%)" offset="0.25"/><stop stop-opacity="1" stop-color="rgb(99.09668%, 99.09668%, 99.09668%)" offset="0.265625"/><stop stop-opacity="1" stop-color="rgb(98.895264%, 98.895264%, 98.895264%)" offset="0.28125"/><stop stop-opacity="1" stop-color="rgb(98.599243%, 98.599243%, 98.599243%)" offset="0.3125"/><stop stop-opacity="1" stop-color="rgb(98.303223%, 98.303223%, 98.303223%)" offset="0.328125"/><stop stop-opacity="1" stop-color="rgb(98.101807%, 98.101807%, 98.101807%)" offset="0.34375"/><stop stop-opacity="1" stop-color="rgb(97.900391%, 97.900391%, 97.900391%)" offset="0.359375"/><stop stop-opacity="1" stop-color="rgb(97.698975%, 97.698975%, 97.698975%)" offset="0.375"/><stop stop-opacity="1" stop-color="rgb(97.445679%, 97.445679%, 97.445679%)" offset="0.40625"/><stop stop-opacity="1" stop-color="rgb(97.099304%, 97.099304%, 97.099304%)" offset="0.4375"/><stop stop-opacity="1" stop-color="rgb(96.90094%, 96.90094%, 96.90094%)" offset="0.46875"/><stop stop-opacity="1" stop-color="rgb(96.798706%, 96.798706%, 96.798706%)" offset="0.484375"/><stop stop-opacity="1" stop-color="rgb(96.598816%, 96.598816%, 96.598816%)" offset="0.5"/><stop stop-opacity="1" stop-color="rgb(96.3974%, 96.3974%, 96.3974%)" offset="0.515625"/><stop stop-opacity="1" stop-color="rgb(96.195984%, 96.195984%, 96.195984%)" offset="0.53125"/><stop stop-opacity="1" stop-color="rgb(95.899963%, 95.899963%, 95.899963%)" offset="0.5625"/><stop stop-opacity="1" stop-color="rgb(95.603943%, 95.603943%, 95.603943%)" offset="0.578125"/><stop stop-opacity="1" stop-color="rgb(95.402527%, 95.402527%, 95.402527%)" offset="0.59375"/><stop stop-opacity="1" stop-color="rgb(95.201111%, 95.201111%, 95.201111%)" offset="0.609375"/><stop stop-opacity="1" stop-color="rgb(94.999695%, 94.999695%, 94.999695%)" offset="0.625"/><stop stop-opacity="1" stop-color="rgb(94.798279%, 94.798279%, 94.798279%)" offset="0.640625"/><stop stop-opacity="1" stop-color="rgb(94.596863%, 94.596863%, 94.596863%)" offset="0.65625"/><stop stop-opacity="1" stop-color="rgb(94.300842%, 94.300842%, 94.300842%)" offset="0.6875"/><stop stop-opacity="1" stop-color="rgb(94.004822%, 94.004822%, 94.004822%)" offset="0.703125"/><stop stop-opacity="1" stop-color="rgb(93.803406%, 93.803406%, 93.803406%)" offset="0.71875"/><stop stop-opacity="1" stop-color="rgb(93.600464%, 93.600464%, 93.600464%)" offset="0.734375"/><stop stop-opacity="1" stop-color="rgb(93.399048%, 93.399048%, 93.399048%)" offset="0.75"/><stop stop-opacity="1" stop-color="rgb(93.197632%, 93.197632%, 93.197632%)" offset="0.765625"/><stop stop-opacity="1" stop-color="rgb(92.996216%, 92.996216%, 92.996216%)" offset="0.78125"/><stop stop-opacity="1" stop-color="rgb(92.700195%, 92.700195%, 92.700195%)" offset="0.8125"/><stop stop-opacity="1" stop-color="rgb(92.352295%, 92.352295%, 92.352295%)" offset="0.875"/><stop stop-opacity="1" stop-color="rgb(92.098999%, 92.098999%, 92.098999%)" offset="0.9375"/><stop stop-opacity="1" stop-color="rgb(91.899109%, 91.899109%, 91.899109%)" offset="1"/></linearGradient></defs><g clip-path="url(#1f2ba2653a)"><g clip-path="url(#ed5af04676)"><path fill="#29452c" d="M 58.5 58.5 L 316.5 58.5 L 316.5 316.5 L 58.5 316.5 Z M 58.5 58.5 " fill-opacity="1" fill-rule="nonzero"/></g></g><g clip-path="url(#3fa6126e34)"><path fill="#112241" d="M 288.226562 216.128906 C 285.503906 225.394531 281.347656 234.191406 276.191406 242.289062 C 271.933594 248.878906 267.089844 255.074219 261.648438 260.707031 C 260.945312 261.476562 260.160156 262.167969 259.410156 262.894531 C 258.652344 263.605469 257.914062 264.34375 257.136719 265.039062 L 254.777344 267.089844 L 253.601562 268.117188 L 252.375 269.089844 L 249.933594 271.042969 C 249.105469 271.675781 248.25 272.273438 247.414062 272.890625 C 245.757812 274.160156 243.996094 275.277344 242.269531 276.449219 C 242.019531 276.617188 241.757812 276.792969 241.484375 276.976562 C 241.203125 277.144531 240.914062 277.320312 240.605469 277.503906 C 240 277.867188 239.34375 278.257812 238.644531 278.675781 C 237.265625 279.542969 235.636719 280.355469 233.875 281.292969 C 233.433594 281.523438 232.988281 281.769531 232.519531 281.996094 C 232.046875 282.214844 231.570312 282.4375 231.078125 282.664062 C 230.101562 283.117188 229.085938 283.585938 228.039062 284.070312 C 225.894531 284.90625 223.65625 285.914062 221.21875 286.695312 C 211.585938 290.1875 199.5625 292.347656 187.5 292.398438 C 175.433594 292.347656 163.414062 290.1875 153.78125 286.695312 C 151.339844 285.914062 149.101562 284.90625 146.957031 284.070312 C 145.910156 283.585938 144.898438 283.117188 143.917969 282.664062 C 143.429688 282.4375 142.949219 282.214844 142.476562 281.996094 C 142.007812 281.773438 141.566406 281.523438 141.121094 281.292969 C 139.363281 280.359375 137.730469 279.542969 136.351562 278.675781 C 135.652344 278.257812 135 277.867188 134.390625 277.503906 C 134.085938 277.320312 133.792969 277.144531 133.511719 276.976562 C 133.238281 276.792969 132.976562 276.617188 132.730469 276.449219 C 126.175781 272.15625 120.019531 267.277344 114.421875 261.796875 C 108.519531 255.898438 103.355469 249.292969 98.808594 242.289062 C 93.648438 234.191406 89.492188 225.394531 86.769531 216.128906 C 83.933594 206.890625 82.621094 197.195312 82.539062 187.5 C 82.621094 177.800781 83.933594 168.105469 86.769531 158.867188 C 89.492188 149.601562 93.648438 140.808594 98.804688 132.707031 C 103.0625 126.117188 107.90625 119.921875 113.347656 114.289062 C 114.050781 113.519531 114.835938 112.828125 115.585938 112.101562 C 116.34375 111.390625 117.082031 110.652344 117.859375 109.957031 L 120.21875 107.90625 L 121.398438 106.878906 L 122.621094 105.90625 L 125.0625 103.953125 C 125.890625 103.320312 126.746094 102.722656 127.582031 102.105469 C 129.238281 100.835938 131.003906 99.71875 132.726562 98.546875 C 132.976562 98.378906 133.238281 98.203125 133.511719 98.019531 C 133.792969 97.851562 134.085938 97.675781 134.390625 97.492188 C 134.996094 97.128906 135.652344 96.738281 136.351562 96.320312 C 137.730469 95.453125 139.359375 94.640625 141.121094 93.703125 C 141.566406 93.476562 142.007812 93.226562 142.476562 93 C 142.949219 92.78125 143.429688 92.558594 143.917969 92.332031 C 144.894531 91.878906 145.910156 91.410156 146.957031 90.925781 C 149.101562 90.089844 151.339844 89.082031 153.777344 88.300781 C 163.414062 84.808594 175.433594 82.648438 187.5 82.597656 C 199.5625 82.648438 211.585938 84.808594 221.214844 88.300781 C 223.65625 89.082031 225.894531 90.089844 228.039062 90.925781 C 229.085938 91.410156 230.097656 91.878906 231.078125 92.332031 C 231.566406 92.558594 232.046875 92.78125 232.519531 93 C 232.988281 93.222656 233.429688 93.476562 233.875 93.703125 C 235.632812 94.636719 237.265625 95.453125 238.644531 96.320312 C 239.34375 96.738281 239.996094 97.128906 240.605469 97.492188 C 240.910156 97.675781 241.203125 97.851562 241.484375 98.019531 C 241.757812 98.203125 242.019531 98.378906 242.265625 98.546875 C 248.820312 102.839844 254.976562 107.71875 260.574219 113.199219 C 266.476562 119.097656 271.640625 125.703125 276.1875 132.707031 C 281.347656 140.804688 285.503906 149.601562 288.226562 158.867188 C 291.0625 168.105469 292.375 177.800781 292.457031 187.5 C 292.375 197.195312 291.0625 206.890625 288.226562 216.128906 Z M 294.871094 187.425781 L 294.867188 187.417969 C 294.78125 177.519531 293.449219 167.613281 290.5625 158.164062 C 287.789062 148.691406 283.542969 139.699219 278.246094 131.4375 L 275.699219 127.609375 C 275.699219 127.609375 274.960938 126.582031 273.859375 125.039062 C 272.796875 123.460938 271.171875 121.519531 269.617188 119.523438 C 267.941406 117.628906 266.339844 115.671875 264.988281 114.335938 C 263.675781 112.964844 262.800781 112.054688 262.800781 112.054688 C 262.800781 112.054688 262.582031 111.828125 262.183594 111.445312 C 261.785156 111.0625 261.21875 110.511719 260.535156 109.855469 C 259.207031 108.5 257.273438 106.867188 255.382812 105.191406 C 254.410156 104.382812 253.410156 103.609375 252.484375 102.867188 C 252.023438 102.5 251.574219 102.140625 251.148438 101.804688 C 250.707031 101.484375 250.292969 101.1875 249.90625 100.910156 C 248.371094 99.796875 247.34375 99.058594 247.34375 99.058594 C 247.34375 99.058594 247.121094 98.878906 246.757812 98.644531 C 246.402344 98.40625 245.925781 98.085938 245.449219 97.765625 C 244.496094 97.128906 243.539062 96.488281 243.539062 96.488281 C 243.285156 96.316406 243.019531 96.136719 242.742188 95.949219 C 242.453125 95.773438 242.15625 95.59375 241.84375 95.40625 C 241.222656 95.03125 240.550781 94.628906 239.839844 94.203125 C 238.429688 93.3125 236.761719 92.476562 234.960938 91.515625 C 234.507812 91.28125 234.050781 91.023438 233.574219 90.796875 C 233.09375 90.570312 232.601562 90.339844 232.101562 90.109375 C 231.101562 89.644531 230.0625 89.164062 228.992188 88.667969 C 226.796875 87.804688 224.507812 86.777344 222.007812 85.972656 C 212.152344 82.390625 199.84375 80.171875 187.5 80.125 C 175.152344 80.171875 162.84375 82.390625 152.984375 85.972656 C 150.488281 86.777344 148.199219 87.804688 146.003906 88.667969 C 144.933594 89.164062 143.898438 89.644531 142.894531 90.109375 C 142.394531 90.34375 141.902344 90.570312 141.421875 90.796875 C 140.941406 91.023438 140.488281 91.28125 140.035156 91.515625 C 138.234375 92.476562 136.566406 93.3125 135.15625 94.203125 C 134.445312 94.628906 133.773438 95.03125 133.152344 95.40625 C 132.839844 95.59375 132.542969 95.777344 132.253906 95.949219 C 131.976562 96.136719 131.710938 96.316406 131.453125 96.488281 C 131.453125 96.488281 130.5 97.128906 129.546875 97.765625 C 129.070312 98.085938 128.59375 98.40625 128.238281 98.644531 C 127.875 98.878906 127.652344 99.058594 127.652344 99.058594 C 127.652344 99.058594 126.628906 99.796875 125.089844 100.910156 C 124.703125 101.1875 124.289062 101.484375 123.847656 101.804688 C 123.421875 102.140625 122.976562 102.5 122.511719 102.867188 C 121.585938 103.609375 120.585938 104.382812 119.617188 105.191406 C 117.722656 106.867188 115.792969 108.5 114.460938 109.855469 C 113.777344 110.511719 113.210938 111.0625 112.8125 111.445312 C 112.414062 111.828125 112.195312 112.054688 112.195312 112.054688 C 112.195312 112.054688 111.320312 112.964844 110.007812 114.335938 C 108.65625 115.671875 107.054688 117.628906 105.378906 119.523438 C 103.824219 121.519531 102.199219 123.460938 101.136719 125.039062 C 100.03125 126.582031 99.296875 127.609375 99.296875 127.609375 L 96.75 131.4375 C 91.453125 139.699219 87.207031 148.691406 84.433594 158.164062 C 81.546875 167.613281 80.214844 177.519531 80.128906 187.417969 L 80.125 187.425781 L 80.125 187.570312 L 80.128906 187.578125 C 80.214844 197.476562 81.546875 207.386719 84.433594 216.832031 C 87.207031 226.304688 91.453125 235.300781 96.75 243.558594 L 99.296875 247.386719 C 99.296875 247.386719 100.035156 248.414062 101.136719 249.960938 C 102.199219 251.535156 103.824219 253.476562 105.378906 255.472656 C 107.054688 257.367188 108.65625 259.324219 110.007812 260.660156 C 111.320312 262.027344 112.195312 262.941406 112.195312 262.941406 C 112.195312 262.941406 112.414062 263.167969 112.8125 263.550781 C 113.210938 263.933594 113.777344 264.484375 114.460938 265.140625 C 115.792969 266.496094 117.722656 268.128906 119.617188 269.804688 C 120.585938 270.613281 121.585938 271.386719 122.511719 272.128906 C 122.976562 272.496094 123.421875 272.855469 123.847656 273.191406 C 124.289062 273.511719 124.703125 273.808594 125.089844 274.085938 C 126.628906 275.199219 127.652344 275.9375 127.652344 275.9375 C 127.652344 275.9375 127.875 276.117188 128.238281 276.351562 C 128.59375 276.589844 129.070312 276.910156 129.546875 277.230469 C 130.5 277.867188 131.457031 278.507812 131.457031 278.507812 C 131.710938 278.679688 131.976562 278.859375 132.253906 279.046875 C 132.542969 279.222656 132.839844 279.402344 133.152344 279.589844 C 133.773438 279.964844 134.445312 280.367188 135.15625 280.792969 C 136.566406 281.683594 138.234375 282.519531 140.035156 283.480469 C 140.488281 283.714844 140.945312 283.972656 141.421875 284.199219 C 141.902344 284.425781 142.394531 284.65625 142.894531 284.886719 C 143.898438 285.351562 144.933594 285.832031 146.003906 286.328125 C 148.199219 287.191406 150.488281 288.21875 152.988281 289.023438 C 162.84375 292.605469 175.152344 294.820312 187.5 294.871094 C 199.84375 294.820312 212.152344 292.605469 222.011719 289.023438 C 224.507812 288.21875 226.796875 287.191406 228.992188 286.328125 C 230.0625 285.832031 231.101562 285.351562 232.101562 284.886719 C 232.601562 284.652344 233.09375 284.425781 233.574219 284.199219 C 234.054688 283.972656 234.507812 283.714844 234.960938 283.480469 C 236.761719 282.519531 238.429688 281.683594 239.839844 280.792969 C 240.550781 280.367188 241.222656 279.964844 241.84375 279.589844 C 242.15625 279.402344 242.453125 279.21875 242.742188 279.046875 C 243.019531 278.859375 243.285156 278.679688 243.542969 278.507812 C 243.542969 278.507812 244.496094 277.867188 245.449219 277.230469 C 245.925781 276.910156 246.402344 276.589844 246.757812 276.351562 C 247.121094 276.117188 247.34375 275.9375 247.34375 275.9375 C 247.34375 275.9375 248.371094 275.199219 249.90625 274.085938 C 250.292969 273.808594 250.707031 273.511719 251.148438 273.191406 C 251.574219 272.855469 252.023438 272.496094 252.484375 272.128906 C 253.410156 271.386719 254.410156 270.613281 255.382812 269.804688 C 257.273438 268.128906 259.207031 266.496094 260.535156 265.140625 C 261.21875 264.484375 261.785156 263.933594 262.183594 263.550781 C 262.582031 263.167969 262.800781 262.941406 262.800781 262.941406 C 262.800781 262.941406 263.675781 262.027344 264.988281 260.660156 C 266.339844 259.324219 267.941406 257.367188 269.617188 255.472656 C 271.171875 253.476562 272.796875 251.535156 273.859375 249.960938 C 274.964844 248.414062 275.699219 247.386719 275.699219 247.386719 L 278.246094 243.558594 C 283.542969 235.300781 287.789062 226.304688 290.5625 216.832031 C 293.449219 207.382812 294.78125 197.476562 294.867188 187.578125 L 294.871094 187.570312 L 294.871094 187.425781 " fill-opacity="1" fill-rule="nonzero"/></g><g clip-path="url(#f2615fa16f)"><path fill="#b7b7b7" d="M 253.980469 131.539062 C 253.5625 130.039062 253.058594 128.890625 252.585938 127.917969 C 251.875 126.46875 251.214844 125.390625 250.683594 124.480469 C 250.148438 123.578125 249.734375 122.863281 249.492188 122.371094 L 249.488281 122.363281 C 249.308594 122 249.074219 121.492188 248.808594 120.894531 C 248.402344 119.988281 247.929688 118.875 247.3125 117.597656 C 247 116.960938 246.652344 116.277344 246.230469 115.539062 C 245.804688 114.804688 245.308594 114.015625 244.664062 113.164062 C 242.867188 110.796875 240.847656 108.695312 238.695312 106.78125 C 235.464844 103.914062 231.9375 101.457031 228.289062 99.332031 C 224.644531 97.207031 220.886719 95.417969 217.167969 93.984375 C 213.707031 92.660156 209.425781 90.910156 204.421875 89.453125 C 199.421875 88.003906 193.648438 86.847656 187.242188 86.847656 C 185.433594 86.847656 183.574219 86.9375 181.679688 87.140625 C 178.460938 87.492188 175.710938 88.242188 173.273438 88.964844 C 170.84375 89.699219 168.71875 90.433594 167.035156 90.925781 L 167.039062 90.925781 C 164.210938 91.765625 161.6875 92.863281 159.40625 94.007812 C 157.128906 95.160156 155.101562 96.371094 153.351562 97.480469 C 148.933594 100.292969 144.859375 103.703125 141.128906 107.308594 C 137.402344 110.921875 134.058594 114.71875 131.28125 118.390625 C 128.863281 121.589844 126.589844 125.195312 124.75 129.300781 C 122.90625 133.40625 121.523438 137.992188 120.769531 143.015625 C 120.207031 146.746094 121.488281 150.554688 124.191406 153.183594 C 125.132812 154.105469 126.074219 154.839844 126.878906 155.402344 C 128.097656 156.25 128.984375 156.746094 129.449219 157.035156 C 129.660156 157.164062 129.792969 157.25 129.863281 157.300781 C 129.945312 157.390625 130.085938 157.554688 130.292969 157.792969 C 130.546875 158.082031 130.898438 158.492188 131.390625 159.007812 C 131.757812 159.390625 132.207031 159.832031 132.761719 160.308594 C 133.585938 161.019531 134.65625 161.808594 135.972656 162.484375 C 137.285156 163.164062 138.828125 163.707031 140.398438 163.988281 L 140.40625 163.988281 C 141.542969 164.195312 142.625 164.269531 143.609375 164.269531 C 145.386719 164.265625 146.832031 164.035156 147.996094 163.804688 C 148.867188 163.628906 149.585938 163.449219 150.1875 163.296875 C 151.085938 163.066406 151.714844 162.910156 152.121094 162.835938 C 152.320312 162.792969 152.464844 162.773438 152.554688 162.761719 C 152.585938 162.761719 152.613281 162.757812 152.628906 162.757812 C 156.136719 163.398438 159.761719 162.410156 162.457031 160.066406 C 165.082031 157.785156 167.359375 155.5 169.492188 153.445312 C 171.089844 151.90625 172.597656 150.492188 174.039062 149.277344 C 175.121094 148.371094 176.164062 147.574219 177.167969 146.90625 C 178.675781 145.902344 180.082031 145.1875 181.492188 144.707031 C 181.621094 144.664062 181.753906 144.625 181.886719 144.582031 C 182.898438 145.957031 183.878906 147.589844 184.730469 149.347656 C 185.757812 151.472656 186.601562 153.78125 187.171875 155.992188 C 187.492188 157.179688 187.734375 158.910156 187.726562 160.238281 C 187.734375 161.183594 187.601562 161.925781 187.546875 162.082031 C 187.078125 163.742188 186.402344 165.191406 185.5625 166.488281 C 184.296875 168.425781 182.640625 170.035156 180.609375 171.304688 C 178.582031 172.566406 176.171875 173.472656 173.476562 173.890625 C 171.535156 174.191406 169.632812 174.5 167.558594 175.035156 C 166.007812 175.445312 164.335938 175.976562 162.519531 176.898438 C 161.164062 177.585938 159.726562 178.515625 158.382812 179.757812 C 157.378906 180.683594 156.441406 181.785156 155.664062 182.980469 C 154.496094 184.777344 153.722656 186.75 153.285156 188.605469 C 152.84375 190.472656 152.699219 192.238281 152.699219 193.933594 C 152.699219 194.972656 152.753906 195.996094 152.851562 197.015625 C 153.101562 199.664062 153.554688 202.066406 153.980469 204.261719 C 154.414062 206.449219 154.832031 208.433594 155.097656 210.0625 C 155.480469 212.410156 155.886719 214.558594 156.253906 216.546875 C 156.625 218.535156 156.953125 220.367188 157.210938 222.117188 C 157.488281 224.007812 157.652344 226.136719 157.78125 228.441406 C 157.878906 230.171875 157.957031 231.996094 158.078125 233.910156 C 158.257812 236.777344 158.507812 239.84375 159.191406 243.121094 C 159.535156 244.761719 159.992188 246.457031 160.640625 248.191406 C 161.289062 249.921875 162.132812 251.691406 163.238281 253.414062 C 163.445312 253.738281 163.667969 254.046875 163.898438 254.34375 C 163.082031 255.875 162.414062 257.496094 161.914062 259.164062 C 161.332031 261.089844 160.96875 263.082031 160.800781 265.089844 L 160.804688 265.082031 C 160.75 265.710938 160.726562 266.335938 160.726562 266.949219 C 160.722656 270.496094 161.570312 273.859375 162.949219 276.773438 C 163.984375 278.964844 165.308594 280.921875 166.832031 282.636719 C 169.125 285.207031 171.847656 287.253906 174.902344 288.742188 C 177.953125 290.226562 181.363281 291.160156 185.015625 291.277344 C 185.324219 291.285156 185.625 291.289062 185.925781 291.289062 C 189.882812 291.289062 193.65625 290.507812 197.117188 289.183594 C 199.714844 288.183594 202.148438 286.875 204.386719 285.289062 C 207.730469 282.90625 210.664062 279.902344 212.886719 276.21875 C 213.992188 274.378906 214.914062 272.363281 215.5625 270.1875 C 216.210938 268.015625 216.582031 265.679688 216.582031 263.269531 C 216.582031 260.777344 216.179688 258.210938 215.355469 255.746094 C 214.539062 253.28125 213.308594 250.921875 211.757812 248.769531 C 211.726562 248.730469 211.695312 248.6875 211.664062 248.648438 C 212.136719 247.757812 212.488281 246.902344 212.773438 246.101562 C 213.476562 244.058594 213.761719 242.292969 213.945312 240.667969 C 214.117188 239.046875 214.160156 237.5625 214.160156 236.1875 C 214.160156 234.628906 214.101562 233.207031 214.050781 232.007812 C 214 230.820312 213.960938 229.832031 213.960938 229.351562 C 213.960938 229.230469 213.964844 229.148438 213.964844 229.117188 C 214.105469 225.230469 214.226562 221.683594 214.382812 218.402344 C 218.253906 216.5625 221.875 214.417969 225.234375 212.085938 C 230.679688 208.3125 235.464844 204.046875 239.574219 199.675781 C 242.355469 196.714844 244.785156 193.394531 246.886719 189.808594 C 250.035156 184.421875 252.460938 178.433594 254.132812 172.054688 C 255.796875 165.671875 256.699219 158.898438 256.703125 151.949219 C 256.703125 145.230469 255.855469 138.34375 253.980469 131.539062 " fill-opacity="1" fill-rule="nonzero"/></g><g clip-path="url(#80aef24d14)"><g clip-path="url(#2cd81265ff)"><g clip-path="url(#432857510c)"><g clip-path="url(#6d6f210016)"><path fill="url(#9f0d954b73)" d="M 183.945312 356.144531 L 356.511719 189.5 L 188.695312 15.722656 L 16.128906 182.367188 Z M 183.945312 356.144531 " fill-rule="nonzero"/></g></g></g></g><path fill="#000000" d="M 145.96875 144.390625 C 147.601562 144.390625 149.234375 144.390625 150.867188 144.390625 C 157.503906 136.324219 165.445312 129.5625 174.449219 123.867188 C 158.78125 123.324219 151.707031 133.984375 145.96875 144.390625 Z M 231.421875 151.433594 C 230.988281 162.023438 226.792969 170.796875 222.539062 177.46875 C 218.929688 183.125 215.929688 187.183594 210.898438 191.25 C 204.414062 196.496094 195.578125 200.574219 186.703125 202.277344 C 187.53125 215.027344 188.839844 227.292969 190.070312 239.640625 C 192.570312 239.691406 194.179688 238.851562 195.890625 238.113281 C 195.980469 226.617188 195.054688 214.476562 195.890625 204.726562 C 207.714844 200.140625 219.835938 193.339844 228.050781 182.980469 C 229.601562 181.023438 231.511719 178.289062 232.644531 175.9375 C 242.679688 155.117188 237.59375 123.574219 221.007812 113.457031 C 227.128906 123.636719 231.992188 137.402344 231.421875 151.433594 Z M 221.3125 176.242188 C 222.558594 174.316406 224.367188 172.3125 225.292969 170.421875 C 233.332031 153.992188 229.289062 131.113281 221.617188 116.824219 C 218.078125 110.230469 212.484375 107.609375 205.691406 104.574219 C 201.636719 102.761719 197.136719 101.027344 193.441406 100.285156 C 183.757812 98.339844 175.429688 100.371094 168.324219 103.042969 C 160.199219 106.101562 150.042969 114.402344 144.4375 121.113281 C 140.117188 126.277344 135.984375 132.367188 135.246094 139.792969 C 137.335938 141.609375 139.671875 144.734375 142.289062 145 C 145.074219 143.085938 146.457031 139.433594 148.722656 136.425781 C 151.011719 133.386719 153.644531 130.519531 156.074219 127.851562 C 157.011719 127.15625 158.171875 126.679688 158.832031 125.707031 C 169.351562 120.671875 182.316406 120.542969 189.765625 127.851562 C 197.59375 135.535156 202.546875 151.84375 199.871094 163.992188 C 195.550781 174.117188 188.871094 182.445312 177.820312 185.125 C 174.269531 185.984375 168.796875 185.503906 167.101562 187.574219 C 165.464844 189.566406 166.84375 194.535156 167.40625 197.988281 C 169.609375 211.480469 170.984375 226.496094 172.917969 238.726562 C 178.695312 240.082031 182.792969 239.671875 188.234375 239.949219 C 187.289062 229.007812 186.066406 213.453125 184.558594 200.746094 C 202.191406 198.117188 213.488281 188.304688 221.3125 176.242188 Z M 200.792969 207.175781 C 200.296875 212.800781 200.121094 218.765625 199.871094 225.554688 C 199.726562 229.503906 201.109375 238.496094 198.035156 241.175781 C 192.222656 246.238281 180.421875 243.078125 170.777344 243.933594 C 166.53125 237.320312 167.921875 227.070312 166.488281 217.285156 C 165.898438 213.257812 165.050781 209.367188 164.34375 205.035156 C 163.683594 201.007812 162.566406 196.671875 162.199219 192.78125 C 161.441406 184.71875 164.953125 183.597656 172.917969 182.371094 C 184.113281 180.640625 193.347656 173.277344 196.503906 162.15625 C 197.558594 158.4375 197.152344 153.582031 196.199219 149.902344 C 194.140625 141.992188 189.785156 133.855469 183.945312 129.074219 C 169.269531 128.992188 161.269531 140.355469 152.398438 148.0625 C 147.535156 147.121094 143.671875 149.929688 140.148438 149.289062 C 137.855469 148.875 137.007812 146.828125 135.246094 145.308594 C 133.488281 143.789062 131.640625 143.191406 130.039062 141.632812 C 131.25 133.617188 134.296875 127.652344 138.308594 122.335938 C 143.046875 116.0625 150.296875 108.710938 157.300781 104.265625 C 160.355469 102.324219 164.144531 100.207031 168.019531 99.0625 C 172.09375 97.855469 176.515625 96.121094 180.578125 95.691406 C 192.417969 94.429688 202.417969 98.667969 210.59375 101.816406 C 218.929688 105.027344 227.992188 110.589844 232.949219 117.128906 C 234.332031 118.953125 235.378906 121.980469 236.628906 124.480469 C 237.9375 127.105469 239.742188 129.488281 240.300781 131.527344 C 246.214844 153.003906 240.144531 176.285156 228.664062 188.492188 C 221.457031 196.15625 211.90625 203.40625 200.792969 207.175781 " fill-opacity="1" fill-rule="evenodd"/><path fill="#83987f" d="M 189.457031 189.414062 C 189.933594 189.78125 190.652344 190.390625 191.296875 189.71875 C 191.011719 189.1875 191.304688 188.074219 190.378906 188.191406 C 190.285156 188.8125 189.765625 189.003906 189.457031 189.414062 Z M 183.332031 188.800781 C 183.472656 190.671875 184.792969 190.855469 186.089844 190.332031 C 186.261719 188.832031 184.902344 188.867188 184.253906 188.191406 C 184.125 188.574219 183.859375 188.816406 183.332031 188.800781 Z M 200.179688 117.128906 C 199.160156 116.71875 199.242188 115.207031 197.726562 115.292969 C 196.480469 116.824219 199.308594 118.601562 200.179688 117.128906 Z M 202.015625 114.070312 C 203.136719 114.132812 203.191406 114.488281 204.160156 114.070312 C 204.183594 112.921875 202.839844 113.140625 203.242188 111.617188 C 202.832031 111.617188 202.425781 111.617188 202.015625 111.617188 C 201.410156 112.21875 201.820312 113.367188 202.015625 114.070312 Z M 184.558594 200.746094 C 186.066406 213.453125 187.289062 229.007812 188.234375 239.949219 C 182.792969 239.671875 178.695312 240.082031 172.917969 238.726562 C 170.984375 226.496094 169.609375 211.480469 167.40625 197.988281 C 166.84375 194.535156 165.464844 189.566406 167.101562 187.574219 C 168.796875 185.503906 174.269531 185.984375 177.820312 185.125 C 188.871094 182.445312 195.550781 174.117188 199.871094 163.992188 C 202.546875 151.84375 197.59375 135.535156 189.765625 127.851562 C 182.316406 120.542969 169.351562 120.671875 158.832031 125.707031 C 158.171875 126.679688 157.011719 127.15625 156.074219 127.851562 C 153.644531 130.519531 151.011719 133.386719 148.722656 136.425781 C 146.457031 139.4375 145.074219 143.085938 142.289062 145 C 139.671875 144.734375 137.335938 141.609375 135.246094 139.792969 C 135.984375 132.367188 140.117188 126.28125 144.4375 121.113281 C 150.042969 114.402344 160.199219 106.101562 168.324219 103.042969 C 175.429688 100.371094 183.757812 98.339844 193.441406 100.285156 C 197.136719 101.027344 201.636719 102.761719 205.691406 104.574219 C 212.484375 107.609375 218.078125 110.230469 221.617188 116.824219 C 229.289062 131.117188 233.332031 153.992188 225.292969 170.421875 C 224.367188 172.316406 222.558594 174.320312 221.3125 176.242188 C 213.488281 188.304688 202.191406 198.121094 184.558594 200.746094 " fill-opacity="1" fill-rule="evenodd"/><path fill="#000000" d="M 202.019531 111.617188 C 202.425781 111.617188 202.835938 111.617188 203.242188 111.617188 C 202.839844 113.140625 204.183594 112.917969 204.160156 114.066406 C 203.191406 114.488281 203.136719 114.132812 202.019531 114.066406 C 201.820312 113.363281 201.410156 112.21875 202.019531 111.617188 " fill-opacity="1" fill-rule="evenodd"/><path fill="#000000" d="M 197.730469 115.292969 C 199.242188 115.207031 199.160156 116.71875 200.179688 117.128906 C 199.308594 118.601562 196.480469 116.824219 197.730469 115.292969 " fill-opacity="1" fill-rule="evenodd"/><path fill="#29452c" d="M 174.449219 123.871094 C 165.445312 129.5625 157.503906 136.324219 150.867188 144.390625 C 149.234375 144.390625 147.601562 144.390625 145.96875 144.390625 C 151.707031 133.984375 158.78125 123.328125 174.449219 123.871094 " fill-opacity="1" fill-rule="evenodd"/><path fill="#000000" d="M 184.253906 188.1875 C 184.902344 188.867188 186.261719 188.832031 186.089844 190.332031 C 184.792969 190.855469 183.472656 190.671875 183.332031 188.800781 C 183.859375 188.816406 184.125 188.574219 184.253906 188.1875 " fill-opacity="1" fill-rule="evenodd"/><path fill="#000000" d="M 190.378906 188.1875 C 191.308594 188.074219 191.011719 189.1875 191.296875 189.71875 C 190.652344 190.390625 189.933594 189.78125 189.457031 189.414062 C 189.765625 189.003906 190.285156 188.8125 190.378906 188.1875 " fill-opacity="1" fill-rule="evenodd"/><path fill="#29452c" d="M 193.746094 269.046875 C 195.980469 263.035156 194.269531 252.632812 187.007812 251.589844 C 197.859375 248.941406 201.550781 263.210938 193.746094 269.046875 " fill-opacity="1" fill-rule="evenodd"/><path fill="#83987f" d="M 183.332031 252.8125 C 183.277344 252.554688 183.453125 252.523438 183.640625 252.507812 C 187.777344 253.625 191.160156 255.027344 192.523438 258.324219 C 196.589844 268.183594 184.972656 277.527344 176.289062 269.964844 C 173.300781 265.273438 173.914062 259.285156 177.820312 255.875 C 180.230469 256.082031 181 253.527344 183.332031 252.8125 " fill-opacity="1" fill-rule="evenodd"/><path fill="#29452c" d="M 221.007812 113.457031 C 237.59375 123.574219 242.679688 155.117188 232.644531 175.933594 C 231.511719 178.289062 229.601562 181.023438 228.050781 182.980469 C 219.835938 193.339844 207.714844 200.140625 195.890625 204.726562 C 195.054688 214.476562 195.980469 226.617188 195.890625 238.113281 C 194.179688 238.851562 192.570312 239.691406 190.070312 239.640625 C 188.839844 227.292969 187.53125 215.027344 186.703125 202.277344 C 195.578125 200.574219 204.414062 196.496094 210.898438 191.25 C 215.929688 187.183594 218.929688 183.125 222.539062 177.46875 C 226.792969 170.796875 230.988281 162.023438 231.417969 151.433594 C 231.992188 137.402344 227.128906 123.632812 221.007812 113.457031 " fill-opacity="1" fill-rule="evenodd"/><path fill="#000000" d="M 177.820312 255.875 C 173.914062 259.285156 173.300781 265.273438 176.289062 269.964844 C 184.972656 277.527344 196.589844 268.183594 192.523438 258.324219 C 191.160156 255.027344 187.777344 253.625 183.640625 252.507812 C 183.453125 252.523438 183.277344 252.554688 183.332031 252.8125 C 181 253.527344 180.230469 256.082031 177.820312 255.875 Z M 187.007812 251.589844 C 194.269531 252.632812 195.980469 263.035156 193.746094 269.046875 C 201.550781 263.210938 197.859375 248.941406 187.007812 251.589844 Z M 187.621094 247.914062 C 191.191406 247.539062 197.339844 248.996094 199.871094 252.507812 C 208.027344 263.828125 195.554688 276.785156 183.027344 276.394531 C 176.21875 276.1875 169.570312 270.121094 170.164062 262.921875 C 170.886719 254.109375 177.539062 248.96875 187.621094 247.914062 " fill-opacity="1" fill-rule="evenodd"/></svg>