<svg xmlns="http://www.w3.org/2000/svg" xmlns:xlink="http://www.w3.org/1999/xlink" width="500" zoomAndPan="magnify" viewBox="0 0 375 374.999991" height="500" preserveAspectRatio="xMidYMid meet" version="1.0"><defs><clipPath id="27c11da306"><path d="M 58.5 58.5 L 316.5 58.5 L 316.5 316.5 L 58.5 316.5 Z M 58.5 58.5 " clip-rule="nonzero"/></clipPath><clipPath id="1cd082b312"><path d="M 187.5 316.5 C 153.058594 316.5 120.628906 303.09375 96.292969 278.707031 C 71.90625 254.371094 58.5 221.941406 58.5 187.5 C 58.5 153.058594 71.90625 120.628906 96.292969 96.292969 C 120.628906 71.90625 153.058594 58.5 187.5 58.5 C 221.941406 58.5 254.371094 71.90625 278.707031 96.292969 C 303.09375 120.679688 316.5 153.058594 316.5 187.5 C 316.5 221.941406 303.09375 254.371094 278.707031 278.707031 C 254.371094 303.09375 221.941406 316.5 187.5 316.5 Z M 187.5 66.234375 C 155.121094 66.234375 124.648438 78.867188 101.757812 101.757812 C 78.867188 124.648438 66.234375 155.121094 66.234375 187.5 C 66.234375 219.878906 78.867188 250.351562 101.757812 273.242188 C 124.648438 296.132812 155.121094 308.765625 187.5 308.765625 C 219.878906 308.765625 250.351562 296.132812 273.242188 273.242188 C 296.132812 250.351562 308.765625 219.878906 308.765625 187.5 C 308.765625 155.121094 296.132812 124.648438 273.242188 101.757812 C 250.351562 78.867188 219.878906 66.234375 187.5 66.234375 Z M 187.5 66.234375 " clip-rule="nonzero"/></clipPath><clipPath id="86481ecd82"><path d="M 80.125 145.417969 L 294.625 145.417969 L 294.625 236.917969 L 80.125 236.917969 Z M 80.125 145.417969 " clip-rule="nonzero"/></clipPath><clipPath id="60ff732734"><path d="M 101 85 L 274 85 L 274 298.46875 L 101 298.46875 Z M 101 85 " clip-rule="nonzero"/></clipPath></defs><g clip-path="url(#27c11da306)"><g clip-path="url(#1cd082b312)"><path fill="#29452c" d="M 58.5 58.5 L 316.5 58.5 L 316.5 316.5 L 58.5 316.5 Z M 58.5 58.5 " fill-opacity="1" fill-rule="nonzero"/></g></g><g clip-path="url(#86481ecd82)"><path fill="#112241" d="M 288.226562 216.128906 C 285.503906 225.394531 281.347656 234.191406 276.191406 242.289062 C 271.933594 248.878906 267.089844 255.074219 261.648438 260.707031 C 260.945312 261.476562 260.160156 262.167969 259.410156 262.894531 C 258.652344 263.605469 257.914062 264.34375 257.136719 265.039062 L 254.777344 267.089844 L 253.601562 268.117188 L 252.375 269.089844 L 249.933594 271.042969 C 249.105469 271.675781 248.25 272.273438 247.414062 272.890625 C 245.757812 274.160156 243.996094 275.277344 242.269531 276.449219 C 242.019531 276.617188 241.757812 276.792969 241.484375 276.976562 C 241.203125 277.144531 240.914062 277.320312 240.605469 277.503906 C 240 277.867188 239.34375 278.257812 238.644531 278.675781 C 237.265625 279.542969 235.636719 280.355469 233.875 281.292969 C 233.433594 281.523438 232.988281 281.769531 232.519531 281.996094 C 232.046875 282.214844 231.570312 282.4375 231.078125 282.664062 C 230.101562 283.117188 229.085938 283.585938 228.039062 284.070312 C 225.894531 284.90625 223.65625 285.914062 221.21875 286.695312 C 211.585938 290.1875 199.5625 292.347656 187.5 292.398438 C 175.433594 292.347656 163.414062 290.1875 153.78125 286.695312 C 151.339844 285.914062 149.101562 284.90625 146.957031 284.070312 C 145.910156 283.585938 144.898438 283.117188 143.917969 282.664062 C 143.429688 282.4375 142.949219 282.214844 142.476562 281.996094 C 142.007812 281.773438 141.566406 281.523438 141.121094 281.292969 C 139.363281 280.359375 137.730469 279.542969 136.351562 278.675781 C 135.652344 278.257812 135 277.867188 134.390625 277.503906 C 134.085938 277.320312 133.792969 277.144531 133.511719 276.976562 C 133.238281 276.792969 132.976562 276.617188 132.730469 276.449219 C 126.175781 272.15625 120.019531 267.277344 114.421875 261.796875 C 108.519531 255.898438 103.355469 249.292969 98.808594 242.289062 C 93.648438 234.191406 89.492188 225.394531 86.769531 216.128906 C 83.933594 206.890625 82.621094 197.195312 82.539062 187.5 C 82.621094 177.800781 83.933594 168.105469 86.769531 158.867188 C 89.492188 149.601562 93.648438 140.808594 98.804688 132.707031 C 103.0625 126.117188 107.90625 119.921875 113.347656 114.289062 C 114.050781 113.519531 114.835938 112.828125 115.585938 112.101562 C 116.34375 111.390625 117.082031 110.652344 117.859375 109.957031 L 120.21875 107.90625 L 121.398438 106.878906 L 122.621094 105.90625 L 125.0625 103.953125 C 125.890625 103.320312 126.746094 102.722656 127.582031 102.105469 C 129.238281 100.835938 131.003906 99.71875 132.726562 98.546875 C 132.976562 98.378906 133.238281 98.203125 133.511719 98.019531 C 133.792969 97.851562 134.085938 97.675781 134.390625 97.492188 C 134.996094 97.128906 135.652344 96.738281 136.351562 96.320312 C 137.730469 95.453125 139.359375 94.640625 141.121094 93.703125 C 141.566406 93.476562 142.007812 93.226562 142.476562 93 C 142.949219 92.78125 143.429688 92.558594 143.917969 92.332031 C 144.894531 91.878906 145.910156 91.410156 146.957031 90.925781 C 149.101562 90.089844 151.339844 89.082031 153.777344 88.300781 C 163.414062 84.808594 175.433594 82.648438 187.5 82.597656 C 199.5625 82.648438 211.585938 84.808594 221.214844 88.300781 C 223.65625 89.082031 225.894531 90.089844 228.039062 90.925781 C 229.085938 91.410156 230.097656 91.878906 231.078125 92.332031 C 231.566406 92.558594 232.046875 92.78125 232.519531 93 C 232.988281 93.222656 233.429688 93.476562 233.875 93.703125 C 235.632812 94.636719 237.265625 95.453125 238.644531 96.320312 C 239.34375 96.738281 239.996094 97.128906 240.605469 97.492188 C 240.910156 97.675781 241.203125 97.851562 241.484375 98.019531 C 241.757812 98.203125 242.019531 98.378906 242.265625 98.546875 C 248.820312 102.839844 254.976562 107.71875 260.574219 113.199219 C 266.476562 119.097656 271.640625 125.703125 276.1875 132.707031 C 281.347656 140.804688 285.503906 149.601562 288.226562 158.867188 C 291.0625 168.105469 292.375 177.800781 292.457031 187.5 C 292.375 197.195312 291.0625 206.890625 288.226562 216.128906 Z M 294.871094 187.425781 L 294.867188 187.417969 C 294.78125 177.519531 293.449219 167.613281 290.5625 158.164062 C 287.789062 148.691406 283.542969 139.699219 278.246094 131.4375 L 275.699219 127.609375 C 275.699219 127.609375 274.960938 126.582031 273.859375 125.039062 C 272.796875 123.460938 271.171875 121.519531 269.617188 119.523438 C 267.941406 117.628906 266.339844 115.671875 264.988281 114.335938 C 263.675781 112.964844 262.800781 112.054688 262.800781 112.054688 C 262.800781 112.054688 262.582031 111.828125 262.183594 111.445312 C 261.785156 111.0625 261.21875 110.511719 260.535156 109.855469 C 259.207031 108.5 257.273438 106.867188 255.382812 105.191406 C 254.410156 104.382812 253.410156 103.609375 252.484375 102.867188 C 252.023438 102.5 251.574219 102.140625 251.148438 101.804688 C 250.707031 101.484375 250.292969 101.1875 249.90625 100.910156 C 248.371094 99.796875 247.34375 99.058594 247.34375 99.058594 C 247.34375 99.058594 247.121094 98.878906 246.757812 98.644531 C 246.402344 98.40625 245.925781 98.085938 245.449219 97.765625 C 244.496094 97.128906 243.539062 96.488281 243.539062 96.488281 C 243.285156 96.316406 243.019531 96.136719 242.742188 95.949219 C 242.453125 95.773438 242.15625 95.59375 241.84375 95.40625 C 241.222656 95.03125 240.550781 94.628906 239.839844 94.203125 C 238.429688 93.3125 236.761719 92.476562 234.960938 91.515625 C 234.507812 91.28125 234.050781 91.023438 233.574219 90.796875 C 233.09375 90.570312 232.601562 90.339844 232.101562 90.109375 C 231.101562 89.644531 230.0625 89.164062 228.992188 88.667969 C 226.796875 87.804688 224.507812 86.777344 222.007812 85.972656 C 212.152344 82.390625 199.84375 80.171875 187.5 80.125 C 175.152344 80.171875 162.84375 82.390625 152.984375 85.972656 C 150.488281 86.777344 148.199219 87.804688 146.003906 88.667969 C 144.933594 89.164062 143.898438 89.644531 142.894531 90.109375 C 142.394531 90.34375 141.902344 90.570312 141.421875 90.796875 C 140.941406 91.023438 140.488281 91.28125 140.035156 91.515625 C 138.234375 92.476562 136.566406 93.3125 135.15625 94.203125 C 134.445312 94.628906 133.773438 95.03125 133.152344 95.40625 C 132.839844 95.59375 132.542969 95.777344 132.253906 95.949219 C 131.976562 96.136719 131.710938 96.316406 131.453125 96.488281 C 131.453125 96.488281 130.5 97.128906 129.546875 97.765625 C 129.070312 98.085938 128.59375 98.40625 128.238281 98.644531 C 127.875 98.878906 127.652344 99.058594 127.652344 99.058594 C 127.652344 99.058594 126.628906 99.796875 125.089844 100.910156 C 124.703125 101.1875 124.289062 101.484375 123.847656 101.804688 C 123.421875 102.140625 122.976562 102.5 122.511719 102.867188 C 121.585938 103.609375 120.585938 104.382812 119.617188 105.191406 C 117.722656 106.867188 115.792969 108.5 114.460938 109.855469 C 113.777344 110.511719 113.210938 111.0625 112.8125 111.445312 C 112.414062 111.828125 112.195312 112.054688 112.195312 112.054688 C 112.195312 112.054688 111.320312 112.964844 110.007812 114.335938 C 108.65625 115.671875 107.054688 117.628906 105.378906 119.523438 C 103.824219 121.519531 102.199219 123.460938 101.136719 125.039062 C 100.03125 126.582031 99.296875 127.609375 99.296875 127.609375 L 96.75 131.4375 C 91.453125 139.699219 87.207031 148.691406 84.433594 158.164062 C 81.546875 167.613281 80.214844 177.519531 80.128906 187.417969 L 80.125 187.425781 L 80.125 187.570312 L 80.128906 187.578125 C 80.214844 197.476562 81.546875 207.386719 84.433594 216.832031 C 87.207031 226.304688 91.453125 235.300781 96.75 243.558594 L 99.296875 247.386719 C 99.296875 247.386719 100.035156 248.414062 101.136719 249.960938 C 102.199219 251.535156 103.824219 253.476562 105.378906 255.472656 C 107.054688 257.367188 108.65625 259.324219 110.007812 260.660156 C 111.320312 262.027344 112.195312 262.941406 112.195312 262.941406 C 112.195312 262.941406 112.414062 263.167969 112.8125 263.550781 C 113.210938 263.933594 113.777344 264.484375 114.460938 265.140625 C 115.792969 266.496094 117.722656 268.128906 119.617188 269.804688 C 120.585938 270.613281 121.585938 271.386719 122.511719 272.128906 C 122.976562 272.496094 123.421875 272.855469 123.847656 273.191406 C 124.289062 273.511719 124.703125 273.808594 125.089844 274.085938 C 126.628906 275.199219 127.652344 275.9375 127.652344 275.9375 C 127.652344 275.9375 127.875 276.117188 128.238281 276.351562 C 128.59375 276.589844 129.070312 276.910156 129.546875 277.230469 C 130.5 277.867188 131.457031 278.507812 131.457031 278.507812 C 131.710938 278.679688 131.976562 278.859375 132.253906 279.046875 C 132.542969 279.222656 132.839844 279.402344 133.152344 279.589844 C 133.773438 279.964844 134.445312 280.367188 135.15625 280.792969 C 136.566406 281.683594 138.234375 282.519531 140.035156 283.480469 C 140.488281 283.714844 140.945312 283.972656 141.421875 284.199219 C 141.902344 284.425781 142.394531 284.65625 142.894531 284.886719 C 143.898438 285.351562 144.933594 285.832031 146.003906 286.328125 C 148.199219 287.191406 150.488281 288.21875 152.988281 289.023438 C 162.84375 292.605469 175.152344 294.820312 187.5 294.871094 C 199.84375 294.820312 212.152344 292.605469 222.011719 289.023438 C 224.507812 288.21875 226.796875 287.191406 228.992188 286.328125 C 230.0625 285.832031 231.101562 285.351562 232.101562 284.886719 C 232.601562 284.652344 233.09375 284.425781 233.574219 284.199219 C 234.054688 283.972656 234.507812 283.714844 234.960938 283.480469 C 236.761719 282.519531 238.429688 281.683594 239.839844 280.792969 C 240.550781 280.367188 241.222656 279.964844 241.84375 279.589844 C 242.15625 279.402344 242.453125 279.21875 242.742188 279.046875 C 243.019531 278.859375 243.285156 278.679688 243.542969 278.507812 C 243.542969 278.507812 244.496094 277.867188 245.449219 277.230469 C 245.925781 276.910156 246.402344 276.589844 246.757812 276.351562 C 247.121094 276.117188 247.34375 275.9375 247.34375 275.9375 C 247.34375 275.9375 248.371094 275.199219 249.90625 274.085938 C 250.292969 273.808594 250.707031 273.511719 251.148438 273.191406 C 251.574219 272.855469 252.023438 272.496094 252.484375 272.128906 C 253.410156 271.386719 254.410156 270.613281 255.382812 269.804688 C 257.273438 268.128906 259.207031 266.496094 260.535156 265.140625 C 261.21875 264.484375 261.785156 263.933594 262.183594 263.550781 C 262.582031 263.167969 262.800781 262.941406 262.800781 262.941406 C 262.800781 262.941406 263.675781 262.027344 264.988281 260.660156 C 266.339844 259.324219 267.941406 257.367188 269.617188 255.472656 C 271.171875 253.476562 272.796875 251.535156 273.859375 249.960938 C 274.964844 248.414062 275.699219 247.386719 275.699219 247.386719 L 278.246094 243.558594 C 283.542969 235.300781 287.789062 226.304688 290.5625 216.832031 C 293.449219 207.382812 294.78125 197.476562 294.867188 187.578125 L 294.871094 187.570312 L 294.871094 187.425781 " fill-opacity="1" fill-rule="nonzero"/></g><g clip-path="url(#60ff732734)"><path fill="#29452c" d="M 248.578125 109.773438 L 232.984375 123.429688 L 245.511719 106.375 C 232.316406 92.511719 214.011719 83.964844 189.765625 85.171875 L 187.496094 99.660156 L 185.222656 85.171875 C 160.976562 83.964844 142.671875 92.511719 129.476562 106.375 L 142.003906 123.429688 L 126.410156 109.773438 C 97.121094 144.378906 95.722656 206.566406 110.984375 238.339844 C 115.90625 248.574219 122.324219 257.25 129.371094 264.566406 L 138.816406 255.871094 L 131.664062 266.859375 C 149.136719 283.996094 169.734375 293.148438 180.363281 297.046875 C 182.667969 297.890625 185.042969 298.3125 187.496094 298.3125 C 189.945312 298.3125 192.324219 297.890625 194.625 297.046875 C 205.257812 293.148438 225.855469 283.996094 243.324219 266.859375 L 236.175781 255.871094 L 245.617188 264.566406 C 252.664062 257.25 259.085938 248.574219 264.003906 238.339844 C 279.265625 206.566406 277.867188 144.378906 248.578125 109.773438 Z M 176.863281 220.890625 C 178.121094 221.777344 179.519531 222.269531 181.054688 222.371094 C 181.429688 222.414062 181.742188 222.390625 182.179688 222.371094 L 183.554688 222.308594 L 184.929688 222.289062 L 185.578125 222.265625 L 185.554688 222.226562 L 189.453125 222.226562 L 189.433594 222.265625 L 190.101562 222.289062 L 191.457031 222.328125 L 192.832031 222.390625 C 193.269531 222.390625 193.582031 222.433594 193.980469 222.390625 C 195.511719 222.285156 196.910156 221.789062 198.167969 220.910156 C 199.515625 219.976562 200.523438 218.757812 201.191406 217.261719 C 201.859375 215.617188 202.546875 213.84375 203.359375 212.175781 C 203.296875 214.074219 203.191406 215.867188 202.941406 217.761719 C 202.628906 219.765625 201.628906 221.703125 200.109375 223.183594 C 198.605469 224.683594 196.605469 225.769531 194.417969 226.082031 C 193.894531 226.1875 193.289062 226.207031 192.832031 226.226562 L 191.457031 226.289062 L 188.726562 226.375 L 187.621094 226.394531 L 187.390625 226.394531 L 186.308594 226.375 L 183.554688 226.3125 L 182.179688 226.25 C 181.71875 226.207031 181.117188 226.1875 180.59375 226.082031 C 178.382812 225.734375 176.484375 224.769531 174.902344 223.183594 C 173.382812 221.703125 172.378906 219.742188 172.066406 217.761719 C 171.839844 215.867188 171.714844 214.074219 171.652344 212.175781 C 172.464844 213.84375 173.152344 215.617188 173.839844 217.242188 C 174.496094 218.75 175.503906 219.964844 176.863281 220.890625 Z M 120.179688 176.171875 C 120.179688 164.414062 132.25 154.90625 147.15625 154.90625 C 162.0625 154.90625 174.132812 164.414062 174.132812 176.171875 C 174.132812 187.910156 162.0625 197.4375 147.15625 197.4375 C 132.25 197.4375 120.179688 187.910156 120.179688 176.171875 Z M 187.496094 267.003906 C 153.886719 262.128906 154.929688 239.070312 154.929688 239.070312 L 220.058594 239.070312 C 220.058594 239.070312 221.101562 262.128906 187.496094 267.003906 Z M 227.835938 197.4375 C 212.929688 197.4375 200.859375 187.910156 200.859375 176.171875 C 200.859375 164.414062 212.929688 154.90625 227.835938 154.90625 C 242.742188 154.90625 254.8125 164.414062 254.8125 176.171875 C 254.8125 187.910156 242.742188 197.4375 227.835938 197.4375 Z M 227.835938 197.4375 " fill-opacity="1" fill-rule="nonzero"/></g></svg>